  0
SECTION
  2
HEADER
  9
$ACADVER
  1
AC1006
  9
$EXTMIN
 10
0.000000
 20
0.000000
 30
0.000000
  9
$EXTMAX
 10
227.000000
 20
227.000000
 30
0.000000
  0
ENDSEC
  0
SECTION
  2
ENTITIES
  0
POLYLINE
  8
0
 66
1
 70
1
  0
VERTEX
  8
0
 10
127.975551
 20
217.553307
 42
0.010560
  0
VERTEX
  8
0
 10
126.084402
 20
216.102390
 42
0.008384
  0
VERTEX
  8
0
 10
124.102551
 20
214.458972
 42
0.008491
  0
VERTEX
  8
0
 10
122.315978
 20
212.872761
 42
0.020934
  0
VERTEX
  8
0
 10
121.075686
 20
211.633688
 42
-0.042289
  0
VERTEX
  8
0
 10
119.656158
 20
210.331684
 42
-0.071862
  0
VERTEX
  8
0
 10
118.255929
 20
209.540645
 42
-0.064616
  0
VERTEX
  8
0
 10
116.585475
 20
209.128833
 42
-0.028171
  0
VERTEX
  8
0
 10
114.300703
 20
209.000000
 42
0.102885
  0
VERTEX
  8
0
 10
102.474784
 20
206.540541
 42
0.064520
  0
VERTEX
  8
0
 10
90.304540
 20
199.262535
 42
0.056617
  0
VERTEX
  8
0
 10
78.883851
 20
187.943336
 42
0.045262
  0
VERTEX
  8
0
 10
69.290761
 20
173.500000
 42
-0.006940
  0
VERTEX
  8
0
 10
67.673390
 20
170.606505
 42
-0.052480
  0
VERTEX
  8
0
 10
66.754426
 20
169.341998
 42
-0.403276
  0
VERTEX
  8
0
 10
66.289531
 20
169.309014
 42
-0.219790
  0
VERTEX
  8
0
 10
66.022713
 20
169.872445
 42
0.017440
  0
VERTEX
  8
0
 10
65.964404
 20
171.183363
 42
0.228219
  0
VERTEX
  8
0
 10
65.725789
 20
171.592412
 42
0.303003
  0
VERTEX
  8
0
 10
65.310344
 20
171.594715
 42
0.027469
  0
VERTEX
  8
0
 10
64.434063
 20
170.945277
 42
0.047118
  0
VERTEX
  8
0
 10
63.726018
 20
170.235116
 42
0.017960
  0
VERTEX
  8
0
 10
62.875220
 20
169.124782
 42
0.017599
  0
VERTEX
  8
0
 10
62.031509
 20
167.844589
 42
0.020621
  0
VERTEX
  8
0
 10
61.326337
 20
166.572833
 42
-0.049238
  0
VERTEX
  8
0
 10
60.369083
 20
165.057600
 42
-0.014199
  0
VERTEX
  8
0
 10
58.602993
 20
162.918771
 42
-0.014136
  0
VERTEX
  8
0
 10
56.463639
 20
160.608003
 42
-0.014622
  0
VERTEX
  8
0
 10
54.220443
 20
158.448515
 42
0.011572
  0
VERTEX
  8
0
 10
50.760154
 20
155.157776
 42
0.075133
  0
VERTEX
  8
0
 10
49.333209
 20
153.230720
 42
0.086283
  0
VERTEX
  8
0
 10
48.631135
 20
151.077993
 42
0.017729
  0
VERTEX
  8
0
 10
48.200165
 20
147.090501
 42
0.004538
  0
VERTEX
  8
0
 10
47.935740
 20
142.907623
 42
0.096662
  0
VERTEX
  8
0
 10
48.106630
 20
141.683180
 42
0.331523
  0
VERTEX
  8
0
 10
48.716000
 20
141.267039
 42
0.063430
  0
VERTEX
  8
0
 10
50.121996
 20
141.505160
 42
0.025694
  0
VERTEX
  8
0
 10
51.338893
 20
141.943628
 42
0.007690
  0
VERTEX
  8
0
 10
53.145497
 20
142.734407
 42
0.007688
  0
VERTEX
  8
0
 10
55.149277
 20
143.685955
 42
0.008255
  0
VERTEX
  8
0
 10
57.075442
 20
144.677097
 42
0.066948
  0
VERTEX
  8
0
 10
60.175225
 20
146.915619
 42
0.076723
  0
VERTEX
  8
0
 10
62.409272
 20
149.803003
 42
0.057333
  0
VERTEX
  8
0
 10
64.095271
 20
153.895012
 42
0.020912
  0
VERTEX
  8
0
 10
65.553512
 20
160.000000
 42
-0.054091
  0
VERTEX
  8
0
 10
66.828401
 20
164.110793
 42
-0.011072
  0
VERTEX
  8
0
 10
70.010392
 20
171.031660
 42
-0.012363
  0
VERTEX
  8
0
 10
73.683441
 20
178.124716
 42
-0.025030
  0
VERTEX
  8
0
 10
76.982996
 20
183.475285
 42
-0.027898
  0
VERTEX
  8
0
 10
80.201304
 20
187.635582
 42
-0.015713
  0
VERTEX
  8
0
 10
84.533393
 20
192.326752
 42
-0.015681
  0
VERTEX
  8
0
 10
89.188662
 20
196.772591
 42
-0.025967
  0
VERTEX
  8
0
 10
93.414868
 20
200.183936
 42
-0.052109
  0
VERTEX
  8
0
 10
97.584862
 20
202.588502
 42
-0.024709
  0
VERTEX
  8
0
 10
103.376079
 20
204.831579
 42
-0.024670
  0
VERTEX
  8
0
 10
109.324808
 20
206.483020
 42
-0.055422
  0
VERTEX
  8
0
 10
113.974493
 20
207.000000
 42
-0.022270
  0
VERTEX
  8
0
 10
116.194129
 20
206.901087
 42
-0.140176
  0
VERTEX
  8
0
 10
117.241129
 20
206.497878
 42
-0.159596
  0
VERTEX
  8
0
 10
117.846185
 20
205.628725
 42
-0.031319
  0
VERTEX
  8
0
 10
118.284081
 20
203.750000
 42
0.010221
  0
VERTEX
  8
0
 10
118.543295
 20
202.378643
 42
0.008748
  0
VERTEX
  8
0
 10
118.870907
 20
200.945618
 42
0.008842
  0
VERTEX
  8
0
 10
119.214501
 20
199.653667
 42
0.024774
  0
VERTEX
  8
0
 10
119.515390
 20
198.766997
 42
-0.044974
  0
VERTEX
  8
0
 10
119.789102
 20
197.838954
 42
-0.386886
  0
VERTEX
  8
0
 10
119.584802
 20
197.499198
 42
-0.148372
  0
VERTEX
  8
0
 10
118.964982
 20
197.501358
 42
-0.009337
  0
VERTEX
  8
0
 10
117.210594
 20
198.076431
 42
0.042174
  0
VERTEX
  8
0
 10
115.558256
 20
198.500333
 42
0.061367
  0
VERTEX
  8
0
 10
114.056996
 20
198.566809
 42
0.054153
  0
VERTEX
  8
0
 10
112.451580
 20
198.263828
 42
0.025267
  0
VERTEX
  8
0
 10
110.456588
 20
197.546308
 42
0.013245
  0
VERTEX
  8
0
 10
107.574627
 20
196.251459
 42
0.353918
  0
VERTEX
  8
0
 10
107.238732
 20
195.541147
 42
0.434101
  0
VERTEX
  8
0
 10
107.837589
 20
195.203740
 42
0.013727
  0
VERTEX
  8
0
 10
110.778579
 20
196.222525
 42
-0.042709
  0
VERTEX
  8
0
 10
112.520957
 20
196.715184
 42
-0.042018
  0
VERTEX
  8
0
 10
114.331319
 20
196.908181
 42
-0.036108
  0
VERTEX
  8
0
 10
116.377648
 20
196.805850
 42
-0.019978
  0
VERTEX
  8
0
 10
118.848041
 20
196.401851
 42
0.019613
  0
VERTEX
  8
0
 10
120.869457
 20
196.069759
 42
0.020767
  0
VERTEX
  8
0
 10
122.872472
 20
195.904974
 42
0.020916
  0
VERTEX
  8
0
 10
124.600735
 20
195.907169
 42
0.083055
  0
VERTEX
  8
0
 10
125.635405
 20
196.126431
 42
-0.068210
  0
VERTEX
  8
0
 10
128.642118
 20
196.856956
 42
-0.049048
  0
VERTEX
  8
0
 10
132.101681
 20
196.871204
 42
-0.050314
  0
VERTEX
  8
0
 10
135.361085
 20
196.229328
 42
-0.093151
  0
VERTEX
  8
0
 10
137.744933
 20
194.985996
 42
0.026482
  0
VERTEX
  8
0
 10
139.861539
 20
193.495397
 42
0.331795
  0
VERTEX
  8
0
 10
140.780195
 20
193.569154
 42
0.399660
  0
VERTEX
  8
0
 10
140.853729
 20
194.388353
 42
0.028631
  0
VERTEX
  8
0
 10
139.189394
 20
196.255051
 42
0.054301
  0
VERTEX
  8
0
 10
137.945594
 20
197.254505
 42
0.058127
  0
VERTEX
  8
0
 10
136.542972
 20
197.936001
 42
0.052062
  0
VERTEX
  8
0
 10
134.890993
 20
198.326510
 42
0.032035
  0
VERTEX
  8
0
 10
132.894690
 20
198.454545
 42
0.000000
  0
VERTEX
  8
0
 10
128.799482
 20
198.454545
 42
0.000000
  0
VERTEX
  8
0
 10
132.649741
 20
201.712396
 42
-0.069712
  0
VERTEX
  8
0
 10
136.502675
 20
204.144389
 42
-0.105504
  0
VERTEX
  8
0
 10
140.363873
 20
204.982003
 42
-0.086840
  0
VERTEX
  8
0
 10
144.767205
 20
204.226798
 42
-0.035230
  0
VERTEX
  8
0
 10
150.360023
 20
201.772456
 42
-0.044167
  0
VERTEX
  8
0
 10
156.072165
 20
198.093058
 42
-0.025820
  0
VERTEX
  8
0
 10
162.239144
 20
192.769293
 42
-0.025851
  0
VERTEX
  8
0
 10
167.673069
 20
186.998351
 42
-0.057285
  0
VERTEX
  8
0
 10
171.026925
 20
181.980518
 42
-0.033565
  0
VERTEX
  8
0
 10
172.198417
 20
179.267676
 42
-0.041559
  0
VERTEX
  8
0
 10
172.898816
 20
176.607725
 42
-0.031114
  0
VERTEX
  8
0
 10
173.269695
 20
173.315809
 42
-0.010150
  0
VERTEX
  8
0
 10
173.414851
 20
168.427235
 42
0.008536
  0
VERTEX
  8
0
 10
173.555153
 20
163.125183
 42
0.041924
  0
VERTEX
  8
0
 10
173.935101
 20
160.157284
 42
0.061150
  0
VERTEX
  8
0
 10
174.736760
 20
157.841610
 42
0.032299
  0
VERTEX
  8
0
 10
176.250000
 20
155.198676
 42
-0.022662
  0
VERTEX
  8
0
 10
177.301899
 20
153.440887
 42
-0.022713
  0
VERTEX
  8
0
 10
178.189526
 20
151.596410
 42
-0.023251
  0
VERTEX
  8
0
 10
178.813539
 20
149.921379
 42
-0.078688
  0
VERTEX
  8
0
 10
178.990941
 20
148.771440
 42
-0.051787
  0
VERTEX
  8
0
 10
178.569123
 20
144.861578
 42
-0.005063
  0
VERTEX
  8
0
 10
176.484307
 20
135.585497
 42
-0.005770
  0
VERTEX
  8
0
 10
174.212406
 20
126.410818
 42
-0.039201
  0
VERTEX
  8
0
 10
172.688545
 20
122.000000
 42
0.000000
  0
VERTEX
  8
0
 10
171.163148
 20
118.500000
 42
0.000000
  0
VERTEX
  8
0
 10
171.081574
 20
123.690983
 42
0.013935
  0
VERTEX
  8
0
 10
170.887478
 20
128.141759
 42
0.282608
  0
VERTEX
  8
0
 10
170.132854
 20
129.193662
 42
0.435952
  0
VERTEX
  8
0
 10
169.215827
 20
128.779099
 42
0.018279
  0
VERTEX
  8
0
 10
168.083845
 20
124.950084
 42
-0.014746
  0
VERTEX
  8
0
 10
167.537558
 20
123.053041
 42
-0.022786
  0
VERTEX
  8
0
 10
166.944025
 20
121.454087
 42
-0.018971
  0
VERTEX
  8
0
 10
166.371928
 20
120.235527
 42
-0.280508
  0
VERTEX
  8
0
 10
165.985140
 20
120.000000
 42
0.241524
  0
VERTEX
  8
0
 10
165.589535
 20
119.797065
 42
0.025627
  0
VERTEX
  8
0
 10
165.011498
 20
118.898437
 42
0.027115
  0
VERTEX
  8
0
 10
164.401824
 20
117.686686
 42
0.018437
  0
VERTEX
  8
0
 10
163.836197
 20
116.250000
 42
0.000000
  0
VERTEX
  8
0
 10
162.517290
 20
112.500000
 42
0.000000
  0
VERTEX
  8
0
 10
161.915748
 20
117.500000
 42
0.001206
  0
VERTEX
  8
0
 10
161.495023
 20
120.927343
 42
0.768540
  0
VERTEX
  8
0
 10
161.372739
 20
120.944042
 42
0.093023
  0
VERTEX
  8
0
 10
161.272059
 20
120.472785
 42
0.000479
  0
VERTEX
  8
0
 10
161.157104
 20
115.685381
 42
-0.041246
  0
VERTEX
  8
0
 10
160.595032
 20
110.377181
 42
-0.030586
  0
VERTEX
  8
0
 10
159.140110
 20
104.657563
 42
-0.025969
  0
VERTEX
  8
0
 10
157.355058
 20
99.946201
 42
-0.455681
  0
VERTEX
  8
0
 10
155.973402
 20
99.516438
 42
-0.217429
  0
VERTEX
  8
0
 10
155.657230
 20
99.989644
 42
-0.011078
  0
VERTEX
  8
0
 10
155.395344
 20
101.865957
 42
-0.016019
  0
VERTEX
  8
0
 10
155.199525
 20
104.178111
 42
-0.010774
  0
VERTEX
  8
0
 10
155.117610
 20
106.827506
 42
0.021947
  0
VERTEX
  8
0
 10
154.954491
 20
109.887894
 42
0.013616
  0
VERTEX
  8
0
 10
154.508083
 20
113.458769
 42
0.013654
  0
VERTEX
  8
0
 10
153.873817
 20
116.966116
 42
0.023885
  0
VERTEX
  8
0
 10
153.132311
 20
119.822707
 42
0.033131
  0
VERTEX
  8
0
 10
151.128094
 20
125.021319
 42
0.024368
  0
VERTEX
  8
0
 10
148.259959
 20
130.491256
 42
0.016229
  0
VERTEX
  8
0
 10
145.300689
 20
135.168497
 42
0.401676
  0
VERTEX
  8
0
 10
143.935267
 20
135.459993
 42
0.171446
  0
VERTEX
  8
0
 10
143.051395
 20
134.361676
 42
0.017758
  0
VERTEX
  8
0
 10
142.047353
 20
131.144708
 42
0.023134
  0
VERTEX
  8
0
 10
141.261618
 20
127.643408
 42
0.043143
  0
VERTEX
  8
0
 10
141.005577
 20
124.750000
 42
-0.311099
  0
VERTEX
  8
0
 10
139.743253
 20
122.925468
 42
-0.289174
  0
VERTEX
  8
0
 10
137.493628
 20
123.383017
 42
-0.068723
  0
VERTEX
  8
0
 10
133.895679
 20
127.925146
 42
-0.025032
  0
VERTEX
  8
0
 10
130.077004
 20
135.213114
 42
0.000000
  0
VERTEX
  8
0
 10
126.318562
 20
143.352584
 42
0.000000
  0
VERTEX
  8
0
 10
125.192363
 20
140.121968
 42
-0.089575
  0
VERTEX
  8
0
 10
123.363487
 20
136.883626
 42
-0.020603
  0
VERTEX
  8
0
 10
119.143313
 20
132.205486
 42
-0.021303
  0
VERTEX
  8
0
 10
113.913154
 20
127.303510
 42
-0.023327
  0
VERTEX
  8
0
 10
108.435545
 20
123.019087
 42
0.000000
  0
VERTEX
  8
0
 10
103.529965
 20
119.538175
 42
0.000000
  0
VERTEX
  8
0
 10
105.805617
 20
123.395119
 42
0.015495
  0
VERTEX
  8
0
 10
106.638535
 20
124.912335
 42
0.023825
  0
VERTEX
  8
0
 10
107.253986
 20
126.277897
 42
0.020493
  0
VERTEX
  8
0
 10
107.641336
 20
127.391267
 42
0.276551
  0
VERTEX
  8
0
 10
107.540635
 20
127.792698
 42
0.121501
  0
VERTEX
  8
0
 10
107.335370
 20
127.916742
 42
0.257038
  0
VERTEX
  8
0
 10
107.158812
 20
127.880690
 42
0.163666
  0
VERTEX
  8
0
 10
107.037798
 20
127.679602
 42
0.054374
  0
VERTEX
  8
0
 10
107.000000
 20
127.333056
 42
-0.150729
  0
VERTEX
  8
0
 10
106.817407
 20
126.741117
 42
-0.011279
  0
VERTEX
  8
0
 10
105.825000
 20
125.353857
 42
-0.014806
  0
VERTEX
  8
0
 10
104.532219
 20
123.732550
 42
-0.010685
  0
VERTEX
  8
0
 10
103.000000
 20
122.000000
 42
-0.015571
  0
VERTEX
  8
0
 10
101.461846
 20
120.434607
 42
-0.033871
  0
VERTEX
  8
0
 10
100.169094
 20
119.356039
 42
-0.062410
  0
VERTEX
  8
0
 10
99.293229
 20
118.874197
 42
-0.525351
  0
VERTEX
  8
0
 10
98.979893
 20
119.083610
 42
0.023958
  0
VERTEX
  8
0
 10
98.925222
 20
119.962817
 42
0.002613
  0
VERTEX
  8
0
 10
98.692068
 20
121.977125
 42
0.003195
  0
VERTEX
  8
0
 10
98.386460
 20
124.373360
 42
0.002574
  0
VERTEX
  8
0
 10
98.028297
 20
126.944900
 42
-0.023663
  0
VERTEX
  8
0
 10
97.696730
 20
130.380170
 42
-0.013476
  0
VERTEX
  8
0
 10
97.605118
 20
134.552649
 42
-0.012227
  0
VERTEX
  8
0
 10
97.743478
 20
139.249300
 42
-0.009799
  0
VERTEX
  8
0
 10
98.115010
 20
144.294961
 42
0.004583
  0
VERTEX
  8
0
 10
98.469672
 20
148.510557
 42
0.007184
  0
VERTEX
  8
0
 10
98.689253
 20
152.141592
 42
0.002644
  0
VERTEX
  8
0
 10
98.815835
 20
155.246692
 42
0.208143
  0
VERTEX
  8
0
 10
98.640066
 20
155.693267
 42
0.497745
  0
VERTEX
  8
0
 10
97.592721
 20
155.547503
 42
0.009664
  0
VERTEX
  8
0
 10
94.633982
 20
149.993738
 42
0.018019
  0
VERTEX
  8
0
 10
91.777800
 20
143.833366
 42
0.026729
  0
VERTEX
  8
0
 10
89.768043
 20
138.234923
 42
-0.013573
  0
VERTEX
  8
0
 10
88.857911
 20
135.473309
 42
-0.022371
  0
VERTEX
  8
0
 10
87.923089
 20
133.200613
 42
-0.018361
  0
VERTEX
  8
0
 10
87.056885
 20
131.502467
 42
-0.355808
  0
VERTEX
  8
0
 10
86.545231
 20
131.298869
 42
-0.170552
  0
VERTEX
  8
0
 10
85.985202
 20
131.718294
 42
-0.008689
  0
VERTEX
  8
0
 10
84.735090
 20
133.656901
 42
-0.013053
  0
VERTEX
  8
0
 10
83.324873
 20
136.067817
 42
-0.009022
  0
VERTEX
  8
0
 10
81.850821
 20
138.864180
 42
0.008702
  0
VERTEX
  8
0
 10
80.390698
 20
141.638422
 42
0.013430
  0
VERTEX
  8
0
 10
79.023660
 20
143.978341
 42
0.007727
  0
VERTEX
  8
0
 10
77.815272
 20
145.859238
 42
0.247410
  0
VERTEX
  8
0
 10
77.350821
 20
146.112493
 42
0.349157
  0
VERTEX
  8
0
 10
76.353264
 20
145.341933
 42
0.003862
  0
VERTEX
  8
0
 10
74.242152
 20
136.466188
 42
0.011604
  0
VERTEX
  8
0
 10
72.411476
 20
127.553456
 42
0.021394
  0
VERTEX
  8
0
 10
71.403991
 20
120.223652
 42
-0.004820
  0
VERTEX
  8
0
 10
71.116745
 20
117.456967
 42
-0.008572
  0
VERTEX
  8
0
 10
70.819291
 20
115.185913
 42
-0.003819
  0
VERTEX
  8
0
 10
70.531148
 20
113.342031
 42
-0.610886
  0
VERTEX
  8
0
 10
70.374917
 20
113.291750
 42
-0.151823
  0
VERTEX
  8
0
 10
70.212260
 20
113.601116
 42
-0.002006
  0
VERTEX
  8
0
 10
69.821763
 20
115.763036
 42
-0.005539
  0
VERTEX
  8
0
 10
69.404764
 20
118.289005
 42
-0.003583
  0
VERTEX
  8
0
 10
68.975530
 20
121.220949
 42
-0.032731
  0
VERTEX
  8
0
 10
68.514420
 20
127.547003
 42
-0.015403
  0
VERTEX
  8
0
 10
68.706938
 20
135.744253
 42
-0.014610
  0
VERTEX
  8
0
 10
69.366761
 20
143.627504
 42
-0.053838
  0
VERTEX
  8
0
 10
70.457855
 20
148.500000
 42
0.017785
  0
VERTEX
  8
0
 10
70.693633
 20
149.283525
 42
0.673583
  0
VERTEX
  8
0
 10
70.585848
 20
149.364108
 42
0.115752
  0
VERTEX
  8
0
 10
70.305467
 20
149.090020
 42
0.005897
  0
VERTEX
  8
0
 10
69.630441
 20
148.000000
 42
0.037495
  0
VERTEX
  8
0
 10
69.003807
 20
146.759407
 42
0.017143
  0
VERTEX
  8
0
 10
68.366841
 20
145.059375
 42
0.016866
  0
VERTEX
  8
0
 10
67.815352
 20
143.214524
 42
0.022293
  0
VERTEX
  8
0
 10
67.446018
 20
141.500000
 42
-0.010304
  0
VERTEX
  8
0
 10
67.140387
 20
139.895255
 42
-0.011923
  0
VERTEX
  8
0
 10
66.781654
 20
138.381250
 42
-0.011020
  0
VERTEX
  8
0
 10
66.420485
 20
137.118288
 42
-0.066330
  0
VERTEX
  8
0
 10
66.134647
 20
136.500000
 42
0.039794
  0
VERTEX
  8
0
 10
65.820601
 20
135.905453
 42
0.007446
  0
VERTEX
  8
0
 10
65.350041
 20
134.765625
 42
0.007929
  0
VERTEX
  8
0
 10
64.839829
 20
133.413299
 42
0.007177
  0
VERTEX
  8
0
 10
64.354853
 20
132.000000
 42
-0.025135
  0
VERTEX
  8
0
 10
63.696063
 20
130.283523
 42
-0.710354
  0
VERTEX
  8
0
 10
63.369167
 20
130.310130
 42
-0.058556
  0
VERTEX
  8
0
 10
63.190682
 20
131.601707
 42
-0.001931
  0
VERTEX
  8
0
 10
63.104853
 20
136.809017
 42
0.007319
  0
VERTEX
  8
0
 10
62.999206
 20
140.684124
 42
0.029970
  0
VERTEX
  8
0
 10
62.760221
 20
143.023199
 42
0.064807
  0
VERTEX
  8
0
 10
62.391523
 20
144.253464
 42
0.453718
  0
VERTEX
  8
0
 10
61.863698
 20
144.415761
 42
0.220877
  0
VERTEX
  8
0
 10
61.354052
 20
143.642013
 42
0.022923
  0
VERTEX
  8
0
 10
61.126705
 20
141.417275
 42
0.019936
  0
VERTEX
  8
0
 10
61.074368
 20
138.173410
 42
0.006815
  0
VERTEX
  8
0
 10
61.250153
 20
133.470847
 42
0.012718
  0
VERTEX
  8
0
 10
61.902764
 20
124.948634
 42
0.084640
  0
VERTEX
  8
0
 10
63.037934
 20
120.858748
 42
0.664323
  0
VERTEX
  8
0
 10
64.214065
 20
120.907677
 42
0.056151
  0
VERTEX
  8
0
 10
65.234101
 20
125.000000
 42
-0.629206
  0
VERTEX
  8
0
 10
65.487519
 20
125.082707
 42
-0.119496
  0
VERTEX
  8
0
 10
65.821903
 20
124.505623
 42
-0.024665
  0
VERTEX
  8
0
 10
66.282974
 20
122.604885
 42
-0.008407
  0
VERTEX
  8
0
 10
66.768675
 20
119.806376
 42
0.018282
  0
VERTEX
  8
0
 10
67.894236
 20
114.003673
 42
0.024415
  0
VERTEX
  8
0
 10
69.361324
 20
108.842971
 42
0.019768
  0
VERTEX
  8
0
 10
70.911897
 20
104.789120
 42
0.300031
  0
VERTEX
  8
0
 10
72.108580
 20
104.000000
 42
0.342508
  0
VERTEX
  8
0
 10
72.463354
 20
104.275325
 42
0.020446
  0
VERTEX
  8
0
 10
72.764638
 20
105.689063
 42
0.023793
  0
VERTEX
  8
0
 10
72.991352
 20
107.545696
 42
0.014563
  0
VERTEX
  8
0
 10
73.090188
 20
109.750000
 42
-0.001402
  0
VERTEX
  8
0
 10
73.161738
 20
113.619544
 42
-0.107099
  0
VERTEX
  8
0
 10
73.305137
 20
114.219334
 42
-0.682142
  0
VERTEX
  8
0
 10
73.520226
 20
114.203271
 42
-0.005743
  0
VERTEX
  8
0
 10
74.171686
 20
112.000000
 42
0.057218
  0
VERTEX
  8
0
 10
75.486907
 20
108.803227
 42
0.068576
  0
VERTEX
  8
0
 10
77.432720
 20
106.198300
 42
0.064284
  0
VERTEX
  8
0
 10
80.120992
 20
104.095042
 42
0.042702
  0
VERTEX
  8
0
 10
83.650672
 20
102.389308
 42
-0.015058
  0
VERTEX
  8
0
 10
86.679151
 20
101.126972
 42
-0.147836
  0
VERTEX
  8
0
 10
87.708898
 20
100.226393
 42
-0.306931
  0
VERTEX
  8
0
 10
87.673267
 20
99.262225
 42
-0.061459
  0
VERTEX
  8
0
 10
86.430477
 20
97.942301
 42
0.075218
  0
VERTEX
  8
0
 10
85.865771
 20
97.308637
 42
0.060291
  0
VERTEX
  8
0
 10
85.461798
 20
96.487765
 42
0.061469
  0
VERTEX
  8
0
 10
85.271519
 20
95.612688
 42
0.086995
  0
VERTEX
  8
0
 10
85.336858
 20
94.819857
 42
-0.061319
  0
VERTEX
  8
0
 10
85.446193
 20
94.004463
 42
-0.156797
  0
VERTEX
  8
0
 10
85.271998
 20
93.441841
 42
-0.168354
  0
VERTEX
  8
0
 10
84.814044
 20
93.110803
 42
-0.073212
  0
VERTEX
  8
0
 10
84.061368
 20
93.000000
 42
0.136431
  0
VERTEX
  8
0
 10
82.395942
 20
92.536949
 42
0.070329
  0
VERTEX
  8
0
 10
80.704557
 20
91.161333
 42
0.069217
  0
VERTEX
  8
0
 10
79.431211
 20
89.336938
 42
0.118332
  0
VERTEX
  8
0
 10
79.000000
 20
87.540417
 42
-0.096929
  0
VERTEX
  8
0
 10
78.823152
 20
86.636734
 42
-0.228193
  0
VERTEX
  8
0
 10
78.326297
 20
86.187070
 42
-0.103968
  0
VERTEX
  8
0
 10
77.332367
 20
86.107696
 42
-0.013989
  0
VERTEX
  8
0
 10
75.250000
 20
86.434094
 42
0.010157
  0
VERTEX
  8
0
 10
69.054063
 20
87.453973
 42
0.034852
  0
VERTEX
  8
0
 10
64.988803
 20
87.751888
 42
0.046944
  0
VERTEX
  8
0
 10
61.598350
 20
87.444748
 42
0.032437
  0
VERTEX
  8
0
 10
57.861688
 20
86.494543
 42
0.014292
  0
VERTEX
  8
0
 10
54.399240
 20
85.260197
 42
0.035709
  0
VERTEX
  8
0
 10
51.974104
 20
84.111314
 42
0.175073
  0
VERTEX
  8
0
 10
51.379879
 20
83.420473
 42
0.525233
  0
VERTEX
  8
0
 10
51.669728
 20
83.000000
 42
0.062700
  0
VERTEX
  8
0
 10
52.366481
 20
83.087718
 42
0.004265
  0
VERTEX
  8
0
 10
54.299428
 20
83.599862
 42
0.006054
  0
VERTEX
  8
0
 10
56.597929
 20
84.259914
 42
0.004502
  0
VERTEX
  8
0
 10
59.119728
 20
85.042082
 42
-0.016804
  0
VERTEX
  8
0
 10
62.155537
 20
85.902418
 42
-0.025785
  0
VERTEX
  8
0
 10
64.838318
 20
86.421130
 42
-0.029961
  0
VERTEX
  8
0
 10
67.190546
 20
86.608596
 42
-0.046548
  0
VERTEX
  8
0
 10
69.218903
 20
86.459438
 42
-0.009779
  0
VERTEX
  8
0
 10
71.604973
 20
86.010465
 42
-0.183854
  0
VERTEX
  8
0
 10
72.236287
 20
85.606530
 42
-0.288752
  0
VERTEX
  8
0
 10
72.283614
 20
84.982888
 42
-0.023397
  0
VERTEX
  8
0
 10
71.410342
 20
83.503509
 42
-0.087501
  0
VERTEX
  8
0
 10
69.409760
 20
81.375728
 42
-0.052654
  0
VERTEX
  8
0
 10
66.423438
 20
79.600093
 42
-0.050248
  0
VERTEX
  8
0
 10
62.940871
 20
78.404075
 42
-0.057663
  0
VERTEX
  8
0
 10
59.448784
 20
78.000000
 42
-0.050970
  0
VERTEX
  8
0
 10
57.622205
 20
78.186688
 42
-0.021532
  0
VERTEX
  8
0
 10
55.228769
 20
78.789584
 42
-0.020855
  0
VERTEX
  8
0
 10
52.679829
 20
79.666997
 42
-0.023876
  0
VERTEX
  8
0
 10
50.328209
 20
80.719899
 42
-0.005618
  0
VERTEX
  8
0
 10
47.152870
 20
82.372807
 42
-0.086781
  0
VERTEX
  8
0
 10
46.186980
 20
83.129136
 42
-0.417331
  0
VERTEX
  8
0
 10
46.219525
 20
83.695892
 42
-0.092364
  0
VERTEX
  8
0
 10
47.147441
 20
84.250246
 42
0.028685
  0
VERTEX
  8
0
 10
48.336216
 20
84.769283
 42
0.006131
  0
VERTEX
  8
0
 10
50.334105
 20
85.812673
 42
0.006390
  0
VERTEX
  8
0
 10
52.621834
 20
87.081328
 42
0.006047
  0
VERTEX
  8
0
 10
54.919145
 20
88.431073
 42
-0.035992
  0
VERTEX
  8
0
 10
62.377303
 20
92.232168
 42
-0.088191
  0
VERTEX
  8
0
 10
68.360430
 20
93.591882
 42
-0.134543
  0
VERTEX
  8
0
 10
72.874907
 20
92.582618
 42
-0.149083
  0
VERTEX
  8
0
 10
76.034487
 20
89.435561
 42
0.018790
  0
VERTEX
  8
0
 10
76.562854
 20
88.531653
 42
0.033384
  0
VERTEX
  8
0
 10
77.073059
 20
87.836708
 42
0.039923
  0
VERTEX
  8
0
 10
77.505152
 20
87.399783
 42
0.392632
  0
VERTEX
  8
0
 10
77.741910
 20
87.408576
 42
0.262783
  0
VERTEX
  8
0
 10
77.826455
 20
87.712346
 42
0.019938
  0
VERTEX
  8
0
 10
77.579906
 20
88.562178
 42
0.023360
  0
VERTEX
  8
0
 10
77.176468
 20
89.605598
 42
0.015400
  0
VERTEX
  8
0
 10
76.620895
 20
90.766216
 42
0.143638
  0
VERTEX
  8
0
 10
73.239068
 20
94.306055
 42
0.140773
  0
VERTEX
  8
0
 10
68.453182
 20
95.493446
 42
0.093352
  0
VERTEX
  8
0
 10
62.150636
 20
94.066327
 42
0.038013
  0
VERTEX
  8
0
 10
54.340737
 20
89.952287
 42
-0.010262
  0
VERTEX
  8
0
 10
51.791941
 20
88.423413
 42
-0.010823
  0
VERTEX
  8
0
 10
49.226952
 20
87.028360
 42
-0.010510
  0
VERTEX
  8
0
 10
46.967777
 20
85.921775
 42
-0.047171
  0
VERTEX
  8
0
 10
45.581288
 20
85.431046
 42
0.020168
  0
VERTEX
  8
0
 10
44.553260
 20
85.128480
 42
0.024159
  0
VERTEX
  8
0
 10
43.614463
 20
84.759080
 42
0.023925
  0
VERTEX
  8
0
 10
42.866561
 20
84.378207
 42
0.125238
  0
VERTEX
  8
0
 10
42.537035
 20
84.059925
 42
0.397561
  0
VERTEX
  8
0
 10
42.621834
 20
83.648430
 42
0.011944
  0
VERTEX
  8
0
 10
44.214487
 20
82.589252
 42
0.017627
  0
VERTEX
  8
0
 10
46.303941
 20
81.371343
 42
0.010478
  0
VERTEX
  8
0
 10
48.871092
 20
80.062362
 42
0.035605
  0
VERTEX
  8
0
 10
53.824947
 20
78.087178
 42
0.056617
  0
VERTEX
  8
0
 10
58.297135
 20
77.203383
 42
0.056887
  0
VERTEX
  8
0
 10
62.838309
 20
77.347198
 42
0.036342
  0
VERTEX
  8
0
 10
68.000000
 20
78.490411
 42
0.000000
  0
VERTEX
  8
0
 10
70.500000
 20
79.238114
 42
0.000000
  0
VERTEX
  8
0
 10
67.750000
 20
76.578588
 42
0.038663
  0
VERTEX
  8
0
 10
66.571757
 20
75.248226
 42
0.048139
  0
VERTEX
  8
0
 10
65.706958
 20
73.841938
 42
0.052108
  0
VERTEX
  8
0
 10
65.178618
 20
72.399093
 42
0.061802
  0
VERTEX
  8
0
 10
65.000000
 20
70.959531
 42
0.031998
  0
VERTEX
  8
0
 10
65.107043
 20
69.288576
 42
0.172108
  0
VERTEX
  8
0
 10
65.512456
 20
68.488135
 42
0.163522
  0
VERTEX
  8
0
 10
66.344706
 20
68.099453
 42
0.028195
  0
VERTEX
  8
0
 10
68.106989
 20
68.000000
 42
-0.018306
  0
VERTEX
  8
0
 10
69.768541
 20
67.939146
 42
-0.143292
  0
VERTEX
  8
0
 10
70.485437
 20
67.671051
 42
-0.272562
  0
VERTEX
  8
0
 10
70.700811
 20
67.156041
 42
-0.069572
  0
VERTEX
  8
0
 10
70.445148
 20
66.250000
 42
0.053746
  0
VERTEX
  8
0
 10
69.554430
 20
63.436041
 42
0.045893
  0
VERTEX
  8
0
 10
69.220630
 20
60.341340
 42
0.047999
  0
VERTEX
  8
0
 10
69.438143
 20
57.634997
 42
0.177311
  0
VERTEX
  8
0
 10
70.286740
 20
56.176990
 42
0.138516
  0
VERTEX
  8
0
 10
71.885195
 20
55.468060
 42
0.172323
  0
VERTEX
  8
0
 10
73.468785
 20
55.787637
 42
0.100082
  0
VERTEX
  8
0
 10
75.127970
 20
57.302397
 42
0.029843
  0
VERTEX
  8
0
 10
76.992545
 20
60.200526
 42
-0.011606
  0
VERTEX
  8
0
 10
78.279177
 20
62.370286
 42
-0.088959
  0
VERTEX
  8
0
 10
79.070919
 20
63.244550
 42
-0.261796
  0
VERTEX
  8
0
 10
79.729098
 20
63.340889
 42
-0.141974
  0
VERTEX
  8
0
 10
80.400655
 20
62.831617
 42
0.036582
  0
VERTEX
  8
0
 10
80.953102
 20
62.192830
 42
0.020071
  0
VERTEX
  8
0
 10
81.714158
 20
61.491636
 42
0.019911
  0
VERTEX
  8
0
 10
82.548025
 20
60.838394
 42
0.029909
  0
VERTEX
  8
0
 10
83.328395
 20
60.343784
 42
-0.034121
  0
VERTEX
  8
0
 10
84.329795
 20
59.697204
 42
-0.309378
  0
VERTEX
  8
0
 10
84.489390
 20
59.230010
 42
-0.170454
  0
VERTEX
  8
0
 10
84.124466
 20
58.706286
 42
-0.011133
  0
VERTEX
  8
0
 10
82.578395
 20
57.643323
 42
0.084868
  0
VERTEX
  8
0
 10
80.784018
 20
55.973802
 42
0.138364
  0
VERTEX
  8
0
 10
80.023474
 20
54.053592
 42
0.223939
  0
VERTEX
  8
0
 10
80.530142
 20
52.614280
 42
0.200554
  0
VERTEX
  8
0
 10
82.000000
 20
52.000000
 42
-0.054638
  0
VERTEX
  8
0
 10
82.765097
 20
51.916143
 42
-0.074297
  0
VERTEX
  8
0
 10
83.412500
 20
51.667526
 42
-0.093872
  0
VERTEX
  8
0
 10
83.846892
 20
51.300025
 42
-0.172024
  0
VERTEX
  8
0
 10
84.000000
 20
50.868174
 42
-0.183644
  0
VERTEX
  8
0
 10
83.726877
 20
50.149633
 42
-0.004116
  0
VERTEX
  8
0
 10
81.209375
 20
47.363062
 42
-0.008740
  0
VERTEX
  8
0
 10
78.140794
 20
44.137242
 42
-0.005734
  0
VERTEX
  8
0
 10
74.500000
 20
40.525251
 42
0.004096
  0
VERTEX
  8
0
 10
68.364815
 20
34.478350
 42
0.047427
  0
VERTEX
  8
0
 10
66.218785
 20
31.876413
 42
0.102215
  0
VERTEX
  8
0
 10
65.296510
 20
29.640145
 42
0.046895
  0
VERTEX
  8
0
 10
65.000000
 20
26.485661
 42
0.027806
  0
VERTEX
  8
0
 10
65.160312
 20
23.605158
 42
0.086356
  0
VERTEX
  8
0
 10
65.702489
 20
21.744077
 42
0.072244
  0
VERTEX
  8
0
 10
66.896758
 20
19.998423
 42
0.015631
  0
VERTEX
  8
0
 10
69.463029
 20
17.380832
 42
0.045193
  0
VERTEX
  8
0
 10
73.232777
 20
14.371375
 42
0.075045
  0
VERTEX
  8
0
 10
76.916086
 20
12.666139
 42
0.077850
  0
VERTEX
  8
0
 10
80.840374
 20
12.159525
 42
0.052424
  0
VERTEX
  8
0
 10
85.327256
 20
12.754125
 42
0.000000
  0
VERTEX
  8
0
 10
89.500000
 20
13.759818
 42
0.000000
  0
VERTEX
  8
0
 10
82.900038
 20
13.879909
 42
-0.015827
  0
VERTEX
  8
0
 10
79.224917
 20
14.063249
 42
-0.048814
  0
VERTEX
  8
0
 10
76.779579
 20
14.505819
 42
-0.057905
  0
VERTEX
  8
0
 10
74.700412
 20
15.366012
 42
-0.029747
  0
VERTEX
  8
0
 10
72.319655
 20
16.883403
 42
-0.052117
  0
VERTEX
  8
0
 10
69.391054
 20
19.509815
 42
-0.065865
  0
VERTEX
  8
0
 10
67.326624
 20
22.501219
 42
-0.074891
  0
VERTEX
  8
0
 10
66.296727
 20
25.577875
 42
-0.105241
  0
VERTEX
  8
0
 10
66.401169
 20
28.462249
 42
-0.085822
  0
VERTEX
  8
0
 10
67.480675
 20
30.898318
 42
-0.024627
  0
VERTEX
  8
0
 10
69.946069
 20
34.226245
 42
-0.025130
  0
VERTEX
  8
0
 10
72.758701
 20
37.324623
 42
-0.073144
  0
VERTEX
  8
0
 10
75.075902
 20
39.040622
 42
-0.090780
  0
VERTEX
  8
0
 10
76.109508
 20
39.372094
 42
-0.081531
  0
VERTEX
  8
0
 10
77.234956
 20
39.334454
 42
-0.059831
  0
VERTEX
  8
0
 10
78.567768
 20
38.899197
 42
-0.024474
  0
VERTEX
  8
0
 10
80.256152
 20
38.011373
 42
0.021898
  0
VERTEX
  8
0
 10
81.953327
 20
37.107740
 42
0.008842
  0
VERTEX
  8
0
 10
84.341275
 20
36.018975
 42
0.008730
  0
VERTEX
  8
0
 10
86.956594
 20
34.935850
 42
0.010955
  0
VERTEX
  8
0
 10
89.418488
 20
34.028044
 42
-0.011838
  0
VERTEX
  8
0
 10
91.872250
 20
33.118311
 42
-0.009565
  0
VERTEX
  8
0
 10
94.462890
 20
32.029583
 42
-0.009692
  0
VERTEX
  8
0
 10
96.815722
 20
30.932366
 42
-0.024463
  0
VERTEX
  8
0
 10
98.469128
 20
30.019080
 42
0.036361
  0
VERTEX
  8
0
 10
99.951215
 20
29.245822
 42
0.025977
  0
VERTEX
  8
0
 10
101.705214
 20
28.593105
 42
0.026378
  0
VERTEX
  8
0
 10
103.451592
 20
28.144264
 42
0.049747
  0
VERTEX
  8
0
 10
104.897971
 20
28.000000
 42
0.000000
  0
VERTEX
  8
0
 10
108.059875
 20
28.000000
 42
0.000000
  0
VERTEX
  8
0
 10
105.843399
 20
25.002056
 42
-0.094047
  0
VERTEX
  8
0
 10
103.243171
 20
22.596084
 42
-0.035966
  0
VERTEX
  8
0
 10
98.868092
 20
20.278348
 42
-0.036094
  0
VERTEX
  8
0
 10
94.050240
 20
18.557210
 42
-0.067842
  0
VERTEX
  8
0
 10
89.962487
 20
18.000000
 42
0.032036
  0
VERTEX
  8
0
 10
88.827632
 20
17.927213
 42
0.049401
  0
VERTEX
  8
0
 10
87.870231
 20
17.706250
 42
0.063570
  0
VERTEX
  8
0
 10
87.207705
 20
17.384157
 42
0.253030
  0
VERTEX
  8
0
 10
87.000000
 20
17.000000
 42
0.386752
  0
VERTEX
  8
0
 10
87.860104
 20
16.054367
 42
0.058450
  0
VERTEX
  8
0
 10
90.651376
 20
16.116087
 42
0.045786
  0
VERTEX
  8
0
 10
94.339898
 20
16.981226
 42
0.036799
  0
VERTEX
  8
0
 10
98.102290
 20
18.551834
 42
0.000000
  0
VERTEX
  8
0
 10
103.138092
 20
21.103668
 42
0.000000
  0
VERTEX
  8
0
 10
102.528906
 20
16.801834
 42
0.069577
  0
VERTEX
  8
0
 10
102.522287
 20
13.010591
 42
0.068312
  0
VERTEX
  8
0
 10
103.553049
 20
9.337598
 42
0.072276
  0
VERTEX
  8
0
 10
105.456758
 20
6.262380
 42
0.097400
  0
VERTEX
  8
0
 10
108.000000
 20
4.214164
 42
0.110619
  0
VERTEX
  8
0
 10
111.501154
 20
3.269767
 42
0.030880
  0
VERTEX
  8
0
 10
117.210384
 20
3.376053
 42
0.031764
  0
VERTEX
  8
0
 10
123.275132
 20
4.254612
 42
0.051360
  0
VERTEX
  8
0
 10
128.236167
 20
5.843762
 42
0.017827
  0
VERTEX
  8
0
 10
130.485800
 20
6.925684
 42
0.007769
  0
VERTEX
  8
0
 10
133.395850
 20
8.513433
 42
0.007677
  0
VERTEX
  8
0
 10
136.438469
 20
10.297617
 42
0.010149
  0
VERTEX
  8
0
 10
139.150257
 20
12.020555
 42
-0.011203
  0
VERTEX
  8
0
 10
143.081721
 20
14.506801
 42
-0.065873
  0
VERTEX
  8
0
 10
145.315527
 20
15.477524
 42
-0.076370
  0
VERTEX
  8
0
 10
147.582175
 20
15.764505
 42
-0.017879
  0
VERTEX
  8
0
 10
151.414089
 20
15.525629
 42
0.019504
  0
VERTEX
  8
0
 10
156.962412
 20
15.197841
 42
0.199222
  0
VERTEX
  8
0
 10
159.062650
 20
16.020400
 42
0.293748
  0
VERTEX
  8
0
 10
159.496360
 20
17.849715
 42
0.038573
  0
VERTEX
  8
0
 10
157.805130
 20
21.680589
 42
-0.050951
  0
VERTEX
  8
0
 10
155.065794
 20
28.325184
 42
-0.038456
  0
VERTEX
  8
0
 10
153.400662
 20
36.048566
 42
-0.039440
  0
VERTEX
  8
0
 10
152.987674
 20
43.333179
 42
-0.101678
  0
VERTEX
  8
0
 10
154.156954
 20
48.445131
 42
-0.026146
  0
VERTEX
  8
0
 10
154.803594
 20
49.687795
 42
-0.132940
  0
VERTEX
  8
0
 10
155.356118
 20
50.228272
 42
-0.219393
  0
VERTEX
  8
0
 10
155.947105
 20
50.274525
 42
-0.084925
  0
VERTEX
  8
0
 10
156.675712
 20
49.854172
 42
0.080225
  0
VERTEX
  8
0
 10
157.434432
 20
49.406954
 42
0.139599
  0
VERTEX
  8
0
 10
158.156463
 20
49.338078
 42
0.105001
  0
VERTEX
  8
0
 10
158.949291
 20
49.665400
 42
0.033710
  0
VERTEX
  8
0
 10
159.954209
 20
50.458560
 42
-0.034105
  0
VERTEX
  8
0
 10
161.152757
 20
51.403014
 42
-0.330093
  0
VERTEX
  8
0
 10
161.761749
 20
51.379577
 42
-0.151328
  0
VERTEX
  8
0
 10
162.233797
 20
50.681061
 42
-0.007720
  0
VERTEX
  8
0
 10
162.994853
 20
48.019116
 42
-0.027281
  0
VERTEX
  8
0
 10
163.834239
 20
44.051485
 42
-0.098295
  0
VERTEX
  8
0
 10
163.726140
 20
41.480685
 42
-0.172548
  0
VERTEX
  8
0
 10
162.719920
 20
39.943911
 42
-0.134317
  0
VERTEX
  8
0
 10
160.853954
 20
39.193609
 42
0.091436
  0
VERTEX
  8
0
 10
158.585290
 20
38.497683
 42
0.079870
  0
VERTEX
  8
0
 10
156.590977
 20
37.014659
 42
0.092045
  0
VERTEX
  8
0
 10
155.379263
 20
35.198695
 42
0.195237
  0
VERTEX
  8
0
 10
155.347334
 20
33.537245
 42
0.186705
  0
VERTEX
  8
0
 10
156.286795
 20
32.499162
 42
0.104187
  0
VERTEX
  8
0
 10
157.958121
 20
32.057340
 42
0.079708
  0
VERTEX
  8
0
 10
160.089775
 20
32.289027
 42
0.057305
  0
VERTEX
  8
0
 10
162.315741
 20
33.182830
 42
-0.049930
  0
VERTEX
  8
0
 10
163.362911
 20
33.621296
 42
-0.027224
  0
VERTEX
  8
0
 10
164.716866
 20
33.955969
 42
-0.026857
  0
VERTEX
  8
0
 10
166.143788
 20
34.148605
 42
-0.038232
  0
VERTEX
  8
0
 10
167.422525
 20
34.153799
 42
0.056828
  0
VERTEX
  8
0
 10
168.844466
 20
34.212370
 42
0.022814
  0
VERTEX
  8
0
 10
170.754553
 20
34.600201
 42
0.022222
  0
VERTEX
  8
0
 10
172.794553
 20
35.209800
 42
0.026154
  0
VERTEX
  8
0
 10
174.661627
 20
35.970970
 42
-0.004240
  0
VERTEX
  8
0
 10
176.352603
 20
36.748384
 42
-0.006139
  0
VERTEX
  8
0
 10
177.860285
 20
37.403972
 42
-0.003348
  0
VERTEX
  8
0
 10
179.141169
 20
37.932274
 42
-0.096421
  0
VERTEX
  8
0
 10
179.489102
 20
38.000000
 42
-0.384669
  0
VERTEX
  8
0
 10
179.693971
 20
37.815013
 42
-0.005875
  0
VERTEX
  8
0
 10
179.849924
 20
36.090054
 42
-0.012236
  0
VERTEX
  8
0
 10
179.963260
 20
33.991089
 42
-0.007368
  0
VERTEX
  8
0
 10
180.000000
 20
31.498057
 42
0.000000
  0
VERTEX
  8
0
 10
180.000000
 20
24.996115
 42
0.000000
  0
VERTEX
  8
0
 10
176.264809
 20
26.998057
 42
0.082283
  0
VERTEX
  8
0
 10
171.263620
 20
28.698861
 42
0.090920
  0
VERTEX
  8
0
 10
166.159195
 20
28.608368
 42
0.119735
  0
VERTEX
  8
0
 10
162.409523
 20
26.854980
 42
0.227576
  0
VERTEX
  8
0
 10
161.000000
 20
23.918545
 42
0.225727
  0
VERTEX
  8
0
 10
161.835232
 20
22.162720
 42
0.107699
  0
VERTEX
  8
0
 10
164.119078
 20
21.007773
 42
0.043410
  0
VERTEX
  8
0
 10
168.593533
 20
20.254146
 42
0.007096
  0
VERTEX
  8
0
 10
177.372044
 20
19.674755
 42
0.009925
  0
VERTEX
  8
0
 10
185.556013
 20
19.413890
 42
0.055720
  0
VERTEX
  8
0
 10
189.906848
 20
19.847400
 42
0.137506
  0
VERTEX
  8
0
 10
192.140723
 20
21.021573
 42
0.206243
  0
VERTEX
  8
0
 10
193.000000
 20
23.016132
 42
0.208573
  0
VERTEX
  8
0
 10
192.332745
 20
24.546118
 42
0.119828
  0
VERTEX
  8
0
 10
190.545864
 20
25.545101
 42
0.087797
  0
VERTEX
  8
0
 10
187.966840
 20
25.793747
 42
0.064188
  0
VERTEX
  8
0
 10
185.145502
 20
25.200567
 42
0.000000
  0
VERTEX
  8
0
 10
182.255703
 20
24.193178
 42
0.000000
  0
VERTEX
  8
0
 10
181.636544
 20
29.346589
 42
-0.007153
  0
VERTEX
  8
0
 10
181.401006
 20
31.575837
 42
-0.005508
  0
VERTEX
  8
0
 10
181.205641
 20
34.014310
 42
-0.005571
  0
VERTEX
  8
0
 10
181.073522
 20
36.297984
 42
-0.013214
  0
VERTEX
  8
0
 10
181.039101
 20
38.000000
 42
-0.007451
  0
VERTEX
  8
0
 10
181.078999
 20
39.890047
 42
-0.125815
  0
VERTEX
  8
0
 10
181.253870
 20
40.484009
 42
-0.517705
  0
VERTEX
  8
0
 10
181.549900
 20
40.507366
 42
-0.041698
  0
VERTEX
  8
0
 10
182.080111
 20
39.749978
 42
0.095982
  0
VERTEX
  8
0
 10
183.455414
 20
38.178078
 42
0.044254
  0
VERTEX
  8
0
 10
185.750051
 20
36.700229
 42
0.043361
  0
VERTEX
  8
0
 10
188.148281
 20
35.694574
 42
0.164768
  0
VERTEX
  8
0
 10
189.750000
 20
35.720539
 42
0.228084
  0
VERTEX
  8
0
 10
190.686751
 20
36.668425
 42
0.095391
  0
VERTEX
  8
0
 10
190.945180
 20
38.491859
 42
0.074622
  0
VERTEX
  8
0
 10
190.495176
 20
40.730357
 42
0.066011
  0
VERTEX
  8
0
 10
189.397767
 20
42.842496
 42
-0.018676
  0
VERTEX
  8
0
 10
188.496780
 20
44.236887
 42
-0.146458
  0
VERTEX
  8
0
 10
188.311303
 20
44.977260
 42
-0.190165
  0
VERTEX
  8
0
 10
188.589736
 20
45.598705
 42
-0.035604
  0
VERTEX
  8
0
 10
189.560246
 20
46.420395
 42
0.138872
  0
VERTEX
  8
0
 10
190.561990
 20
47.701987
 42
0.153299
  0
VERTEX
  8
0
 10
190.692521
 20
49.266550
 42
0.169931
  0
VERTEX
  8
0
 10
189.914975
 20
50.513287
 42
0.170759
  0
VERTEX
  8
0
 10
188.531385
 20
51.000000
 42
-0.098125
  0
VERTEX
  8
0
 10
187.509293
 20
51.202536
 42
-0.259250
  0
VERTEX
  8
0
 10
187.060476
 20
51.766469
 42
-0.184691
  0
VERTEX
  8
0
 10
187.234602
 20
52.623786
 42
-0.054993
  0
VERTEX
  8
0
 10
188.084665
 20
53.684665
 42
0.097756
  0
VERTEX
  8
0
 10
188.476848
 20
54.269762
 42
0.045419
  0
VERTEX
  8
0
 10
188.752402
 20
55.145527
 42
0.042640
  0
VERTEX
  8
0
 10
188.882461
 20
56.149460
 42
0.046072
  0
VERTEX
  8
0
 10
188.834665
 20
57.134665
 42
0.069593
  0
VERTEX
  8
0
 10
188.487260
 20
58.345010
 42
0.141038
  0
VERTEX
  8
0
 10
187.855299
 20
59.097277
 42
0.101512
  0
VERTEX
  8
0
 10
186.764752
 20
59.544960
 42
0.025982
  0
VERTEX
  8
0
 10
184.864685
 20
59.803528
 42
0.033662
  0
VERTEX
  8
0
 10
182.907166
 20
59.834855
 42
0.085675
  0
VERTEX
  8
0
 10
181.526301
 20
59.522831
 42
0.089274
  0
VERTEX
  8
0
 10
180.363648
 20
58.775573
 42
0.038761
  0
VERTEX
  8
0
 10
179.114685
 20
57.418669
 42
0.029942
  0
VERTEX
  8
0
 10
178.305345
 20
56.252379
 42
0.028011
  0
VERTEX
  8
0
 10
177.621189
 20
54.972111
 42
0.029146
  0
VERTEX
  8
0
 10
177.144696
 20
53.766871
 42
0.079722
  0
VERTEX
  8
0
 10
177.000000
 20
52.865141
 42
-0.077714
  0
VERTEX
  8
0
 10
176.817233
 20
51.696353
 42
-0.230214
  0
VERTEX
  8
0
 10
176.271271
 20
51.125115
 42
-0.150887
  0
VERTEX
  8
0
 10
175.284897
 20
51.069858
 42
-0.030724
  0
VERTEX
  8
0
 10
173.596159
 20
51.601474
 42
-0.052234
  0
VERTEX
  8
0
 10
172.784452
 20
52.014591
 42
-0.246204
  0
VERTEX
  8
0
 10
172.536176
 20
52.455507
 42
-0.145133
  0
VERTEX
  8
0
 10
172.700796
 20
53.078789
 42
-0.016136
  0
VERTEX
  8
0
 10
173.514371
 20
54.323980
 42
0.097064
  0
VERTEX
  8
0
 10
174.813965
 20
57.253859
 42
0.130912
  0
VERTEX
  8
0
 10
174.708966
 20
60.139147
 42
0.159745
  0
VERTEX
  8
0
 10
173.252794
 20
62.207026
 42
0.161496
  0
VERTEX
  8
0
 10
170.861736
 20
63.000000
 42
-0.098686
  0
VERTEX
  8
0
 10
170.074226
 20
63.156961
 42
-0.161714
  0
VERTEX
  8
0
 10
169.565143
 20
63.598192
 42
-0.114926
  0
VERTEX
  8
0
 10
169.315594
 20
64.384873
 42
-0.037607
  0
VERTEX
  8
0
 10
169.311736
 20
65.609264
 42
0.056821
  0
VERTEX
  8
0
 10
169.265217
 20
66.729741
 42
0.058551
  0
VERTEX
  8
0
 10
168.966980
 20
67.799097
 42
0.062703
  0
VERTEX
  8
0
 10
168.457022
 20
68.701873
 42
0.089102
  0
VERTEX
  8
0
 10
167.786375
 20
69.331204
 42
0.092234
  0
VERTEX
  8
0
 10
166.782098
 20
69.746300
 42
0.138975
  0
VERTEX
  8
0
 10
165.843058
 20
69.682171
 42
0.085165
  0
VERTEX
  8
0
 10
164.759133
 20
69.069755
 42
0.019947
  0
VERTEX
  8
0
 10
163.191081
 20
67.683067
 42
-0.014410
  0
VERTEX
  8
0
 10
161.549504
 20
66.198655
 42
-0.100087
  0
VERTEX
  8
0
 10
160.607125
 20
65.675435
 42
-0.205737
  0
VERTEX
  8
0
 10
159.863778
 20
65.748881
 42
-0.093717
  0
VERTEX
  8
0
 10
159.096637
 20
66.383559
 42
-0.110919
  0
VERTEX
  8
0
 10
158.566454
 20
67.422686
 42
-0.060111
  0
VERTEX
  8
0
 10
158.378431
 20
68.852192
 42
-0.036987
  0
VERTEX
  8
0
 10
158.508893
 20
70.912495
 42
-0.010552
  0
VERTEX
  8
0
 10
159.014274
 20
74.078716
 42
0.031844
  0
VERTEX
  8
0
 10
159.600078
 20
79.118400
 42
0.033754
  0
VERTEX
  8
0
 10
159.523307
 20
84.093513
 42
0.036417
  0
VERTEX
  8
0
 10
158.824651
 20
88.544002
 42
0.066764
  0
VERTEX
  8
0
 10
157.527358
 20
91.971368
 42
-0.098803
  0
VERTEX
  8
0
 10
156.991258
 20
93.715502
 42
-0.095645
  0
VERTEX
  8
0
 10
157.156127
 20
95.553300
 42
-0.041314
  0
VERTEX
  8
0
 10
158.185865
 20
98.266281
 42
-0.005066
  0
VERTEX
  8
0
 10
160.980363
 20
103.971368
 42
0.006527
  0
VERTEX
  8
0
 10
162.950186
 20
108.022775
 42
0.005676
  0
VERTEX
  8
0
 10
164.909791
 20
112.316589
 42
0.005718
  0
VERTEX
  8
0
 10
166.594614
 20
116.242787
 42
0.016711
  0
VERTEX
  8
0
 10
167.634020
 20
119.000000
 42
0.000000
  0
VERTEX
  8
0
 10
169.500000
 20
124.500000
 42
0.000000
  0
VERTEX
  8
0
 10
169.804791
 20
119.750000
 42
0.016196
  0
VERTEX
  8
0
 10
169.980981
 20
117.929281
 42
0.026023
  0
VERTEX
  8
0
 10
170.261531
 20
116.395313
 42
0.023823
  0
VERTEX
  8
0
 10
170.593947
 20
115.241750
 42
0.321044
  0
VERTEX
  8
0
 10
170.931647
 20
115.000000
 42
0.321715
  0
VERTEX
  8
0
 10
172.737702
 20
116.296232
 42
0.005451
  0
VERTEX
  8
0
 10
176.739372
 20
128.582752
 42
0.012066
  0
VERTEX
  8
0
 10
180.142046
 20
140.423540
 42
0.064012
  0
VERTEX
  8
0
 10
181.000000
 20
147.097601
 42
-0.014056
  0
VERTEX
  8
0
 10
181.048518
 20
148.823196
 42
-0.204791
  0
VERTEX
  8
0
 10
181.313508
 20
149.357756
 42
-0.297396
  0
VERTEX
  8
0
 10
181.816028
 20
149.422664
 42
-0.027148
  0
VERTEX
  8
0
 10
182.975041
 20
148.783514
 42
0.128369
  0
VERTEX
  8
0
 10
184.729570
 20
148.235184
 42
0.272066
  0
VERTEX
  8
0
 10
185.946319
 20
148.874385
 42
0.103026
  0
VERTEX
  8
0
 10
186.739243
 20
151.043335
 42
0.015177
  0
VERTEX
  8
0
 10
187.277388
 20
155.710122
 42
0.019562
  0
VERTEX
  8
0
 10
187.454154
 20
159.606447
 42
0.070563
  0
VERTEX
  8
0
 10
187.121248
 20
162.063421
 42
0.056453
  0
VERTEX
  8
0
 10
186.084173
 20
164.598249
 42
0.009526
  0
VERTEX
  8
0
 10
183.477402
 20
169.149061
 42
-0.012910
  0
VERTEX
  8
0
 10
181.769563
 20
172.177889
 42
-0.012786
  0
VERTEX
  8
0
 10
180.214556
 20
175.300475
 42
-0.012739
  0
VERTEX
  8
0
 10
178.994915
 20
178.099051
 42
-0.047386
  0
VERTEX
  8
0
 10
178.444244
 20
179.938939
 42
0.000000
  0
VERTEX
  8
0
 10
177.736797
 20
183.500000
 42
0.000000
  0
VERTEX
  8
0
 10
176.463228
 20
180.500000
 42
0.000000
  0
VERTEX
  8
0
 10
175.189659
 20
177.500000
 42
0.000000
  0
VERTEX
  8
0
 10
173.492921
 20
181.733328
 42
0.087197
  0
VERTEX
  8
0
 10
170.746296
 20
186.161808
 42
0.013136
  0
VERTEX
  8
0
 10
163.558262
 20
193.794924
 42
0.014636
  0
VERTEX
  8
0
 10
155.910528
 20
201.061968
 42
0.060682
  0
VERTEX
  8
0
 10
150.696367
 20
204.701547
 42
0.049966
  0
VERTEX
  8
0
 10
148.970704
 20
205.407523
 42
0.025882
  0
VERTEX
  8
0
 10
146.703915
 20
205.954387
 42
0.023710
  0
VERTEX
  8
0
 10
144.105674
 20
206.314078
 42
0.020486
  0
VERTEX
  8
0
 10
141.354689
 20
206.449493
 42
0.000000
  0
VERTEX
  8
0
 10
135.209377
 20
206.500000
 42
0.000000
  0
VERTEX
  8
0
 10
135.717965
 20
209.641754
 42
0.069172
  0
VERTEX
  8
0
 10
135.777662
 20
212.310686
 42
0.029560
  0
VERTEX
  8
0
 10
135.155294
 20
215.833515
 42
0.025562
  0
VERTEX
  8
0
 10
134.196097
 20
219.106555
 42
0.171923
  0
VERTEX
  8
0
 10
133.152595
 20
220.405691
 42
0.254756
  0
VERTEX
  8
0
 10
132.678085
 20
220.431661
 42
0.014842
  0
VERTEX
  8
0
 10
131.342472
 20
219.746641
 42
0.019552
  0
VERTEX
  8
0
 10
129.741447
 20
218.781087
 42
0.012882
  0
SEQEND
  0
POLYLINE
  8
0
 66
1
 70
1
  0
VERTEX
  8
0
 10
133.393011
 20
216.418213
 42
-0.062822
  0
VERTEX
  8
0
 10
133.997967
 20
213.956059
 42
-0.067355
  0
VERTEX
  8
0
 10
133.950781
 20
211.480168
 42
-0.080649
  0
VERTEX
  8
0
 10
133.311414
 20
209.514760
 42
-0.199589
  0
VERTEX
  8
0
 10
132.176068
 20
208.555882
 42
0.071037
  0
VERTEX
  8
0
 10
131.281334
 20
208.124595
 42
0.020049
  0
VERTEX
  8
0
 10
130.028383
 20
207.208949
 42
0.019778
  0
VERTEX
  8
0
 10
128.680222
 20
206.048434
 42
0.019698
  0
VERTEX
  8
0
 10
127.426068
 20
204.783493
 42
0.000000
  0
VERTEX
  8
0
 10
124.500000
 20
201.589999
 42
0.000000
  0
VERTEX
  8
0
 10
128.284796
 20
204.794999
 42
-0.010535
  0
VERTEX
  8
0
 10
129.798035
 20
206.022631
 42
-0.014418
  0
VERTEX
  8
0
 10
131.213836
 20
207.058531
 42
-0.011138
  0
VERTEX
  8
0
 10
132.422403
 20
207.851307
 42
-0.140483
  0
VERTEX
  8
0
 10
132.941177
 20
208.000000
 42
-0.437161
  0
VERTEX
  8
0
 10
133.571093
 20
207.319129
 42
-0.100551
  0
VERTEX
  8
0
 10
133.087376
 20
205.625064
 42
-0.058704
  0
VERTEX
  8
0
 10
131.601505
 20
203.433652
 42
-0.055448
  0
VERTEX
  8
0
 10
129.620933
 20
201.599978
 42
-0.005304
  0
VERTEX
  8
0
 10
125.589128
 20
198.687942
 42
-0.190553
  0
VERTEX
  8
0
 10
124.492336
 20
198.421496
 42
-0.388692
  0
VERTEX
  8
0
 10
123.962322
 20
199.062266
 42
-0.015471
  0
VERTEX
  8
0
 10
124.230222
 20
202.350169
 42
0.003142
  0
VERTEX
  8
0
 10
124.656951
 20
206.362455
 42
0.340332
  0
VERTEX
  8
0
 10
124.386646
 20
206.797067
 42
0.438327
  0
VERTEX
  8
0
 10
123.997147
 20
206.600250
 42
0.003417
  0
VERTEX
  8
0
 10
122.953739
 20
202.828200
 42
-0.043376
  0
VERTEX
  8
0
 10
121.992642
 20
200.193054
 42
-0.454159
  0
VERTEX
  8
0
 10
121.016781
 20
199.910586
 42
-0.226476
  0
VERTEX
  8
0
 10
120.215318
 20
201.204704
 42
-0.026081
  0
VERTEX
  8
0
 10
120.015313
 20
204.715204
 42
-0.117953
  0
VERTEX
  8
0
 10
120.724784
 20
207.744477
 42
-0.048108
  0
VERTEX
  8
0
 10
122.990189
 20
211.349669
 42
-0.047200
  0
VERTEX
  8
0
 10
125.686000
 20
214.234771
 42
-0.279823
  0
VERTEX
  8
0
 10
127.632495
 20
214.587531
 42
0.144136
  0
VERTEX
  8
0
 10
128.222604
 20
214.540157
 42
0.085085
  0
VERTEX
  8
0
 10
128.885315
 20
214.801748
 42
0.072565
  0
VERTEX
  8
0
 10
129.518583
 20
215.325035
 42
0.061059
  0
VERTEX
  8
0
 10
130.019929
 20
216.037238
 42
-0.051773
  0
VERTEX
  8
0
 10
130.960707
 20
217.427681
 42
-0.192326
  0
VERTEX
  8
0
 10
131.875149
 20
217.918351
 42
-0.251426
  0
VERTEX
  8
0
 10
132.704873
 20
217.586784
 42
-0.083085
  0
SEQEND
  0
POLYLINE
  8
0
 66
1
 70
1
  0
VERTEX
  8
0
 10
176.793077
 20
170.353268
 42
0.052911
  0
VERTEX
  8
0
 10
176.772645
 20
168.406557
 42
0.041301
  0
VERTEX
  8
0
 10
177.146870
 20
166.323827
 42
0.033870
  0
VERTEX
  8
0
 10
177.950063
 20
163.963926
 42
0.018038
  0
VERTEX
  8
0
 10
179.241696
 20
161.161198
 42
0.004971
  0
VERTEX
  8
0
 10
180.303815
 20
159.110314
 42
0.015227
  0
VERTEX
  8
0
 10
181.079242
 20
157.750477
 42
0.095840
  0
VERTEX
  8
0
 10
181.375389
 20
157.426006
 42
0.726260
  0
VERTEX
  8
0
 10
181.479837
 20
157.500000
 42
-0.010180
  0
VERTEX
  8
0
 10
180.255764
 20
161.733373
 42
-0.008224
  0
VERTEX
  8
0
 10
179.109428
 20
166.324828
 42
-0.006663
  0
VERTEX
  8
0
 10
178.203140
 20
170.477102
 42
-0.051064
  0
VERTEX
  8
0
 10
178.005123
 20
172.460099
 42
-0.664991
  0
VERTEX
  8
0
 10
178.835391
 20
172.805859
 42
-0.080523
  0
VERTEX
  8
0
 10
180.488598
 20
170.543271
 42
-0.033133
  0
VERTEX
  8
0
 10
182.397809
 20
166.078367
 42
-0.076429
  0
VERTEX
  8
0
 10
183.068470
 20
162.500000
 42
0.003268
  0
VERTEX
  8
0
 10
183.160333
 20
160.160623
 42
0.122750
  0
VERTEX
  8
0
 10
183.310737
 20
159.656723
 42
0.635062
  0
VERTEX
  8
0
 10
183.519037
 20
159.676602
 42
0.012529
  0
VERTEX
  8
0
 10
183.956112
 20
161.000000
 42
0.000000
  0
VERTEX
  8
0
 10
184.712865
 20
163.500000
 42
0.000000
  0
VERTEX
  8
0
 10
185.460171
 20
160.768603
 42
-0.047208
  0
VERTEX
  8
0
 10
185.686334
 20
159.472209
 42
-0.023872
  0
VERTEX
  8
0
 10
185.737171
 20
157.813433
 42
-0.023476
  0
VERTEX
  8
0
 10
185.626095
 20
156.081346
 42
-0.032191
  0
VERTEX
  8
0
 10
185.353739
 20
154.544027
 42
-0.014328
  0
VERTEX
  8
0
 10
184.770709
 20
152.423835
 42
-0.167912
  0
VERTEX
  8
0
 10
184.273228
 20
151.741139
 42
-0.242665
  0
VERTEX
  8
0
 10
183.555160
 20
151.645640
 42
-0.031834
  0
VERTEX
  8
0
 10
182.096399
 20
152.275424
 42
-0.041769
  0
VERTEX
  8
0
 10
181.034513
 20
152.933342
 42
-0.021698
  0
VERTEX
  8
0
 10
179.822843
 20
153.916320
 42
-0.021418
  0
VERTEX
  8
0
 10
178.658184
 20
155.040665
 42
-0.030424
  0
VERTEX
  8
0
 10
177.731904
 20
156.141836
 42
-0.071703
  0
VERTEX
  8
0
 10
176.275806
 20
158.836859
 42
-0.029118
  0
VERTEX
  8
0
 10
175.064139
 20
162.839051
 42
-0.021627
  0
VERTEX
  8
0
 10
174.306865
 20
166.723955
 42
-0.355861
  0
VERTEX
  8
0
 10
174.934923
 20
167.784886
 42
0.227585
  0
VERTEX
  8
0
 10
175.201726
 20
168.059632
 42
0.052942
  0
VERTEX
  8
0
 10
175.344351
 20
168.705315
 42
0.044365
  0
VERTEX
  8
0
 10
175.363956
 20
169.559717
 42
0.030798
  0
VERTEX
  8
0
 10
175.241270
 20
170.518208
 42
-0.061616
  0
VERTEX
  8
0
 10
175.101898
 20
172.633061
 42
-0.062322
  0
VERTEX
  8
0
 10
175.483525
 20
174.709586
 42
-0.205590
  0
VERTEX
  8
0
 10
176.109990
 20
175.435833
 42
-0.443093
  0
VERTEX
  8
0
 10
176.719068
 20
175.192071
 42
-0.068544
  0
VERTEX
  8
0
 10
176.881278
 20
174.463403
 42
-0.016720
  0
VERTEX
  8
0
 10
176.941373
 20
173.231152
 42
-0.016824
  0
VERTEX
  8
0
 10
176.915126
 20
171.800974
 42
-0.016057
  0
SEQEND
  0
POLYLINE
  8
0
 66
1
 70
1
  0
VERTEX
  8
0
 10
61.885346
 20
161.936266
 42
-0.016317
  0
VERTEX
  8
0
 10
60.467266
 20
159.472836
 42
-0.015894
  0
VERTEX
  8
0
 10
58.879707
 20
157.084976
 42
-0.016012
  0
VERTEX
  8
0
 10
57.352876
 20
155.078809
 42
-0.055485
  0
VERTEX
  8
0
 10
56.191846
 20
153.936266
 42
0.012201
  0
VERTEX
  8
0
 10
55.292197
 20
153.192365
 42
0.026387
  0
VERTEX
  8
0
 10
54.646628
 20
152.568778
 42
0.044604
  0
VERTEX
  8
0
 10
54.312412
 20
152.138860
 42
0.593482
  0
VERTEX
  8
0
 10
54.388194
 20
152.000000
 42
-0.466293
  0
VERTEX
  8
0
 10
54.530461
 20
151.830462
 42
-0.049831
  0
VERTEX
  8
0
 10
54.371663
 20
151.265625
 42
-0.034229
  0
VERTEX
  8
0
 10
53.990159
 20
150.459604
 42
-0.017385
  0
VERTEX
  8
0
 10
53.408043
 20
149.500000
 42
0.028041
  0
VERTEX
  8
0
 10
52.180492
 20
147.375651
 42
0.812955
  0
VERTEX
  8
0
 10
52.451658
 20
147.159261
 42
0.052219
  0
VERTEX
  8
0
 10
54.038083
 20
148.779701
 42
0.009306
  0
VERTEX
  8
0
 10
56.613357
 20
152.154423
 42
-0.013897
  0
VERTEX
  8
0
 10
59.310659
 20
155.622563
 42
-0.274756
  0
VERTEX
  8
0
 10
60.529156
 20
156.061432
 42
-0.429472
  0
VERTEX
  8
0
 10
61.070564
 20
155.214753
 42
-0.019100
  0
VERTEX
  8
0
 10
60.000343
 20
151.501038
 42
-0.051990
  0
VERTEX
  8
0
 10
58.922278
 20
149.104106
 42
-0.092417
  0
VERTEX
  8
0
 10
57.514470
 20
147.469064
 42
-0.085293
  0
VERTEX
  8
0
 10
55.528849
 20
146.370211
 42
-0.038993
  0
VERTEX
  8
0
 10
52.654701
 20
145.613831
 42
-0.029792
  0
VERTEX
  8
0
 10
51.194169
 20
145.437988
 42
-0.177326
  0
VERTEX
  8
0
 10
50.470402
 20
145.654559
 42
-0.196905
  0
VERTEX
  8
0
 10
50.100583
 20
146.271218
 42
-0.037862
  0
VERTEX
  8
0
 10
50.000000
 20
147.597606
 42
-0.059498
  0
VERTEX
  8
0
 10
50.117976
 20
148.585527
 42
-0.059619
  0
VERTEX
  8
0
 10
50.465255
 20
149.517163
 42
-0.065414
  0
VERTEX
  8
0
 10
50.977797
 20
150.255921
 42
-0.117335
  0
VERTEX
  8
0
 10
51.583846
 20
150.670548
 42
0.038117
  0
VERTEX
  8
0
 10
52.247854
 20
150.985265
 42
0.184231
  0
VERTEX
  8
0
 10
52.508209
 20
151.302251
 42
0.266985
  0
VERTEX
  8
0
 10
52.441906
 20
151.631777
 42
0.074354
  0
VERTEX
  8
0
 10
52.024196
 20
151.985046
 42
-0.371921
  0
VERTEX
  8
0
 10
51.837103
 20
152.579152
 42
-0.053190
  0
VERTEX
  8
0
 10
52.515744
 20
153.782964
 42
-0.034566
  0
VERTEX
  8
0
 10
53.887069
 20
155.448843
 42
-0.012907
  0
VERTEX
  8
0
 10
56.026551
 20
157.595883
 42
0.012478
  0
VERTEX
  8
0
 10
58.102131
 20
159.675226
 42
0.012265
  0
VERTEX
  8
0
 10
60.083655
 20
161.867228
 42
0.012227
  0
VERTEX
  8
0
 10
61.724944
 20
163.872030
 42
0.044866
  0
VERTEX
  8
0
 10
62.611881
 20
165.250000
 42
-0.014205
  0
VERTEX
  8
0
 10
63.202110
 20
166.303615
 42
-0.020795
  0
VERTEX
  8
0
 10
63.785071
 20
167.192187
 42
-0.016976
  0
VERTEX
  8
0
 10
64.306129
 20
167.868915
 42
-0.223800
  0
VERTEX
  8
0
 10
64.584322
 20
168.000000
 42
-0.535498
  0
VERTEX
  8
0
 10
64.702921
 20
167.821913
 42
-0.005751
  0
VERTEX
  8
0
 10
64.011344
 20
166.218778
 42
-0.011304
  0
VERTEX
  8
0
 10
63.086917
 20
164.262183
 42
-0.006427
  0
SEQEND
  0
POLYLINE
  8
0
 66
1
 70
1
  0
VERTEX
  8
0
 10
63.564741
 20
158.401926
 42
-0.026896
  0
VERTEX
  8
0
 10
63.203485
 20
157.232770
 42
-0.111241
  0
VERTEX
  8
0
 10
62.803753
 20
156.615988
 42
-0.242770
  0
VERTEX
  8
0
 10
62.356988
 20
156.478831
 42
-0.152910
  0
VERTEX
  8
0
 10
61.862542
 20
156.737458
 42
-0.110814
  0
VERTEX
  8
0
 10
61.491009
 20
157.323959
 42
-0.107927
  0
VERTEX
  8
0
 10
61.400929
 20
158.018813
 42
-0.080964
  0
VERTEX
  8
0
 10
61.610576
 20
158.847891
 42
-0.037266
  0
VERTEX
  8
0
 10
62.130043
 20
159.836624
 42
-0.028915
  0
VERTEX
  8
0
 10
63.217887
 20
161.373172
 42
-0.447268
  0
VERTEX
  8
0
 10
63.792613
 20
161.405253
 42
-0.244153
  0
VERTEX
  8
0
 10
64.037821
 20
160.630338
 42
-0.018360
  0
SEQEND
  0
POLYLINE
  8
0
 66
1
 70
1
  0
VERTEX
  8
0
 10
96.947248
 20
147.471925
 42
0.047404
  0
VERTEX
  8
0
 10
96.277145
 20
142.653382
 42
0.009477
  0
VERTEX
  8
0
 10
96.064357
 20
133.966679
 42
0.010656
  0
VERTEX
  8
0
 10
96.208535
 20
124.826885
 42
0.020881
  0
VERTEX
  8
0
 10
96.781668
 20
117.572495
 42
-0.011751
  0
VERTEX
  8
0
 10
97.135469
 20
113.940157
 42
-0.076070
  0
VERTEX
  8
0
 10
96.992039
 20
112.111006
 42
-0.106343
  0
VERTEX
  8
0
 10
96.318430
 20
110.687532
 42
-0.033093
  0
VERTEX
  8
0
 10
94.750000
 20
108.899418
 42
0.033941
  0
VERTEX
  8
0
 10
93.697628
 20
107.695539
 42
0.033072
  0
VERTEX
  8
0
 10
92.807812
 20
106.350262
 42
0.034907
  0
VERTEX
  8
0
 10
92.189327
 20
105.064872
 42
0.094954
  0
VERTEX
  8
0
 10
92.000000
 20
104.076923
 42
-0.058656
  0
VERTEX
  8
0
 10
91.906495
 20
103.282601
 42
-0.077714
  0
VERTEX
  8
0
 10
91.630475
 20
102.610096
 42
-0.096321
  0
VERTEX
  8
0
 10
91.221879
 20
102.159574
 42
-0.161921
  0
VERTEX
  8
0
 10
90.742043
 20
102.000000
 42
-0.111588
  0
VERTEX
  8
0
 10
88.967896
 20
102.400940
 42
-0.008461
  0
VERTEX
  8
0
 10
84.534046
 20
104.605618
 42
-0.011198
  0
VERTEX
  8
0
 10
80.233915
 20
106.958996
 42
-0.058929
  0
VERTEX
  8
0
 10
78.080007
 20
108.565586
 42
-0.152905
  0
VERTEX
  8
0
 10
76.465992
 20
111.459564
 42
-0.021253
  0
VERTEX
  8
0
 10
75.338799
 20
118.322544
 42
-0.025221
  0
VERTEX
  8
0
 10
74.808175
 20
125.905742
 42
-0.038942
  0
VERTEX
  8
0
 10
75.191587
 20
132.461733
 42
-0.003692
  0
VERTEX
  8
0
 10
76.179338
 20
139.290726
 42
-0.102645
  0
VERTEX
  8
0
 10
76.803833
 20
140.972235
 42
-0.556572
  0
VERTEX
  8
0
 10
77.578628
 20
140.968262
 42
-0.032253
  0
VERTEX
  8
0
 10
78.925511
 20
138.415113
 42
0.041697
  0
VERTEX
  8
0
 10
80.911118
 20
134.817310
 42
0.026332
  0
VERTEX
  8
0
 10
83.777698
 20
130.969563
 42
0.020673
  0
VERTEX
  8
0
 10
86.724391
 20
127.705144
 42
0.201452
  0
VERTEX
  8
0
 10
88.403516
 20
127.000000
 42
0.279093
  0
VERTEX
  8
0
 10
88.940654
 20
127.325150
 42
0.025387
  0
VERTEX
  8
0
 10
89.623326
 20
128.808337
 42
0.026974
  0
VERTEX
  8
0
 10
90.299068
 20
130.802832
 42
0.017264
  0
VERTEX
  8
0
 10
90.876424
 20
133.180573
 42
-0.024646
  0
VERTEX
  8
0
 10
92.200846
 20
138.304003
 42
-0.010845
  0
VERTEX
  8
0
 10
94.430361
 20
144.944098
 42
-0.003733
  0
VERTEX
  8
0
 10
96.890223
 20
151.618756
 42
-0.544887
  0
VERTEX
  8
0
 10
97.568328
 20
151.765006
 42
-0.228080
  0
VERTEX
  8
0
 10
97.662638
 20
151.495749
 42
-0.008023
  0
VERTEX
  8
0
 10
97.518362
 20
150.371437
 42
-0.013464
  0
VERTEX
  8
0
 10
97.285086
 20
149.017338
 42
-0.008849
  0
SEQEND
  0
POLYLINE
  8
0
 66
1
 70
1
  0
VERTEX
  8
0
 10
130.836180
 20
128.321114
 42
0.047704
  0
VERTEX
  8
0
 10
132.960136
 20
124.986048
 42
0.040930
  0
VERTEX
  8
0
 10
135.779931
 20
121.923964
 42
0.042301
  0
VERTEX
  8
0
 10
138.682021
 20
119.670702
 42
0.144914
  0
VERTEX
  8
0
 10
140.947559
 20
119.000000
 42
0.167901
  0
VERTEX
  8
0
 10
141.871679
 20
119.319323
 42
0.128997
  0
VERTEX
  8
0
 10
142.521289
 20
120.175936
 42
0.058714
  0
VERTEX
  8
0
 10
142.992162
 20
121.845128
 42
0.011251
  0
VERTEX
  8
0
 10
143.417044
 20
124.969543
 42
-0.011983
  0
VERTEX
  8
0
 10
143.736616
 20
127.294063
 42
-0.017102
  0
VERTEX
  8
0
 10
144.139737
 20
129.337388
 42
-0.013083
  0
VERTEX
  8
0
 10
144.568529
 20
130.981311
 42
-0.186081
  0
VERTEX
  8
0
 10
144.928874
 20
131.456042
 42
-0.469317
  0
VERTEX
  8
0
 10
146.361142
 20
130.974991
 42
-0.008461
  0
VERTEX
  8
0
 10
149.517710
 20
122.387370
 42
-0.016123
  0
VERTEX
  8
0
 10
152.207618
 20
113.785494
 42
-0.064620
  0
VERTEX
  8
0
 10
152.985219
 20
108.337536
 42
-0.305198
  0
VERTEX
  8
0
 10
152.143061
 20
107.051355
 42
-0.006660
  0
VERTEX
  8
0
 10
144.862191
 20
104.098323
 42
-0.014691
  0
VERTEX
  8
0
 10
137.620523
 20
101.515354
 42
-0.044884
  0
VERTEX
  8
0
 10
132.538577
 20
100.360096
 42
-0.018277
  0
VERTEX
  8
0
 10
130.241702
 20
100.135977
 42
-0.101218
  0
VERTEX
  8
0
 10
129.019282
 20
100.309530
 42
-0.150294
  0
VERTEX
  8
0
 10
128.207308
 20
100.915514
 42
-0.056993
  0
VERTEX
  8
0
 10
127.500000
 20
102.158205
 42
0.153927
  0
VERTEX
  8
0
 10
126.256268
 20
103.608015
 42
0.098376
  0
VERTEX
  8
0
 10
124.161793
 20
104.396813
 42
0.081429
  0
VERTEX
  8
0
 10
121.547856
 20
104.400895
 42
0.064504
  0
VERTEX
  8
0
 10
118.836396
 20
103.592450
 42
-0.172620
  0
VERTEX
  8
0
 10
117.805758
 20
103.513218
 42
-0.074550
  0
VERTEX
  8
0
 10
116.527526
 20
104.074822
 42
-0.045044
  0
VERTEX
  8
0
 10
114.889291
 20
105.327527
 42
-0.014199
  0
VERTEX
  8
0
 10
112.676868
 20
107.478197
 42
0.017120
  0
VERTEX
  8
0
 10
110.500248
 20
109.569483
 42
0.039372
  0
VERTEX
  8
0
 10
108.696659
 20
110.947615
 42
0.054220
  0
VERTEX
  8
0
 10
107.163220
 20
111.717755
 42
0.111850
  0
VERTEX
  8
0
 10
105.840472
 20
111.896507
 42
-0.018578
  0
VERTEX
  8
0
 10
103.318726
 20
111.767034
 42
-0.048010
  0
VERTEX
  8
0
 10
101.504702
 20
111.915757
 42
-0.079572
  0
VERTEX
  8
0
 10
100.379420
 20
112.309459
 42
-0.275528
  0
VERTEX
  8
0
 10
100.000000
 20
112.945721
 42
-0.208548
  0
VERTEX
  8
0
 10
100.250439
 20
113.520042
 42
-0.004876
  0
VERTEX
  8
0
 10
102.479086
 20
115.549447
 42
-0.009979
  0
VERTEX
  8
0
 10
105.204998
 20
117.887379
 42
-0.006503
  0
VERTEX
  8
0
 10
108.439443
 20
120.481437
 42
0.015948
  0
VERTEX
  8
0
 10
114.616724
 20
125.630352
 42
0.016395
  0
VERTEX
  8
0
 10
120.394693
 20
131.116870
 42
0.011335
  0
VERTEX
  8
0
 10
125.147857
 20
136.159979
 42
0.169472
  0
VERTEX
  8
0
 10
126.070462
 20
138.358154
 42
-0.592325
  0
VERTEX
  8
0
 10
126.226376
 20
138.431488
 42
-0.105740
  0
VERTEX
  8
0
 10
126.504911
 20
138.120396
 42
-0.030385
  0
VERTEX
  8
0
 10
126.941436
 20
137.236643
 42
-0.011266
  0
VERTEX
  8
0
 10
127.450492
 20
135.945323
 42
0.010778
  0
VERTEX
  8
0
 10
128.100030
 20
134.292918
 42
0.005456
  0
VERTEX
  8
0
 10
128.985234
 20
132.239408
 42
0.005417
  0
VERTEX
  8
0
 10
129.945683
 20
130.138245
 42
0.008042
  0
SEQEND
  0
POLYLINE
  8
0
 66
1
 70
1
  0
VERTEX
  8
0
 10
102.739668
 20
109.750000
 42
-0.052583
  0
VERTEX
  8
0
 10
103.165652
 20
109.073693
 42
-0.018096
  0
VERTEX
  8
0
 10
103.638651
 20
108.016886
 42
-0.017753
  0
VERTEX
  8
0
 10
104.079754
 20
106.805262
 42
-0.019647
  0
VERTEX
  8
0
 10
104.417468
 20
105.605355
 42
0.024358
  0
VERTEX
  8
0
 10
104.788983
 20
104.331474
 42
0.104778
  0
VERTEX
  8
0
 10
105.193630
 20
103.658360
 42
0.244554
  0
VERTEX
  8
0
 10
105.645760
 20
103.497896
 42
0.163110
  0
VERTEX
  8
0
 10
106.147996
 20
103.747996
 42
0.106875
  0
VERTEX
  8
0
 10
106.535711
 20
104.349628
 42
0.101595
  0
VERTEX
  8
0
 10
106.649612
 20
105.069059
 42
0.076497
  0
VERTEX
  8
0
 10
106.474643
 20
105.940372
 42
0.035146
  0
VERTEX
  8
0
 10
106.000000
 20
107.000000
 42
-0.078513
  0
VERTEX
  8
0
 10
105.413996
 20
108.684998
 42
-0.189147
  0
VERTEX
  8
0
 10
105.666651
 20
109.958253
 42
-0.266899
  0
VERTEX
  8
0
 10
106.604617
 20
110.445846
 42
-0.128533
  0
VERTEX
  8
0
 10
107.944057
 20
110.034575
 42
-0.050251
  0
VERTEX
  8
0
 10
108.658853
 20
109.486667
 42
-0.207802
  0
VERTEX
  8
0
 10
108.869328
 20
108.997884
 42
-0.148474
  0
VERTEX
  8
0
 10
108.685985
 20
108.400861
 42
-0.022643
  0
VERTEX
  8
0
 10
107.935698
 20
107.388985
 42
0.006210
  0
VERTEX
  8
0
 10
107.079235
 20
106.309902
 42
0.260412
  0
VERTEX
  8
0
 10
107.036886
 20
106.027706
 42
0.402399
  0
VERTEX
  8
0
 10
107.244069
 20
105.928874
 42
0.009727
  0
VERTEX
  8
0
 10
108.340242
 20
106.316014
 42
-0.065018
  0
VERTEX
  8
0
 10
110.023466
 20
106.708532
 42
-0.205831
  0
VERTEX
  8
0
 10
111.103051
 20
106.366582
 42
-0.252502
  0
VERTEX
  8
0
 10
111.461093
 20
105.425073
 42
-0.090276
  0
VERTEX
  8
0
 10
111.006290
 20
104.011754
 42
0.114124
  0
VERTEX
  8
0
 10
110.294944
 20
101.381538
 42
0.337505
  0
VERTEX
  8
0
 10
111.307246
 20
99.945828
 42
0.149440
  0
VERTEX
  8
0
 10
114.094694
 20
99.920798
 42
0.032647
  0
VERTEX
  8
0
 10
118.651129
 20
101.599411
 42
-0.036378
  0
VERTEX
  8
0
 10
121.253166
 20
102.536051
 42
-0.051860
  0
VERTEX
  8
0
 10
123.672116
 20
102.949221
 42
-0.072740
  0
VERTEX
  8
0
 10
125.419831
 20
102.809671
 42
-0.349774
  0
VERTEX
  8
0
 10
126.000000
 20
102.081787
 42
-0.147504
  0
VERTEX
  8
0
 10
125.163355
 20
99.307482
 42
-0.104880
  0
VERTEX
  8
0
 10
122.830610
 20
97.018140
 42
-0.084049
  0
VERTEX
  8
0
 10
119.254283
 20
95.509012
 42
-0.057966
  0
VERTEX
  8
0
 10
114.878401
 20
95.000000
 42
0.058200
  0
VERTEX
  8
0
 10
111.623552
 20
94.619846
 42
0.097287
  0
VERTEX
  8
0
 10
109.122376
 20
93.483328
 42
0.118913
  0
VERTEX
  8
0
 10
107.561705
 20
91.680832
 42
0.119794
  0
VERTEX
  8
0
 10
107.000000
 20
89.370012
 42
-0.046400
  0
VERTEX
  8
0
 10
106.881510
 20
88.095931
 42
-0.228957
  0
VERTEX
  8
0
 10
106.465221
 20
87.531671
 42
-0.150663
  0
VERTEX
  8
0
 10
105.631839
 20
87.374898
 42
-0.017897
  0
VERTEX
  8
0
 10
103.750000
 20
87.657237
 42
-0.026199
  0
VERTEX
  8
0
 10
100.792161
 20
88.371977
 42
-0.228831
  0
VERTEX
  8
0
 10
99.821848
 20
89.256890
 42
-0.223231
  0
VERTEX
  8
0
 10
99.898524
 20
90.582501
 42
-0.024958
  0
VERTEX
  8
0
 10
101.513001
 20
93.233945
 42
0.007468
  0
VERTEX
  8
0
 10
103.606855
 20
96.416557
 42
0.159240
  0
VERTEX
  8
0
 10
103.883672
 20
97.495489
 42
0.605240
  0
VERTEX
  8
0
 10
103.424962
 20
97.699013
 42
0.016978
  0
VERTEX
  8
0
 10
101.338750
 20
95.924314
 42
-0.011233
  0
VERTEX
  8
0
 10
100.358639
 20
95.070953
 42
-0.039820
  0
VERTEX
  8
0
 10
99.677900
 20
94.590785
 42
-0.300903
  0
VERTEX
  8
0
 10
99.461093
 20
94.601602
 42
-0.382142
  0
VERTEX
  8
0
 10
99.421868
 20
94.788996
 42
0.211658
  0
VERTEX
  8
0
 10
99.503443
 20
95.551801
 42
0.063697
  0
VERTEX
  8
0
 10
98.997140
 20
96.633298
 42
0.045115
  0
VERTEX
  8
0
 10
97.979121
 20
97.957983
 42
0.020960
  0
VERTEX
  8
0
 10
96.441417
 20
99.489794
 42
-0.013026
  0
VERTEX
  8
0
 10
94.225996
 20
101.627797
 42
-0.100308
  0
VERTEX
  8
0
 10
93.442889
 20
102.830454
 42
-0.151753
  0
VERTEX
  8
0
 10
93.352203
 20
104.021016
 42
-0.041903
  0
VERTEX
  8
0
 10
93.929478
 20
105.829744
 42
-0.092427
  0
VERTEX
  8
0
 10
95.674850
 20
108.511095
 42
-0.098006
  0
VERTEX
  8
0
 10
98.237611
 20
110.317750
 42
-0.124045
  0
VERTEX
  8
0
 10
100.828970
 20
110.767464
 42
-0.210174
  0
SEQEND
  0
POLYLINE
  8
0
 66
1
 70
1
  0
VERTEX
  8
0
 10
114.183333
 20
101.783333
 42
-0.034019
  0
VERTEX
  8
0
 10
113.693024
 20
101.355562
 42
-0.131573
  0
VERTEX
  8
0
 10
113.322581
 20
101.204271
 42
-0.290264
  0
VERTEX
  8
0
 10
113.093678
 20
101.311730
 42
-0.142677
  0
VERTEX
  8
0
 10
113.000000
 20
101.633333
 42
-0.094783
  0
VERTEX
  8
0
 10
113.175276
 20
102.549640
 42
-0.102202
  0
VERTEX
  8
0
 10
113.674729
 20
103.309147
 42
-0.145728
  0
VERTEX
  8
0
 10
114.299565
 20
103.647242
 42
-0.253202
  0
VERTEX
  8
0
 10
114.850000
 20
103.483333
 42
-0.212536
  0
VERTEX
  8
0
 10
114.959631
 20
103.197768
 42
-0.080535
  0
VERTEX
  8
0
 10
114.867292
 20
102.770833
 42
-0.061283
  0
VERTEX
  8
0
 10
114.598500
 20
102.274266
 42
-0.041736
  0
SEQEND
  0
POLYLINE
  8
0
 66
1
 70
1
  0
VERTEX
  8
0
 10
153.000000
 20
101.000000
 42
-0.012029
  0
VERTEX
  8
0
 10
152.944722
 20
98.702631
 42
-0.300450
  0
VERTEX
  8
0
 10
152.589111
 20
98.216795
 42
-0.201391
  0
VERTEX
  8
0
 10
151.892053
 20
98.246271
 42
-0.005754
  0
VERTEX
  8
0
 10
149.153638
 20
99.573242
 42
-0.010984
  0
VERTEX
  8
0
 10
146.714748
 20
100.857580
 42
-0.203759
  0
VERTEX
  8
0
 10
146.190544
 20
101.530078
 42
-0.350176
  0
VERTEX
  8
0
 10
146.458698
 20
102.141069
 42
-0.025349
  0
VERTEX
  8
0
 10
148.250000
 20
102.968838
 42
-0.026435
  0
VERTEX
  8
0
 10
150.753184
 20
103.824367
 42
-0.168933
  0
VERTEX
  8
0
 10
152.072038
 20
103.747481
 42
-0.242780
  0
VERTEX
  8
0
 10
152.784731
 20
102.903941
 42
-0.056353
  0
SEQEND
  0
POLYLINE
  8
0
 66
1
 70
1
  0
VERTEX
  8
0
 10
149.470429
 20
97.718322
 42
-0.054944
  0
VERTEX
  8
0
 10
153.197493
 20
95.028671
 42
-0.072310
  0
VERTEX
  8
0
 10
155.868190
 20
91.802896
 42
-0.074413
  0
VERTEX
  8
0
 10
157.458282
 20
88.027421
 42
-0.062598
  0
VERTEX
  8
0
 10
158.000000
 20
83.717414
 42
-0.027917
  0
VERTEX
  8
0
 10
157.701797
 20
78.380643
 42
-0.018926
  0
VERTEX
  8
0
 10
156.794773
 20
72.358236
 42
-0.010004
  0
VERTEX
  8
0
 10
155.621057
 20
66.778733
 42
-0.349088
  0
VERTEX
  8
0
 10
154.641599
 20
66.000000
 42
0.121725
  0
VERTEX
  8
0
 10
154.108424
 20
65.868246
 42
0.023585
  0
VERTEX
  8
0
 10
153.246512
 20
65.361295
 42
0.023815
  0
VERTEX
  8
0
 10
152.274819
 20
64.658077
 42
0.020030
  0
VERTEX
  8
0
 10
151.314451
 20
63.825686
 42
0.105260
  0
VERTEX
  8
0
 10
149.664279
 20
61.448789
 42
0.095107
  0
VERTEX
  8
0
 10
149.047030
 20
58.516457
 42
0.089801
  0
VERTEX
  8
0
 10
149.550829
 20
55.420139
 42
0.081706
  0
VERTEX
  8
0
 10
151.114004
 20
52.582196
 42
-0.034371
  0
VERTEX
  8
0
 10
152.569813
 20
50.444177
 42
-0.286061
  0
VERTEX
  8
0
 10
152.538262
 20
49.323772
 42
-0.424225
  0
VERTEX
  8
0
 10
151.670074
 20
49.163119
 42
-0.041510
  0
VERTEX
  8
0
 10
149.862010
 20
50.693545
 42
-0.144240
  0
VERTEX
  8
0
 10
147.535183
 20
54.963991
 42
-0.089361
  0
VERTEX
  8
0
 10
147.338753
 20
60.715151
 42
-0.091212
  0
VERTEX
  8
0
 10
149.148144
 20
66.066913
 42
-0.160180
  0
VERTEX
  8
0
 10
152.548100
 20
69.203869
 42
0.027243
  0
VERTEX
  8
0
 10
153.486885
 20
69.694998
 42
0.035871
  0
VERTEX
  8
0
 10
154.279754
 20
70.247006
 42
0.038868
  0
VERTEX
  8
0
 10
154.843646
 20
70.780378
 42
0.185978
  0
VERTEX
  8
0
 10
155.000000
 20
71.186195
 42
0.404619
  0
VERTEX
  8
0
 10
154.786015
 20
71.407332
 42
0.064132
  0
VERTEX
  8
0
 10
154.123722
 20
71.344077
 42
0.041834
  0
VERTEX
  8
0
 10
153.161645
 20
71.039154
 42
0.021680
  0
VERTEX
  8
0
 10
152.016927
 20
70.508753
 42
0.083219
  0
VERTEX
  8
0
 10
149.422459
 20
68.563699
 42
0.077432
  0
VERTEX
  8
0
 10
147.527202
 20
65.833910
 42
0.068001
  0
VERTEX
  8
0
 10
146.381452
 20
62.335922
 42
0.045215
  0
VERTEX
  8
0
 10
146.000000
 20
58.126385
 42
0.024622
  0
VERTEX
  8
0
 10
146.130448
 20
55.478979
 42
0.055106
  0
VERTEX
  8
0
 10
146.546915
 20
53.511248
 42
0.060274
  0
VERTEX
  8
0
 10
147.354344
 20
51.792036
 42
0.035021
  0
VERTEX
  8
0
 10
148.698804
 20
49.946104
 42
0.000000
  0
VERTEX
  8
0
 10
151.397608
 20
46.738758
 42
0.000000
  0
VERTEX
  8
0
 10
148.789509
 20
44.495367
 42
-0.060234
  0
VERTEX
  8
0
 10
147.130101
 20
43.384197
 42
-0.046803
  0
VERTEX
  8
0
 10
145.107682
 20
42.585351
 42
-0.034168
  0
VERTEX
  8
0
 10
142.420814
 20
42.000471
 42
-0.013149
  0
VERTEX
  8
0
 10
138.627661
 20
41.544131
 42
-0.009901
  0
VERTEX
  8
0
 10
132.618010
 20
41.100813
 42
-0.119459
  0
VERTEX
  8
0
 10
130.355062
 20
41.521861
 42
-0.384405
  0
VERTEX
  8
0
 10
129.833055
 20
42.706444
 42
-0.075106
  0
VERTEX
  8
0
 10
130.981897
 20
44.974576
 42
0.016683
  0
VERTEX
  8
0
 10
131.754488
 20
46.139992
 42
0.019410
  0
VERTEX
  8
0
 10
132.407182
 20
47.298046
 42
0.018768
  0
VERTEX
  8
0
 10
132.879686
 20
48.309863
 42
0.100173
  0
VERTEX
  8
0
 10
133.000000
 20
48.904370
 42
-0.087932
  0
VERTEX
  8
0
 10
133.074143
 20
49.322704
 42
-0.094623
  0
VERTEX
  8
0
 10
133.286978
 20
49.678159
 42
-0.100062
  0
VERTEX
  8
0
 10
133.604257
 20
49.915939
 42
-0.111377
  0
VERTEX
  8
0
 10
133.976947
 20
50.000000
 42
0.159153
  0
VERTEX
  8
0
 10
134.458137
 20
50.157146
 42
0.033022
  0
VERTEX
  8
0
 10
135.149233
 20
50.736108
 42
0.031612
  0
VERTEX
  8
0
 10
135.895550
 20
51.546539
 42
0.025254
  0
VERTEX
  8
0
 10
136.595823
 20
52.505901
 42
0.034868
  0
VERTEX
  8
0
 10
137.410163
 20
53.960610
 42
0.092922
  0
VERTEX
  8
0
 10
137.709366
 20
55.106945
 42
0.087404
  0
VERTEX
  8
0
 10
137.581731
 20
56.325456
 42
0.028500
  0
VERTEX
  8
0
 10
136.983784
 20
58.039148
 42
0.045869
  0
VERTEX
  8
0
 10
136.280455
 20
59.375815
 42
0.024190
  0
VERTEX
  8
0
 10
135.183165
 20
60.898563
 42
0.023858
  0
VERTEX
  8
0
 10
133.899425
 20
62.360774
 42
0.033761
  0
VERTEX
  8
0
 10
132.614908
 20
63.522158
 42
0.000000
  0
VERTEX
  8
0
 10
129.500000
 20
65.977821
 42
0.000000
  0
VERTEX
  8
0
 10
132.726947
 20
65.988911
 42
0.044017
  0
VERTEX
  8
0
 10
134.296754
 20
66.132813
 42
0.071374
  0
VERTEX
  8
0
 10
135.565662
 20
66.555990
 42
0.075638
  0
VERTEX
  8
0
 10
136.613585
 20
67.296847
 42
0.056153
  0
VERTEX
  8
0
 10
137.519800
 20
68.389875
 42
0.076812
  0
VERTEX
  8
0
 10
138.779725
 20
71.161054
 42
0.022658
  0
VERTEX
  8
0
 10
139.837688
 20
75.718791
 42
0.015119
  0
VERTEX
  8
0
 10
140.531309
 20
80.230558
 42
0.450507
  0
VERTEX
  8
0
 10
139.850655
 20
81.000000
 42
0.234357
  0
VERTEX
  8
0
 10
139.523457
 20
80.837725
 42
0.070764
  0
VERTEX
  8
0
 10
139.245382
 20
80.339062
 42
0.054246
  0
VERTEX
  8
0
 10
139.052659
 20
79.611716
 42
0.035971
  0
VERTEX
  8
0
 10
138.984687
 20
78.750000
 42
-0.053880
  0
VERTEX
  8
0
 10
138.721489
 20
76.460594
 42
-0.141359
  0
VERTEX
  8
0
 10
137.931892
 20
75.025406
 42
-0.171528
  0
VERTEX
  8
0
 10
136.614915
 20
74.393753
 42
-0.088573
  0
VERTEX
  8
0
 10
134.769600
 20
74.521691
 42
-0.040519
  0
VERTEX
  8
0
 10
133.575341
 20
74.926619
 42
-0.123470
  0
VERTEX
  8
0
 10
132.900473
 20
75.443488
 42
-0.155627
  0
VERTEX
  8
0
 10
132.636655
 20
76.138608
 42
-0.077589
  0
VERTEX
  8
0
 10
132.732481
 20
77.085008
 42
0.124267
  0
VERTEX
  8
0
 10
132.749547
 20
79.089930
 42
0.148737
  0
VERTEX
  8
0
 10
131.792109
 20
80.708898
 42
0.136820
  0
VERTEX
  8
0
 10
130.019056
 20
81.608372
 42
0.099051
  0
VERTEX
  8
0
 10
127.792561
 20
81.608512
 42
-0.017330
  0
VERTEX
  8
0
 10
126.125608
 20
81.334814
 42
-0.207480
  0
VERTEX
  8
0
 10
125.512971
 20
81.511692
 42
-0.260530
  0
VERTEX
  8
0
 10
125.303570
 20
82.050233
 42
-0.026761
  0
VERTEX
  8
0
 10
125.574333
 20
83.440144
 42
0.050331
  0
VERTEX
  8
0
 10
125.748735
 20
84.631737
 42
0.108220
  0
VERTEX
  8
0
 10
125.591741
 20
85.541688
 42
0.114052
  0
VERTEX
  8
0
 10
125.077029
 20
86.272553
 42
0.059747
  0
VERTEX
  8
0
 10
124.160811
 20
86.913937
 42
-0.042254
  0
VERTEX
  8
0
 10
123.029757
 20
87.648286
 42
-0.291461
  0
VERTEX
  8
0
 10
122.817104
 20
88.243246
 42
-0.133193
  0
VERTEX
  8
0
 10
123.226371
 20
89.012835
 42
-0.007952
  0
VERTEX
  8
0
 10
125.073025
 20
90.919179
 42
0.022971
  0
VERTEX
  8
0
 10
126.193445
 20
92.147566
 42
0.026536
  0
VERTEX
  8
0
 10
127.140201
 20
93.417914
 42
0.027036
  0
VERTEX
  8
0
 10
127.816110
 20
94.562694
 42
0.120400
  0
VERTEX
  8
0
 10
128.000000
 20
95.315290
 42
-0.223928
  0
VERTEX
  8
0
 10
128.341242
 20
96.039030
 42
-0.052997
  0
VERTEX
  8
0
 10
129.485171
 20
96.794602
 42
-0.038469
  0
VERTEX
  8
0
 10
131.277276
 20
97.554258
 42
-0.016866
  0
VERTEX
  8
0
 10
133.750000
 20
98.292961
 42
-0.018767
  0
VERTEX
  8
0
 10
139.133401
 20
99.491375
 42
-0.054566
  0
VERTEX
  8
0
 10
142.929519
 20
99.767026
 42
-0.070231
  0
VERTEX
  8
0
 10
146.127788
 20
99.195710
 42
-0.049624
  0
SEQEND
  0
POLYLINE
  8
0
 66
1
 70
1
  0
VERTEX
  8
0
 10
94.971040
 20
98.039060
 42
-0.143461
  0
VERTEX
  8
0
 10
95.718938
 20
97.189597
 42
-0.310941
  0
VERTEX
  8
0
 10
95.582006
 20
96.372323
 42
-0.102052
  0
VERTEX
  8
0
 10
94.317502
 20
95.510078
 42
-0.015986
  0
VERTEX
  8
0
 10
91.481329
 20
94.432500
 42
-0.010161
  0
VERTEX
  8
0
 10
89.312186
 20
93.735738
 42
-0.144786
  0
VERTEX
  8
0
 10
88.507787
 20
93.733398
 42
-0.286740
  0
VERTEX
  8
0
 10
88.107523
 20
94.182793
 42
-0.042310
  0
VERTEX
  8
0
 10
88.000000
 20
95.451171
 42
-0.027344
  0
VERTEX
  8
0
 10
88.049093
 20
96.348203
 42
-0.029499
  0
VERTEX
  8
0
 10
88.195833
 20
97.211698
 42
-0.030825
  0
VERTEX
  8
0
 10
88.409413
 20
97.930195
 42
-0.109137
  0
VERTEX
  8
0
 10
88.666667
 20
98.333333
 42
-0.161038
  0
VERTEX
  8
0
 10
89.719730
 20
98.863048
 42
-0.048381
  0
VERTEX
  8
0
 10
91.535210
 20
98.953975
 42
-0.048031
  0
VERTEX
  8
0
 10
93.469319
 20
98.676224
 42
-0.081504
  0
SEQEND
  0
POLYLINE
  8
0
 66
1
 70
1
  0
VERTEX
  8
0
 10
126.000000
 20
94.654988
 42
-0.154970
  0
VERTEX
  8
0
 10
125.465735
 20
92.972613
 42
-0.078750
  0
VERTEX
  8
0
 10
123.900913
 20
91.365806
 42
-0.088901
  0
VERTEX
  8
0
 10
122.090203
 20
90.459370
 42
-0.274657
  0
VERTEX
  8
0
 10
120.816290
 20
90.783710
 42
-0.124473
  0
VERTEX
  8
0
 10
120.427874
 20
91.435039
 42
-0.170383
  0
VERTEX
  8
0
 10
120.460014
 20
92.111591
 42
-0.097703
  0
VERTEX
  8
0
 10
120.974945
 20
92.897919
 42
-0.025485
  0
VERTEX
  8
0
 10
122.089919
 20
93.926812
 42
-0.018214
  0
VERTEX
  8
0
 10
123.978607
 20
95.386244
 42
-0.109773
  0
VERTEX
  8
0
 10
125.112128
 20
95.869223
 42
-0.313214
  0
VERTEX
  8
0
 10
125.742030
 20
95.585695
 42
-0.136024
  0
SEQEND
  0
POLYLINE
  8
0
 66
1
 70
1
  0
VERTEX
  8
0
 10
96.361087
 20
90.999516
 42
-0.027984
  0
VERTEX
  8
0
 10
96.256284
 20
90.298151
 42
-0.013658
  0
VERTEX
  8
0
 10
96.048571
 20
89.417368
 42
-0.013502
  0
VERTEX
  8
0
 10
95.781988
 20
88.510527
 42
-0.019019
  0
VERTEX
  8
0
 10
95.492272
 20
87.719183
 42
0.074374
  0
VERTEX
  8
0
 10
95.261823
 20
86.779563
 42
0.343938
  0
VERTEX
  8
0
 10
95.544296
 20
86.339345
 42
0.115611
  0
VERTEX
  8
0
 10
96.414247
 20
86.245398
 42
0.008984
  0
VERTEX
  8
0
 10
98.747930
 20
86.575683
 42
-0.052482
  0
VERTEX
  8
0
 10
102.123480
 20
86.757114
 42
-0.089206
  0
VERTEX
  8
0
 10
104.869027
 20
86.116836
 42
-0.180196
  0
VERTEX
  8
0
 10
106.143368
 20
84.896833
 42
-0.293882
  0
VERTEX
  8
0
 10
105.968883
 20
83.462506
 42
-0.113004
  0
VERTEX
  8
0
 10
105.176751
 20
82.856541
 42
-0.071666
  0
VERTEX
  8
0
 10
104.056608
 20
82.528514
 42
-0.049798
  0
VERTEX
  8
0
 10
102.515527
 20
82.463321
 42
-0.019748
  0
VERTEX
  8
0
 10
100.404316
 20
82.668169
 42
0.000000
  0
VERTEX
  8
0
 10
96.000000
 20
83.271848
 42
0.000000
  0
VERTEX
  8
0
 10
96.000000
 20
78.635924
 42
-0.026941
  0
VERTEX
  8
0
 10
95.813517
 20
75.177478
 42
-0.303734
  0
VERTEX
  8
0
 10
94.974556
 20
74.176352
 42
-0.347313
  0
VERTEX
  8
0
 10
93.850423
 20
74.631897
 42
-0.030370
  0
VERTEX
  8
0
 10
92.399322
 20
77.586713
 42
0.000000
  0
VERTEX
  8
0
 10
90.900698
 20
81.173425
 42
0.000000
  0
VERTEX
  8
0
 10
88.313985
 20
78.586713
 42
-0.041311
  0
VERTEX
  8
0
 10
86.460655
 20
77.016710
 42
-0.076888
  0
VERTEX
  8
0
 10
84.706411
 20
76.132724
 42
-0.161185
  0
VERTEX
  8
0
 10
83.520188
 20
76.140221
 42
-0.321666
  0
VERTEX
  8
0
 10
83.000000
 20
76.865141
 42
-0.115806
  0
VERTEX
  8
0
 10
83.112818
 20
77.345709
 42
-0.017392
  0
VERTEX
  8
0
 10
83.587500
 20
78.223033
 42
-0.018748
  0
VERTEX
  8
0
 10
84.234226
 20
79.235972
 42
-0.015202
  0
VERTEX
  8
0
 10
85.000000
 20
80.272871
 42
0.012617
  0
VERTEX
  8
0
 10
86.549367
 20
82.348261
 42
0.141545
  0
VERTEX
  8
0
 10
86.884197
 20
83.310605
 42
0.357049
  0
VERTEX
  8
0
 10
86.500105
 20
83.834890
 42
0.063245
  0
VERTEX
  8
0
 10
85.200000
 20
84.000000
 42
-0.056383
  0
VERTEX
  8
0
 10
84.422897
 20
84.087910
 42
-0.038823
  0
VERTEX
  8
0
 10
83.576250
 20
84.352500
 42
-0.039117
  0
VERTEX
  8
0
 10
82.790842
 20
84.740359
 42
-0.062206
  0
VERTEX
  8
0
 10
82.200000
 20
85.200000
 42
-0.185040
  0
VERTEX
  8
0
 10
81.071940
 20
87.729721
 42
-0.220473
  0
VERTEX
  8
0
 10
82.033472
 20
90.133696
 42
-0.184621
  0
VERTEX
  8
0
 10
84.702288
 20
91.234402
 42
-0.148755
  0
VERTEX
  8
0
 10
87.714817
 20
90.402941
 42
0.011294
  0
VERTEX
  8
0
 10
89.609974
 20
89.261628
 42
0.178188
  0
VERTEX
  8
0
 10
90.341002
 20
89.138555
 42
0.262953
  0
VERTEX
  8
0
 10
90.826450
 20
89.547564
 42
0.025157
  0
VERTEX
  8
0
 10
91.310436
 20
91.079108
 42
-0.199006
  0
VERTEX
  8
0
 10
92.316165
 20
92.405772
 42
-0.137104
  0
VERTEX
  8
0
 10
94.163393
 20
92.890754
 42
-0.162300
  0
VERTEX
  8
0
 10
95.787593
 20
92.320683
 42
-0.256361
  0
SEQEND
  0
POLYLINE
  8
0
 66
1
 70
1
  0
VERTEX
  8
0
 10
117.078265
 20
91.405697
 42
-0.059788
  0
VERTEX
  8
0
 10
117.674968
 20
90.481465
 42
-0.194236
  0
VERTEX
  8
0
 10
117.725131
 20
89.767674
 42
-0.131207
  0
VERTEX
  8
0
 10
117.253183
 20
89.038540
 42
-0.022296
  0
VERTEX
  8
0
 10
115.965650
 20
87.974090
 42
0.037193
  0
VERTEX
  8
0
 10
114.267664
 20
86.483037
 42
0.366824
  0
VERTEX
  8
0
 10
114.203683
 20
85.604250
 42
0.302403
  0
VERTEX
  8
0
 10
115.127555
 20
85.263881
 42
0.032258
  0
VERTEX
  8
0
 10
117.426787
 20
85.972164
 42
-0.036057
  0
VERTEX
  8
0
 10
118.752795
 20
86.369651
 42
-0.055233
  0
VERTEX
  8
0
 10
119.944275
 20
86.499799
 42
-0.061501
  0
VERTEX
  8
0
 10
121.036641
 20
86.363203
 42
-0.061114
  0
VERTEX
  8
0
 10
122.065475
 20
85.964959
 42
-0.073329
  0
VERTEX
  8
0
 10
123.536265
 20
84.874929
 42
-0.256804
  0
VERTEX
  8
0
 10
123.855313
 20
83.781338
 42
-0.175204
  0
VERTEX
  8
0
 10
123.107253
 20
82.603310
 42
-0.035216
  0
VERTEX
  8
0
 10
121.006323
 20
81.203490
 42
0.023623
  0
VERTEX
  8
0
 10
118.526545
 20
79.632954
 42
0.300095
  0
VERTEX
  8
0
 10
118.140788
 20
78.655525
 42
0.375431
  0
VERTEX
  8
0
 10
118.880609
 20
78.098566
 42
0.028122
  0
VERTEX
  8
0
 10
121.585126
 20
78.449992
 42
-0.012673
  0
VERTEX
  8
0
 10
123.610831
 20
78.777109
 42
-0.118690
  0
VERTEX
  8
0
 10
124.483311
 20
78.688230
 42
-0.280640
  0
VERTEX
  8
0
 10
124.849583
 20
78.240628
 42
-0.081660
  0
VERTEX
  8
0
 10
124.826937
 20
77.311283
 42
-0.115772
  0
VERTEX
  8
0
 10
124.464656
 20
76.495303
 42
-0.098403
  0
VERTEX
  8
0
 10
123.758447
 20
75.868039
 42
-0.073509
  0
VERTEX
  8
0
 10
122.676869
 20
75.431853
 42
-0.035147
  0
VERTEX
  8
0
 10
121.195625
 20
75.183197
 42
0.020405
  0
VERTEX
  8
0
 10
119.428613
 20
74.939843
 42
0.134553
  0
VERTEX
  8
0
 10
118.630679
 20
74.559146
 42
0.226428
  0
VERTEX
  8
0
 10
118.356584
 20
73.933287
 42
0.068802
  0
VERTEX
  8
0
 10
118.536433
 20
72.885209
 42
-0.121059
  0
VERTEX
  8
0
 10
118.651683
 20
71.151709
 42
-0.117609
  0
VERTEX
  8
0
 10
117.954220
 20
69.541264
 42
-0.116356
  0
VERTEX
  8
0
 10
116.597159
 20
68.406820
 42
-0.116679
  0
VERTEX
  8
0
 10
114.877555
 20
68.000000
 42
-0.098880
  0
VERTEX
  8
0
 10
113.816445
 20
68.211917
 42
-0.157739
  0
VERTEX
  8
0
 10
113.119415
 20
68.807576
 42
-0.125429
  0
VERTEX
  8
0
 10
112.806242
 20
69.815685
 42
-0.052110
  0
VERTEX
  8
0
 10
112.881579
 20
71.250000
 42
0.276218
  0
VERTEX
  8
0
 10
112.653505
 20
71.817076
 42
0.229936
  0
VERTEX
  8
0
 10
112.006168
 20
71.946540
 42
0.099777
  0
VERTEX
  8
0
 10
110.990790
 20
71.451639
 42
0.056473
  0
VERTEX
  8
0
 10
110.000000
 20
70.500000
 42
-0.131229
  0
VERTEX
  8
0
 10
108.408491
 20
69.370749
 42
-0.104985
  0
VERTEX
  8
0
 10
106.321295
 20
69.061843
 42
-0.108212
  0
VERTEX
  8
0
 10
104.339722
 20
69.627053
 42
-0.147547
  0
VERTEX
  8
0
 10
103.035184
 20
70.934259
 42
-0.027257
  0
VERTEX
  8
0
 10
102.201526
 20
72.719414
 42
-0.214415
  0
VERTEX
  8
0
 10
102.237255
 20
73.611349
 42
-0.163399
  0
VERTEX
  8
0
 10
102.942017
 20
74.314692
 42
-0.014553
  0
VERTEX
  8
0
 10
105.250000
 20
75.376959
 42
0.014004
  0
VERTEX
  8
0
 10
107.384747
 20
76.356656
 42
0.444010
  0
VERTEX
  8
0
 10
107.525548
 20
76.852247
 42
0.171510
  0
VERTEX
  8
0
 10
106.910311
 20
77.341850
 42
0.003783
  0
VERTEX
  8
0
 10
103.250000
 20
78.574745
 42
-0.075725
  0
VERTEX
  8
0
 10
102.548184
 20
78.929910
 42
-0.420629
  0
VERTEX
  8
0
 10
102.489633
 20
79.305061
 42
-0.121627
  0
VERTEX
  8
0
 10
103.044824
 20
79.760700
 42
-0.011089
  0
VERTEX
  8
0
 10
104.688344
 20
80.500547
 42
0.034757
  0
VERTEX
  8
0
 10
106.467417
 20
81.404918
 42
0.127656
  0
VERTEX
  8
0
 10
107.345801
 20
82.298047
 42
0.111350
  0
VERTEX
  8
0
 10
107.742904
 20
83.575664
 42
0.023345
  0
VERTEX
  8
0
 10
107.820386
 20
85.931207
 42
-0.027783
  0
VERTEX
  8
0
 10
107.890213
 20
87.602655
 42
-0.028010
  0
VERTEX
  8
0
 10
108.144990
 20
89.251465
 42
-0.029170
  0
VERTEX
  8
0
 10
108.530172
 20
90.656134
 42
-0.091949
  0
VERTEX
  8
0
 10
109.004486
 20
91.505406
 42
-0.144632
  0
VERTEX
  8
0
 10
110.631931
 20
92.596959
 42
-0.079134
  0
VERTEX
  8
0
 10
113.028677
 20
92.948388
 42
-0.078661
  0
VERTEX
  8
0
 10
115.431721
 20
92.537505
 42
-0.138813
  0
SEQEND
  0
POLYLINE
  8
0
 66
1
 70
1
  0
VERTEX
  8
0
 10
80.768925
 20
83.396215
 42
-0.015431
  0
VERTEX
  8
0
 10
82.682420
 20
82.951703
 42
-0.228961
  0
VERTEX
  8
0
 10
83.190468
 20
82.515659
 42
-0.222129
  0
VERTEX
  8
0
 10
83.172990
 20
81.838449
 42
-0.014516
  0
VERTEX
  8
0
 10
82.222309
 20
80.064631
 42
0.069527
  0
VERTEX
  8
0
 10
81.308501
 20
77.791240
 42
0.129485
  0
VERTEX
  8
0
 10
81.336455
 20
75.819049
 42
0.176667
  0
VERTEX
  8
0
 10
82.277158
 20
74.505361
 42
0.151042
  0
VERTEX
  8
0
 10
83.911911
 20
74.000000
 42
-0.155670
  0
VERTEX
  8
0
 10
85.703251
 20
73.428435
 42
-0.081698
  0
VERTEX
  8
0
 10
87.381302
 20
71.765896
 42
-0.073870
  0
VERTEX
  8
0
 10
88.585698
 20
69.449839
 42
-0.083207
  0
VERTEX
  8
0
 10
89.000000
 20
66.977494
 42
-0.135485
  0
VERTEX
  8
0
 10
88.094126
 20
63.695784
 42
-0.205159
  0
VERTEX
  8
0
 10
85.730143
 20
61.981447
 42
-0.220369
  0
VERTEX
  8
0
 10
82.996759
 20
62.567121
 42
-0.148704
  0
VERTEX
  8
0
 10
81.085377
 20
65.184932
 42
0.000000
  0
VERTEX
  8
0
 10
79.975104
 20
68.369864
 42
0.000000
  0
VERTEX
  8
0
 10
76.737552
 20
63.013548
 42
-0.012138
  0
VERTEX
  8
0
 10
75.424508
 20
60.955745
 42
-0.017503
  0
VERTEX
  8
0
 10
74.157281
 20
59.207556
 42
-0.013322
  0
VERTEX
  8
0
 10
73.040102
 20
57.850844
 42
-0.196685
  0
VERTEX
  8
0
 10
72.500000
 20
57.578616
 42
-0.371660
  0
VERTEX
  8
0
 10
71.443035
 20
58.354497
 42
-0.078717
  0
VERTEX
  8
0
 10
71.272771
 20
60.825963
 42
-0.054213
  0
VERTEX
  8
0
 10
71.956336
 20
64.257174
 42
-0.041038
  0
VERTEX
  8
0
 10
73.406552
 20
67.815589
 42
0.000000
  0
VERTEX
  8
0
 10
75.930088
 20
72.795548
 42
0.000000
  0
VERTEX
  8
0
 10
72.012917
 20
70.649901
 42
-0.017207
  0
VERTEX
  8
0
 10
70.055506
 20
69.663700
 42
-0.059098
  0
VERTEX
  8
0
 10
68.704387
 20
69.224579
 42
-0.101508
  0
VERTEX
  8
0
 10
67.718853
 20
69.230636
 42
-0.145241
  0
VERTEX
  8
0
 10
66.955232
 20
69.644768
 42
-0.216179
  0
VERTEX
  8
0
 10
66.412043
 20
71.089657
 42
-0.112092
  0
VERTEX
  8
0
 10
66.973612
 20
72.975200
 42
-0.088913
  0
VERTEX
  8
0
 10
68.477566
 20
74.797157
 42
-0.085216
  0
VERTEX
  8
0
 10
70.541701
 20
76.015855
 42
0.043637
  0
VERTEX
  8
0
 10
71.577878
 20
76.517076
 42
0.100911
  0
VERTEX
  8
0
 10
72.213963
 20
77.096598
 42
0.136159
  0
VERTEX
  8
0
 10
72.463554
 20
77.759494
 42
0.114459
  0
VERTEX
  8
0
 10
72.359619
 20
78.505232
 42
-0.191042
  0
VERTEX
  8
0
 10
72.376139
 20
79.989906
 42
-0.065231
  0
VERTEX
  8
0
 10
73.464241
 20
81.895000
 42
-0.064615
  0
VERTEX
  8
0
 10
75.030085
 20
83.483331
 42
-0.167407
  0
VERTEX
  8
0
 10
76.529988
 20
84.000000
 42
-0.028499
  0
VERTEX
  8
0
 10
77.190969
 20
83.962295
 42
-0.006880
  0
VERTEX
  8
0
 10
78.278431
 20
83.822638
 42
-0.007039
  0
VERTEX
  8
0
 10
79.523648
 20
83.627348
 42
-0.006938
  0
SEQEND
  0
POLYLINE
  8
0
 66
1
 70
1
  0
VERTEX
  8
0
 10
100.701512
 20
78.750000
 42
-0.043385
  0
VERTEX
  8
0
 10
101.098373
 20
77.627533
 42
-0.068971
  0
VERTEX
  8
0
 10
101.215506
 20
76.617066
 42
-0.074602
  0
VERTEX
  8
0
 10
101.051850
 20
75.670757
 42
-0.060994
  0
VERTEX
  8
0
 10
100.612027
 20
74.741371
 42
0.241977
  0
VERTEX
  8
0
 10
100.335109
 20
71.638933
 42
0.130920
  0
VERTEX
  8
0
 10
102.702007
 20
68.500516
 42
0.129649
  0
VERTEX
  8
0
 10
106.334640
 20
66.937128
 42
0.237825
  0
VERTEX
  8
0
 10
109.321822
 20
67.921822
 42
-0.047196
  0
VERTEX
  8
0
 10
110.616001
 20
68.992298
 42
-0.421641
  0
VERTEX
  8
0
 10
111.267130
 20
68.859432
 42
-0.236865
  0
VERTEX
  8
0
 10
111.365278
 20
67.939635
 42
-0.029608
  0
VERTEX
  8
0
 10
110.525680
 20
66.049660
 42
0.019892
  0
VERTEX
  8
0
 10
109.941690
 20
64.801004
 42
0.018927
  0
VERTEX
  8
0
 10
109.448169
 20
63.489231
 42
0.019268
  0
VERTEX
  8
0
 10
109.101116
 20
62.297870
 42
0.061310
  0
VERTEX
  8
0
 10
109.000000
 20
61.476336
 42
-0.247677
  0
VERTEX
  8
0
 10
108.444052
 20
60.422861
 42
-0.224071
  0
VERTEX
  8
0
 10
107.218989
 20
60.226707
 42
-0.121396
  0
VERTEX
  8
0
 10
105.632349
 20
61.142966
 42
-0.085960
  0
VERTEX
  8
0
 10
104.408947
 20
62.806909
 42
0.000000
  0
VERTEX
  8
0
 10
103.267661
 20
65.096102
 42
0.000000
  0
VERTEX
  8
0
 10
100.154301
 20
62.476382
 42
-0.026235
  0
VERTEX
  8
0
 10
98.887437
 20
61.519196
 42
-0.036548
  0
VERTEX
  8
0
 10
97.655728
 20
60.811469
 42
-0.040056
  0
VERTEX
  8
0
 10
96.611731
 20
60.408470
 42
-0.213639
  0
VERTEX
  8
0
 10
96.020471
 20
60.487348
 42
-0.172589
  0
VERTEX
  8
0
 10
95.260240
 20
61.436332
 42
-0.094331
  0
VERTEX
  8
0
 10
95.041424
 20
62.929651
 42
-0.084612
  0
VERTEX
  8
0
 10
95.390248
 20
64.554799
 42
-0.099553
  0
VERTEX
  8
0
 10
96.250000
 20
65.870763
 42
0.037035
  0
VERTEX
  8
0
 10
96.785528
 20
66.502545
 42
0.488797
  0
VERTEX
  8
0
 10
96.712345
 20
66.756854
 42
0.148126
  0
VERTEX
  8
0
 10
96.224760
 20
66.799476
 42
0.008796
  0
VERTEX
  8
0
 10
94.765031
 20
66.466127
 42
-0.038296
  0
VERTEX
  8
0
 10
93.236585
 20
66.210755
 42
-0.152954
  0
VERTEX
  8
0
 10
92.319963
 20
66.410499
 42
-0.141925
  0
VERTEX
  8
0
 10
91.641991
 20
67.108680
 42
-0.031367
  0
VERTEX
  8
0
 10
90.945428
 20
68.643535
 42
0.023903
  0
VERTEX
  8
0
 10
90.412393
 20
69.866200
 42
0.017049
  0
VERTEX
  8
0
 10
89.705423
 20
71.182072
 42
0.017269
  0
VERTEX
  8
0
 10
88.943395
 20
72.393101
 42
0.034861
  0
VERTEX
  8
0
 10
88.247239
 20
73.279298
 42
-0.024928
  0
VERTEX
  8
0
 10
87.358660
 20
74.365363
 42
-0.158775
  0
VERTEX
  8
0
 10
87.136880
 20
75.032478
 42
-0.169927
  0
VERTEX
  8
0
 10
87.358320
 20
75.677692
 42
-0.029547
  0
VERTEX
  8
0
 10
88.226875
 20
76.655446
 42
-0.045677
  0
VERTEX
  8
0
 10
89.191755
 20
77.458481
 42
-0.268171
  0
VERTEX
  8
0
 10
89.823589
 20
77.508375
 42
-0.149909
  0
VERTEX
  8
0
 10
90.426814
 20
76.954459
 42
-0.013284
  0
VERTEX
  8
0
 10
91.435713
 20
75.124318
 42
0.039630
  0
VERTEX
  8
0
 10
92.232207
 20
73.843866
 42
0.054793
  0
VERTEX
  8
0
 10
93.148964
 20
72.850202
 42
0.064869
  0
VERTEX
  8
0
 10
94.106489
 20
72.213790
 42
0.114761
  0
VERTEX
  8
0
 10
95.025680
 20
72.000000
 42
0.105770
  0
VERTEX
  8
0
 10
96.042969
 20
72.217633
 42
0.186062
  0
VERTEX
  8
0
 10
96.640316
 20
72.819816
 42
0.089542
  0
VERTEX
  8
0
 10
96.930625
 20
74.033207
 42
0.014059
  0
VERTEX
  8
0
 10
97.000000
 20
76.500000
 42
-0.041466
  0
VERTEX
  8
0
 10
97.256241
 20
79.584474
 42
-0.218074
  0
VERTEX
  8
0
 10
98.185525
 20
80.956914
 42
-0.365638
  0
VERTEX
  8
0
 10
99.407259
 20
80.766144
 42
-0.072191
  0
SEQEND
  0
POLYLINE
  8
0
 66
1
 70
1
  0
VERTEX
  8
0
 10
131.000000
 20
77.622445
 42
-0.086594
  0
VERTEX
  8
0
 10
130.892217
 20
77.004766
 42
-0.043540
  0
VERTEX
  8
0
 10
130.559375
 20
76.283860
 42
-0.041499
  0
VERTEX
  8
0
 10
130.073942
 20
75.578122
 42
-0.048188
  0
VERTEX
  8
0
 10
129.500000
 20
75.000000
 42
0.059328
  0
VERTEX
  8
0
 10
128.211698
 20
73.643329
 42
0.346938
  0
VERTEX
  8
0
 10
128.236363
 20
72.724948
 42
0.195285
  0
VERTEX
  8
0
 10
129.332768
 20
72.139657
 42
0.026162
  0
VERTEX
  8
0
 10
132.000000
 20
72.000000
 42
-0.022297
  0
VERTEX
  8
0
 10
133.740619
 20
71.922340
 42
-0.056324
  0
VERTEX
  8
0
 10
134.980769
 20
71.668750
 42
-0.092594
  0
VERTEX
  8
0
 10
135.734905
 20
71.257846
 42
-0.225521
  0
VERTEX
  8
0
 10
136.000000
 20
70.700000
 42
-0.191336
  0
VERTEX
  8
0
 10
135.190243
 20
68.661414
 42
-0.126128
  0
VERTEX
  8
0
 10
133.031459
 20
67.296932
 42
-0.118040
  0
VERTEX
  8
0
 10
130.363696
 20
67.089129
 42
-0.158339
  0
VERTEX
  8
0
 10
128.216667
 20
68.183333
 42
0.054659
  0
VERTEX
  8
0
 10
127.714350
 20
68.586380
 42
0.074316
  0
VERTEX
  8
0
 10
127.184150
 20
68.822275
 42
0.093887
  0
VERTEX
  8
0
 10
126.709618
 20
68.861769
 42
0.171967
  0
VERTEX
  8
0
 10
126.363420
 20
68.696753
 42
0.359207
  0
VERTEX
  8
0
 10
126.318565
 20
68.229433
 42
0.019596
  0
VERTEX
  8
0
 10
127.257184
 20
66.950718
 42
0.023159
  0
VERTEX
  8
0
 10
128.610980
 20
65.403121
 42
0.013994
  0
VERTEX
  8
0
 10
130.346753
 20
63.693532
 42
-0.016735
  0
VERTEX
  8
0
 10
132.646261
 20
61.403752
 42
-0.048313
  0
VERTEX
  8
0
 10
134.018940
 20
59.625914
 42
-0.068244
  0
VERTEX
  8
0
 10
134.749914
 20
58.009389
 42
-0.072224
  0
VERTEX
  8
0
 10
135.000000
 20
56.287102
 42
-0.083361
  0
VERTEX
  8
0
 10
134.645232
 20
54.173995
 42
-0.152618
  0
VERTEX
  8
0
 10
133.617882
 20
52.781331
 42
-0.174009
  0
VERTEX
  8
0
 10
132.089279
 20
52.328908
 42
-0.113836
  0
VERTEX
  8
0
 10
130.306567
 20
52.848312
 42
-0.091770
  0
VERTEX
  8
0
 10
129.558768
 20
53.469573
 42
-0.016975
  0
VERTEX
  8
0
 10
128.455737
 20
54.889087
 42
-0.017701
  0
VERTEX
  8
0
 10
127.265813
 20
56.661504
 42
-0.015319
  0
VERTEX
  8
0
 10
126.142510
 20
58.599907
 42
0.017615
  0
VERTEX
  8
0
 10
124.598570
 20
61.236201
 42
0.070476
  0
VERTEX
  8
0
 10
123.388278
 20
62.656467
 42
0.099896
  0
VERTEX
  8
0
 10
122.061884
 20
63.425095
 42
0.057550
  0
VERTEX
  8
0
 10
120.250000
 20
63.813358
 42
-0.017370
  0
VERTEX
  8
0
 10
117.809244
 20
64.134584
 42
-0.281085
  0
VERTEX
  8
0
 10
117.208591
 20
64.654658
 42
-0.235329
  0
VERTEX
  8
0
 10
117.339155
 20
65.500778
 42
-0.012793
  0
VERTEX
  8
0
 10
119.000000
 20
67.727129
 42
0.030484
  0
VERTEX
  8
0
 10
119.765449
 20
68.832725
 42
0.028235
  0
VERTEX
  8
0
 10
120.412500
 20
70.051206
 42
0.029381
  0
VERTEX
  8
0
 10
120.862721
 20
71.201853
 42
0.078716
  0
VERTEX
  8
0
 10
121.000000
 20
72.068436
 42
-0.108554
  0
VERTEX
  8
0
 10
121.178041
 20
72.878830
 42
-0.121247
  0
VERTEX
  8
0
 10
121.676195
 20
73.502675
 42
-0.092786
  0
VERTEX
  8
0
 10
122.527309
 20
73.935652
 42
-0.042776
  0
VERTEX
  8
0
 10
123.750000
 20
74.183578
 42
0.047288
  0
VERTEX
  8
0
 10
125.039515
 20
74.457168
 42
0.098515
  0
VERTEX
  8
0
 10
125.937353
 20
74.947622
 42
0.111520
  0
VERTEX
  8
0
 10
126.510665
 20
75.698169
 42
0.072404
  0
VERTEX
  8
0
 10
126.819551
 20
76.750000
 42
-0.162978
  0
VERTEX
  8
0
 10
127.548339
 20
78.205587
 42
-0.145449
  0
VERTEX
  8
0
 10
129.041289
 20
79.010781
 42
-0.201917
  0
VERTEX
  8
0
 10
130.401348
 20
78.745359
 42
-0.249913
  0
SEQEND
  0
POLYLINE
  8
0
 66
1
 70
1
  0
VERTEX
  8
0
 10
166.147358
 20
62.985442
 42
0.034588
  0
VERTEX
  8
0
 10
164.547559
 20
60.475685
 42
0.264968
  0
VERTEX
  8
0
 10
164.574049
 20
59.130588
 42
0.354459
  0
VERTEX
  8
0
 10
165.648499
 20
58.736203
 42
0.046074
  0
VERTEX
  8
0
 10
168.041395
 20
59.809335
 42
-0.015155
  0
VERTEX
  8
0
 10
169.738821
 20
60.700279
 42
-0.097948
  0
VERTEX
  8
0
 10
170.669530
 20
60.945647
 42
-0.184748
  0
VERTEX
  8
0
 10
171.334120
 20
60.737966
 42
-0.085279
  0
VERTEX
  8
0
 10
171.949274
 20
60.053882
 42
-0.145629
  0
VERTEX
  8
0
 10
172.331010
 20
58.690604
 42
-0.093796
  0
VERTEX
  8
0
 10
171.997390
 20
57.071845
 42
-0.090098
  0
VERTEX
  8
0
 10
171.073507
 20
55.630479
 42
-0.119496
  0
VERTEX
  8
0
 10
169.777780
 20
54.775594
 42
-0.086884
  0
VERTEX
  8
0
 10
169.075672
 20
54.653613
 42
-0.022303
  0
VERTEX
  8
0
 10
167.920660
 20
54.706680
 42
-0.022026
  0
VERTEX
  8
0
 10
166.587973
 20
54.887094
 42
-0.020788
  0
VERTEX
  8
0
 10
165.250000
 20
55.186537
 42
-0.032100
  0
VERTEX
  8
0
 10
163.507231
 20
55.775552
 42
-0.122339
  0
VERTEX
  8
0
 10
162.589187
 20
56.449945
 42
-0.133221
  0
VERTEX
  8
0
 10
162.135839
 20
57.441391
 42
-0.041021
  0
VERTEX
  8
0
 10
162.000000
 20
59.094333
 42
-0.070276
  0
VERTEX
  8
0
 10
162.497646
 20
62.617512
 42
-0.081095
  0
VERTEX
  8
0
 10
163.948768
 20
65.680168
 42
-0.130066
  0
VERTEX
  8
0
 10
165.778956
 20
67.246284
 42
-0.318818
  0
VERTEX
  8
0
 10
167.434775
 20
66.965225
 42
-0.197279
  0
VERTEX
  8
0
 10
167.686321
 20
66.363300
 42
-0.079958
  0
VERTEX
  8
0
 10
167.548007
 20
65.468064
 42
-0.054872
  0
VERTEX
  8
0
 10
167.035595
 20
64.328294
 42
-0.026132
  0
SEQEND
  0
POLYLINE
  8
0
 66
1
 70
1
  0
VERTEX
  8
0
 10
117.023974
 20
59.656220
 42
-0.107057
  0
VERTEX
  8
0
 10
116.579788
 20
59.357799
 42
-0.049042
  0
VERTEX
  8
0
 10
115.905563
 20
59.163728
 42
-0.045469
  0
VERTEX
  8
0
 10
115.126439
 20
59.092330
 42
-0.047026
  0
VERTEX
  8
0
 10
114.356220
 20
59.164536
 42
-0.118645
  0
VERTEX
  8
0
 10
113.471476
 20
59.563511
 42
-0.112609
  0
VERTEX
  8
0
 10
112.844859
 20
60.327868
 42
-0.072547
  0
VERTEX
  8
0
 10
112.433293
 20
61.579947
 42
-0.023874
  0
VERTEX
  8
0
 10
112.190983
 20
63.508317
 42
0.000000
  0
VERTEX
  8
0
 10
111.881966
 20
67.500000
 42
0.000000
  0
VERTEX
  8
0
 10
114.858737
 20
64.000000
 42
-0.023884
  0
VERTEX
  8
0
 10
115.940403
 20
62.597704
 42
-0.036728
  0
VERTEX
  8
0
 10
116.722693
 20
61.280265
 42
-0.041343
  0
VERTEX
  8
0
 10
117.153845
 20
60.200118
 42
-0.272205
  0
SEQEND
  0
POLYLINE
  8
0
 66
1
 70
1
  0
VERTEX
  8
0
 10
154.387664
 20
58.641321
 42
-0.014828
  0
VERTEX
  8
0
 10
153.818633
 20
54.788921
 42
-0.147489
  0
VERTEX
  8
0
 10
153.088666
 20
53.348915
 42
-0.433752
  0
VERTEX
  8
0
 10
152.175046
 20
53.357831
 42
-0.062863
  0
VERTEX
  8
0
 10
150.968611
 20
55.058652
 42
-0.109263
  0
VERTEX
  8
0
 10
150.347404
 20
57.271058
 42
-0.065604
  0
VERTEX
  8
0
 10
150.552570
 20
60.003406
 42
-0.067541
  0
VERTEX
  8
0
 10
151.431817
 20
62.482334
 42
-0.147268
  0
VERTEX
  8
0
 10
152.819816
 20
63.919040
 42
-0.018983
  0
VERTEX
  8
0
 10
153.477782
 20
64.255124
 42
-0.028348
  0
VERTEX
  8
0
 10
154.078009
 20
64.493197
 42
-0.027402
  0
VERTEX
  8
0
 10
154.564997
 20
64.625950
 42
-0.254474
  0
VERTEX
  8
0
 10
154.767015
 20
64.566319
 42
-0.212169
  0
VERTEX
  8
0
 10
154.864749
 20
64.312276
 42
-0.003265
  0
VERTEX
  8
0
 10
154.772597
 20
62.708835
 42
-0.008082
  0
VERTEX
  8
0
 10
154.621299
 20
60.824086
 42
-0.005182
  0
SEQEND
  0
POLYLINE
  8
0
 66
1
 70
1
  0
VERTEX
  8
0
 10
93.000000
 20
62.122445
 42
0.113476
  0
VERTEX
  8
0
 10
93.442429
 20
60.198113
 42
0.143061
  0
VERTEX
  8
0
 10
94.664113
 20
58.849797
 42
0.139638
  0
VERTEX
  8
0
 10
96.444710
 20
58.351332
 42
0.106146
  0
VERTEX
  8
0
 10
98.433613
 20
58.787798
 42
-0.039094
  0
VERTEX
  8
0
 10
99.732209
 20
59.260909
 42
-0.115709
  0
VERTEX
  8
0
 10
100.674126
 20
59.299395
 42
-0.119209
  0
VERTEX
  8
0
 10
101.518279
 20
58.915458
 42
-0.042796
  0
VERTEX
  8
0
 10
102.491652
 20
58.009224
 42
-0.094107
  0
VERTEX
  8
0
 10
103.554733
 20
56.267102
 42
-0.121775
  0
VERTEX
  8
0
 10
103.774202
 20
54.413993
 42
-0.164729
  0
VERTEX
  8
0
 10
103.109438
 20
53.041326
 42
-0.198989
  0
VERTEX
  8
0
 10
101.800762
 20
52.487369
 42
0.093274
  0
VERTEX
  8
0
 10
100.996488
 20
52.329697
 42
0.032112
  0
VERTEX
  8
0
 10
99.921334
 20
51.818535
 42
0.030598
  0
VERTEX
  8
0
 10
98.780934
 20
51.088896
 42
0.030968
  0
VERTEX
  8
0
 10
97.742932
 20
50.228223
 42
-0.039559
  0
VERTEX
  8
0
 10
96.029966
 20
48.856809
 42
-0.224438
  0
VERTEX
  8
0
 10
94.906048
 20
48.681796
 42
-0.273284
  0
VERTEX
  8
0
 10
94.206728
 20
49.432201
 42
-0.054212
  0
VERTEX
  8
0
 10
94.000000
 20
51.333277
 42
0.130579
  0
VERTEX
  8
0
 10
93.803238
 20
52.073850
 42
0.410285
  0
VERTEX
  8
0
 10
93.355468
 20
52.199094
 42
0.080373
  0
VERTEX
  8
0
 10
92.481023
 20
51.511495
 42
0.007809
  0
VERTEX
  8
0
 10
90.682141
 20
49.495023
 42
-0.035237
  0
VERTEX
  8
0
 10
87.586986
 20
46.386594
 42
-0.367247
  0
VERTEX
  8
0
 10
85.917890
 20
46.364596
 42
-0.288757
  0
VERTEX
  8
0
 10
85.320760
 20
48.179603
 42
-0.028783
  0
VERTEX
  8
0
 10
86.744216
 20
52.750000
 42
0.177439
  0
VERTEX
  8
0
 10
86.748529
 20
53.272279
 42
0.176450
  0
VERTEX
  8
0
 10
86.414461
 20
53.675178
 42
0.097920
  0
VERTEX
  8
0
 10
85.696639
 20
53.924265
 42
0.034710
  0
VERTEX
  8
0
 10
84.606989
 20
54.000000
 42
-0.023599
  0
VERTEX
  8
0
 10
83.607897
 20
54.047182
 42
-0.037670
  0
VERTEX
  8
0
 10
82.765803
 20
54.191460
 42
-0.043823
  0
VERTEX
  8
0
 10
82.163628
 20
54.399458
 42
-0.295862
  0
VERTEX
  8
0
 10
82.000000
 20
54.651779
 42
-0.197621
  0
VERTEX
  8
0
 10
82.526573
 20
55.932026
 42
-0.007061
  0
VERTEX
  8
0
 10
86.395409
 20
59.730689
 42
-0.007544
  0
VERTEX
  8
0
 10
90.353244
 20
63.395960
 42
-0.176428
  0
VERTEX
  8
0
 10
91.750000
 20
63.958202
 42
-0.150382
  0
VERTEX
  8
0
 10
92.226518
 20
63.828831
 42
-0.102700
  0
VERTEX
  8
0
 10
92.632812
 20
63.436190
 42
-0.084719
  0
VERTEX
  8
0
 10
92.906659
 20
62.837138
 42
-0.065025
  0
SEQEND
  0
POLYLINE
  8
0
 66
1
 70
1
  0
VERTEX
  8
0
 10
160.658918
 20
59.750000
 42
-0.038939
  0
VERTEX
  8
0
 10
160.495169
 20
56.370953
 42
-0.104400
  0
VERTEX
  8
0
 10
159.708938
 20
54.107406
 42
-0.430942
  0
VERTEX
  8
0
 10
158.742905
 20
53.896796
 42
-0.176407
  0
VERTEX
  8
0
 10
157.867081
 20
55.117272
 42
-0.023379
  0
VERTEX
  8
0
 10
157.603600
 20
56.260712
 42
-0.011080
  0
VERTEX
  8
0
 10
157.366222
 20
57.754761
 42
-0.010955
  0
VERTEX
  8
0
 10
157.186491
 20
59.331531
 42
-0.015233
  0
VERTEX
  8
0
 10
157.099680
 20
60.750000
 42
-0.025804
  0
VERTEX
  8
0
 10
157.133266
 20
62.354045
 42
-0.100704
  0
VERTEX
  8
0
 10
157.399589
 20
63.304267
 42
-0.166868
  0
VERTEX
  8
0
 10
157.930340
 20
63.814931
 42
-0.109288
  0
VERTEX
  8
0
 10
158.766932
 20
64.000000
 42
-0.133765
  0
VERTEX
  8
0
 10
159.632821
 20
63.764128
 42
-0.156269
  0
VERTEX
  8
0
 10
160.198140
 20
63.130981
 42
-0.080115
  0
VERTEX
  8
0
 10
160.519470
 20
61.917916
 42
-0.017411
  0
SEQEND
  0
POLYLINE
  8
0
 66
1
 70
1
  0
VERTEX
  8
0
 10
124.008387
 20
56.979752
 42
0.041317
  0
VERTEX
  8
0
 10
124.693421
 20
55.648642
 42
0.022683
  0
VERTEX
  8
0
 10
125.733978
 20
54.138161
 42
0.022469
  0
VERTEX
  8
0
 10
126.936814
 20
52.691181
 42
0.033222
  0
VERTEX
  8
0
 10
128.125977
 20
51.547451
 42
-0.014129
  0
VERTEX
  8
0
 10
129.770080
 20
50.082729
 42
-0.125480
  0
VERTEX
  8
0
 10
130.285411
 20
49.270046
 42
-0.222453
  0
VERTEX
  8
0
 10
130.194973
 20
48.534316
 42
-0.056387
  0
VERTEX
  8
0
 10
129.424841
 20
47.567699
 42
-0.040510
  0
VERTEX
  8
0
 10
128.136736
 20
46.472968
 42
-0.138405
  0
VERTEX
  8
0
 10
127.112939
 20
46.101126
 42
-0.090624
  0
VERTEX
  8
0
 10
125.805833
 20
46.242095
 42
-0.011811
  0
VERTEX
  8
0
 10
123.128114
 20
47.105184
 42
-0.107956
  0
VERTEX
  8
0
 10
120.044187
 20
48.998109
 42
-0.125933
  0
VERTEX
  8
0
 10
118.238301
 20
51.912986
 42
-0.133265
  0
VERTEX
  8
0
 10
118.109272
 20
55.207231
 42
-0.128130
  0
VERTEX
  8
0
 10
119.654988
 20
58.171259
 42
-0.035445
  0
VERTEX
  8
0
 10
121.163026
 20
59.617181
 42
-0.244893
  0
VERTEX
  8
0
 10
122.132964
 20
59.827143
 42
-0.205383
  0
VERTEX
  8
0
 10
122.975540
 20
59.156467
 42
-0.025175
  0
SEQEND
  0
POLYLINE
  8
0
 66
1
 70
1
  0
VERTEX
  8
0
 10
187.000000
 20
56.508021
 42
-0.137165
  0
VERTEX
  8
0
 10
186.831471
 20
55.905249
 42
-0.040891
  0
VERTEX
  8
0
 10
186.265625
 20
55.124252
 42
-0.037624
  0
VERTEX
  8
0
 10
185.456772
 20
54.313039
 42
-0.032912
  0
VERTEX
  8
0
 10
184.500000
 20
53.591957
 42
0.033256
  0
VERTEX
  8
0
 10
182.524369
 20
52.100872
 42
0.266137
  0
VERTEX
  8
0
 10
182.160806
 20
51.065082
 42
0.265506
  0
VERTEX
  8
0
 10
182.870249
 20
50.225679
 42
0.033137
  0
VERTEX
  8
0
 10
185.250000
 20
49.531508
 42
0.000000
  0
VERTEX
  8
0
 10
188.500000
 20
48.813017
 42
0.000000
  0
VERTEX
  8
0
 10
185.750000
 20
47.823175
 42
0.051717
  0
VERTEX
  8
0
 10
183.709764
 20
46.840532
 42
0.283542
  0
VERTEX
  8
0
 10
183.184006
 20
45.795249
 42
0.170815
  0
VERTEX
  8
0
 10
183.798444
 20
44.437314
 42
0.019579
  0
VERTEX
  8
0
 10
186.249311
 20
42.068548
 42
-0.023257
  0
VERTEX
  8
0
 10
187.439822
 20
40.900866
 42
-0.037927
  0
VERTEX
  8
0
 10
188.320963
 20
39.794947
 42
-0.044931
  0
VERTEX
  8
0
 10
188.827726
 20
38.882856
 42
-0.310085
  0
VERTEX
  8
0
 10
188.738880
 20
38.405547
 42
-0.286112
  0
VERTEX
  8
0
 10
188.255403
 20
38.293331
 42
-0.045445
  0
VERTEX
  8
0
 10
187.326104
 20
38.708439
 42
-0.038740
  0
VERTEX
  8
0
 10
186.194394
 20
39.463508
 42
-0.024549
  0
VERTEX
  8
0
 10
184.996303
 20
40.503542
 42
0.000000
  0
VERTEX
  8
0
 10
182.013467
 20
43.361280
 42
0.000000
  0
VERTEX
  8
0
 10
179.692282
 20
41.180640
 42
-0.032892
  0
VERTEX
  8
0
 10
177.831249
 20
39.649575
 42
-0.124387
  0
VERTEX
  8
0
 10
176.438958
 20
39.101268
 42
-0.215967
  0
VERTEX
  8
0
 10
175.397258
 20
39.420924
 42
-0.120896
  0
VERTEX
  8
0
 10
174.626700
 20
40.530420
 42
-0.128426
  0
VERTEX
  8
0
 10
174.545132
 20
41.262553
 42
-0.120136
  0
VERTEX
  8
0
 10
174.827393
 20
41.961874
 42
-0.088196
  0
VERTEX
  8
0
 10
175.496319
 20
42.613254
 42
-0.042187
  0
VERTEX
  8
0
 10
176.545607
 20
43.202734
 42
0.067007
  0
VERTEX
  8
0
 10
178.277249
 20
44.291621
 42
0.309864
  0
VERTEX
  8
0
 10
178.581432
 20
45.371036
 42
0.212011
  0
VERTEX
  8
0
 10
177.648302
 20
46.384573
 42
0.038843
  0
VERTEX
  8
0
 10
175.181981
 20
47.232650
 42
-0.029835
  0
VERTEX
  8
0
 10
173.963501
 20
47.627268
 42
-0.041554
  0
VERTEX
  8
0
 10
172.934707
 20
48.131756
 42
-0.047849
  0
VERTEX
  8
0
 10
172.210283
 20
48.665062
 42
-0.213293
  0
VERTEX
  8
0
 10
172.000000
 20
49.135581
 42
-0.180094
  0
VERTEX
  8
0
 10
172.137722
 20
49.505542
 42
-0.165230
  0
VERTEX
  8
0
 10
172.489227
 20
49.711759
 42
-0.102373
  0
VERTEX
  8
0
 10
173.046966
 20
49.711216
 42
-0.046125
  0
VERTEX
  8
0
 10
173.750000
 20
49.495902
 42
0.034151
  0
VERTEX
  8
0
 10
176.148072
 20
48.698268
 42
0.168521
  0
VERTEX
  8
0
 10
177.546753
 20
48.811915
 42
0.211413
  0
VERTEX
  8
0
 10
178.388686
 20
49.735605
 42
0.056598
  0
VERTEX
  8
0
 10
178.811557
 20
51.725840
 42
-0.052145
  0
VERTEX
  8
0
 10
179.110052
 20
53.194749
 42
-0.047986
  0
VERTEX
  8
0
 10
179.711122
 20
54.614139
 42
-0.048211
  0
VERTEX
  8
0
 10
180.568270
 20
55.886534
 42
-0.053829
  0
VERTEX
  8
0
 10
181.625380
 20
56.919964
 42
-0.067447
  0
VERTEX
  8
0
 10
183.510278
 20
58.028989
 42
-0.118965
  0
VERTEX
  8
0
 10
185.283536
 20
58.315739
 42
-0.184440
  0
VERTEX
  8
0
 10
186.505036
 20
57.738775
 42
-0.193549
  0
SEQEND
  0
POLYLINE
  8
0
 66
1
 70
1
  0
VERTEX
  8
0
 10
113.364181
 20
56.879929
 42
-0.068047
  0
VERTEX
  8
0
 10
114.472902
 20
56.179539
 42
-0.066631
  0
VERTEX
  8
0
 10
115.361960
 20
55.202794
 42
-0.061056
  0
VERTEX
  8
0
 10
116.020888
 20
53.947580
 42
-0.044029
  0
VERTEX
  8
0
 10
116.448419
 20
52.423260
 42
0.091514
  0
VERTEX
  8
0
 10
117.520263
 20
49.643034
 42
0.076450
  0
VERTEX
  8
0
 10
119.568968
 20
47.225914
 42
0.077822
  0
VERTEX
  8
0
 10
122.209338
 20
45.571368
 42
0.101456
  0
VERTEX
  8
0
 10
124.996187
 20
45.000000
 42
-0.029337
  0
VERTEX
  8
0
 10
126.485514
 20
44.912540
 42
-0.179330
  0
VERTEX
  8
0
 10
127.160097
 20
44.568006
 42
-0.198687
  0
VERTEX
  8
0
 10
127.408620
 20
43.890214
 42
-0.037033
  0
VERTEX
  8
0
 10
127.253563
 20
42.546099
 42
0.048304
  0
VERTEX
  8
0
 10
127.133610
 20
41.250911
 42
0.154778
  0
VERTEX
  8
0
 10
127.395989
 20
40.435468
 42
0.140373
  0
VERTEX
  8
0
 10
128.100723
 20
39.873167
 42
0.037173
  0
VERTEX
  8
0
 10
129.481155
 20
39.415374
 42
0.068865
  0
VERTEX
  8
0
 10
133.394292
 20
38.989557
 42
0.033169
  0
VERTEX
  8
0
 10
138.426207
 20
39.471248
 42
0.032957
  0
VERTEX
  8
0
 10
143.486097
 20
40.643405
 42
0.054084
  0
VERTEX
  8
0
 10
147.529058
 20
42.360350
 42
0.000000
  0
VERTEX
  8
0
 10
152.000000
 20
44.859207
 42
0.000000
  0
VERTEX
  8
0
 10
152.000000
 20
39.639702
 42
0.036729
  0
VERTEX
  8
0
 10
152.361651
 20
34.723083
 42
0.021648
  0
VERTEX
  8
0
 10
153.475441
 20
28.936064
 42
0.021129
  0
VERTEX
  8
0
 10
154.997283
 20
23.556277
 42
0.065466
  0
VERTEX
  8
0
 10
156.630767
 20
20.163236
 42
-0.026025
  0
VERTEX
  8
0
 10
157.175764
 20
19.227469
 42
-0.037981
  0
VERTEX
  8
0
 10
157.546627
 20
18.348874
 42
-0.042712
  0
VERTEX
  8
0
 10
157.720593
 20
17.632162
 42
-0.238934
  0
VERTEX
  8
0
 10
157.601429
 20
17.268096
 42
-0.237222
  0
VERTEX
  8
0
 10
156.494863
 20
16.901926
 42
-0.003321
  0
VERTEX
  8
0
 10
149.333204
 20
18.005643
 42
-0.007232
  0
VERTEX
  8
0
 10
142.596450
 20
19.189941
 42
-0.070145
  0
VERTEX
  8
0
 10
139.858402
 20
20.123339
 42
-0.042382
  0
VERTEX
  8
0
 10
138.925817
 20
20.699380
 42
-0.005969
  0
VERTEX
  8
0
 10
137.124993
 20
22.068294
 42
-0.006775
  0
VERTEX
  8
0
 10
135.030307
 20
23.746515
 42
-0.005716
  0
VERTEX
  8
0
 10
132.858402
 20
25.577529
 42
0.011523
  0
VERTEX
  8
0
 10
130.566271
 20
27.464803
 42
0.010391
  0
VERTEX
  8
0
 10
128.110425
 20
29.312461
 42
0.010474
  0
VERTEX
  8
0
 10
125.840409
 20
30.876399
 42
0.032184
  0
VERTEX
  8
0
 10
124.219640
 20
31.800050
 42
-0.032576
  0
VERTEX
  8
0
 10
122.941888
 20
32.529548
 42
-0.055636
  0
VERTEX
  8
0
 10
121.999339
 20
33.315509
 42
-0.075482
  0
VERTEX
  8
0
 10
121.468847
 20
34.068248
 42
-0.210435
  0
VERTEX
  8
0
 10
121.438255
 20
34.699690
 42
0.236766
  0
VERTEX
  8
0
 10
121.357241
 20
35.518980
 42
0.261401
  0
VERTEX
  8
0
 10
120.662384
 20
35.894897
 42
0.079379
  0
VERTEX
  8
0
 10
119.064581
 20
35.614238
 42
0.018198
  0
VERTEX
  8
0
 10
116.500000
 20
34.623372
 42
-0.041901
  0
VERTEX
  8
0
 10
114.974024
 20
34.115413
 42
-0.041039
  0
VERTEX
  8
0
 10
113.374038
 20
33.864502
 42
-0.039879
  0
VERTEX
  8
0
 10
111.711669
 20
33.874798
 42
-0.035236
  0
VERTEX
  8
0
 10
110.000000
 20
34.144620
 42
0.024474
  0
VERTEX
  8
0
 10
106.890861
 20
34.703496
 42
0.024960
  0
VERTEX
  8
0
 10
103.762373
 20
34.951175
 42
0.029226
  0
VERTEX
  8
0
 10
101.444094
 20
34.883135
 42
0.636891
  0
VERTEX
  8
0
 10
101.267928
 20
34.398739
 42
0.133342
  0
VERTEX
  8
0
 10
101.736952
 20
34.130021
 42
0.008938
  0
VERTEX
  8
0
 10
103.253969
 20
33.763152
 42
0.012362
  0
VERTEX
  8
0
 10
105.104683
 20
33.398229
 42
0.008918
  0
VERTEX
  8
0
 10
107.184594
 20
33.079361
 42
0.000000
  0
VERTEX
  8
0
 10
112.500000
 20
32.361244
 42
0.000000
  0
VERTEX
  8
0
 10
108.037513
 20
31.084861
 42
-0.025928
  0
VERTEX
  8
0
 10
105.238625
 20
30.439131
 42
-0.085016
  0
VERTEX
  8
0
 10
103.347371
 20
30.429157
 42
-0.064262
  0
VERTEX
  8
0
 10
101.290169
 20
31.049100
 42
-0.010618
  0
VERTEX
  8
0
 10
97.537513
 20
32.826241
 42
0.006439
  0
VERTEX
  8
0
 10
95.042683
 20
34.033344
 42
0.006610
  0
VERTEX
  8
0
 10
92.539144
 20
35.165014
 42
0.006428
  0
VERTEX
  8
0
 10
90.342664
 20
36.089699
 42
0.027573
  0
VERTEX
  8
0
 10
89.000000
 20
36.550313
 42
-0.021705
  0
VERTEX
  8
0
 10
87.775919
 20
36.954264
 42
-0.008256
  0
VERTEX
  8
0
 10
86.105362
 20
37.618926
 42
-0.008159
  0
VERTEX
  8
0
 10
84.311273
 20
38.401887
 42
-0.009892
  0
VERTEX
  8
0
 10
82.656550
 20
39.196309
 42
-0.009136
  0
VERTEX
  8
0
 10
80.219899
 20
40.482409
 42
-0.146480
  0
VERTEX
  8
0
 10
79.574495
 20
41.140084
 42
-0.276416
  0
VERTEX
  8
0
 10
79.613154
 20
41.851685
 42
-0.035496
  0
VERTEX
  8
0
 10
80.595822
 20
43.105883
 42
-0.052806
  0
VERTEX
  8
0
 10
81.565318
 20
43.973010
 42
-0.079713
  0
VERTEX
  8
0
 10
82.575853
 20
44.480133
 42
-0.079234
  0
VERTEX
  8
0
 10
83.698887
 20
44.647437
 42
-0.051534
  0
VERTEX
  8
0
 10
85.004887
 20
44.498927
 42
0.059523
  0
VERTEX
  8
0
 10
86.335003
 20
44.369098
 42
0.063479
  0
VERTEX
  8
0
 10
87.628348
 20
44.562443
 42
0.058333
  0
VERTEX
  8
0
 10
88.919843
 20
45.095911
 42
0.039587
  0
VERTEX
  8
0
 10
90.245720
 20
45.978643
 42
-0.028245
  0
VERTEX
  8
0
 10
91.367456
 20
46.762714
 42
-0.060966
  0
VERTEX
  8
0
 10
92.322579
 20
47.202818
 42
-0.096969
  0
VERTEX
  8
0
 10
93.045749
 20
47.287574
 42
-0.239571
  0
VERTEX
  8
0
 10
93.489122
 20
47.017601
 42
0.135737
  0
VERTEX
  8
0
 10
94.311874
 20
46.255118
 42
0.189447
  0
VERTEX
  8
0
 10
95.299488
 20
46.152915
 42
0.089753
  0
VERTEX
  8
0
 10
96.662395
 20
46.811891
 42
0.017530
  0
VERTEX
  8
0
 10
98.817631
 20
48.500000
 42
-0.022580
  0
VERTEX
  8
0
 10
100.065088
 20
49.456919
 42
-0.024813
  0
VERTEX
  8
0
 10
101.356187
 20
50.265625
 42
-0.025282
  0
VERTEX
  8
0
 10
102.518323
 20
50.840557
 42
-0.102573
  0
VERTEX
  8
0
 10
103.287367
 20
51.000000
 42
0.165145
  0
VERTEX
  8
0
 10
104.380629
 20
51.371217
 42
0.106856
  0
VERTEX
  8
0
 10
105.252746
 20
52.399889
 42
0.078068
  0
VERTEX
  8
0
 10
105.815134
 20
54.018009
 42
0.044699
  0
VERTEX
  8
0
 10
106.000000
 20
56.081787
 42
-0.231123
  0
VERTEX
  8
0
 10
106.619089
 20
57.349549
 42
-0.139468
  0
VERTEX
  8
0
 10
108.201189
 20
57.990849
 42
-0.086405
  0
VERTEX
  8
0
 10
110.590467
 20
57.836712
 42
-0.047716
  0
SEQEND
  0
POLYLINE
  8
0
 66
1
 70
1
  0
VERTEX
  8
0
 10
169.937240
 20
50.424379
 42
0.116509
  0
VERTEX
  8
0
 10
169.547352
 20
49.638924
 42
0.153128
  0
VERTEX
  8
0
 10
169.607068
 20
48.845423
 42
0.088953
  0
VERTEX
  8
0
 10
170.185989
 20
47.914705
 42
0.022379
  0
VERTEX
  8
0
 10
171.445013
 20
46.638541
 42
0.000000
  0
VERTEX
  8
0
 10
174.073247
 20
44.202776
 42
0.000000
  0
VERTEX
  8
0
 10
171.401765
 20
42.101388
 42
-0.035086
  0
VERTEX
  8
0
 10
168.846652
 20
40.366914
 42
-0.224592
  0
VERTEX
  8
0
 10
167.329276
 20
40.238578
 42
-0.233398
  0
VERTEX
  8
0
 10
166.305455
 20
41.327194
 42
-0.037703
  0
VERTEX
  8
0
 10
165.649471
 20
44.250000
 42
0.005617
  0
VERTEX
  8
0
 10
165.368661
 20
46.027993
 42
0.005115
  0
VERTEX
  8
0
 10
165.039634
 20
47.855783
 42
0.005123
  0
VERTEX
  8
0
 10
164.712031
 20
49.483764
 42
0.016470
  0
VERTEX
  8
0
 10
164.447407
 20
50.556921
 42
-0.054062
  0
VERTEX
  8
0
 10
164.256848
 20
51.689582
 42
-0.290812
  0
VERTEX
  8
0
 10
164.546714
 20
52.211030
 42
-0.141957
  0
VERTEX
  8
0
 10
165.353380
 20
52.387526
 42
-0.012398
  0
VERTEX
  8
0
 10
167.462710
 20
52.194147
 42
-0.014247
  0
VERTEX
  8
0
 10
169.320263
 20
51.923448
 42
-0.112382
  0
VERTEX
  8
0
 10
170.117867
 20
51.589018
 42
-0.311627
  0
VERTEX
  8
0
 10
170.290387
 20
51.110113
 42
-0.109007
  0
SEQEND
  0
POLYLINE
  8
0
 66
1
 70
1
  0
VERTEX
  8
0
 10
171.000000
 20
38.000000
 42
-0.191087
  0
VERTEX
  8
0
 10
170.848523
 20
37.618118
 42
-0.088204
  0
VERTEX
  8
0
 10
170.412500
 20
37.293750
 42
-0.068025
  0
VERTEX
  8
0
 10
169.765418
 20
37.073693
 42
-0.048028
  0
VERTEX
  8
0
 10
169.000000
 20
37.000000
 42
-0.048028
  0
VERTEX
  8
0
 10
168.234582
 20
37.073693
 42
-0.068025
  0
VERTEX
  8
0
 10
167.587500
 20
37.293750
 42
-0.088204
  0
VERTEX
  8
0
 10
167.151477
 20
37.618118
 42
-0.191087
  0
VERTEX
  8
0
 10
167.000000
 20
38.000000
 42
-0.191087
  0
VERTEX
  8
0
 10
167.151477
 20
38.381882
 42
-0.088204
  0
VERTEX
  8
0
 10
167.587500
 20
38.706250
 42
-0.068025
  0
VERTEX
  8
0
 10
168.234582
 20
38.926307
 42
-0.048028
  0
VERTEX
  8
0
 10
169.000000
 20
39.000000
 42
-0.048028
  0
VERTEX
  8
0
 10
169.765418
 20
38.926307
 42
-0.068025
  0
VERTEX
  8
0
 10
170.412500
 20
38.706250
 42
-0.088204
  0
VERTEX
  8
0
 10
170.848523
 20
38.381882
 42
-0.191087
  0
SEQEND
  0
POLYLINE
  8
0
 66
1
 70
1
  0
VERTEX
  8
0
 10
162.558870
 20
35.468197
 42
-0.067321
  0
VERTEX
  8
0
 10
160.849830
 20
34.505213
 42
-0.070062
  0
VERTEX
  8
0
 10
158.969412
 20
34.047458
 42
-0.100301
  0
VERTEX
  8
0
 10
157.533033
 20
34.193088
 42
-0.328567
  0
VERTEX
  8
0
 10
157.000000
 20
34.916667
 42
-0.208035
  0
VERTEX
  8
0
 10
157.344069
 20
35.707828
 42
-0.093922
  0
VERTEX
  8
0
 10
158.320122
 20
36.323940
 42
-0.061205
  0
VERTEX
  8
0
 10
159.889511
 20
36.730548
 42
-0.028107
  0
VERTEX
  8
0
 10
162.000000
 20
36.889249
 42
-0.006139
  0
VERTEX
  8
0
 10
163.633141
 20
36.899992
 42
-0.306708
  0
VERTEX
  8
0
 10
163.885782
 20
36.726818
 42
-0.328972
  0
VERTEX
  8
0
 10
163.809313
 20
36.440449
 42
-0.006663
  0
SEQEND
  0
POLYLINE
  8
0
 66
1
 70
1
  0
VERTEX
  8
0
 10
124.517865
 20
29.362743
 42
-0.011475
  0
VERTEX
  8
0
 10
126.261163
 20
28.149750
 42
-0.007565
  0
VERTEX
  8
0
 10
128.211498
 20
26.679419
 42
-0.007613
  0
VERTEX
  8
0
 10
130.066012
 20
25.190939
 42
-0.014578
  0
VERTEX
  8
0
 10
131.500000
 20
23.931407
 42
0.021334
  0
VERTEX
  8
0
 10
132.955789
 20
22.687156
 42
0.010903
  0
VERTEX
  8
0
 10
134.880388
 20
21.245978
 42
0.010813
  0
VERTEX
  8
0
 10
136.931565
 20
19.844754
 42
0.015959
  0
VERTEX
  8
0
 10
138.794938
 20
18.713119
 42
0.000000
  0
VERTEX
  8
0
 10
143.089876
 20
16.288909
 42
0.000000
  0
VERTEX
  8
0
 10
140.580121
 20
14.644454
 42
-0.037017
  0
VERTEX
  8
0
 10
139.443818
 20
14.014749
 42
-0.027151
  0
VERTEX
  8
0
 10
138.103896
 20
13.483058
 42
-0.027655
  0
VERTEX
  8
0
 10
136.772911
 20
13.117325
 42
-0.053268
  0
VERTEX
  8
0
 10
135.674755
 20
13.000000
 42
0.025615
  0
VERTEX
  8
0
 10
131.902250
 20
12.806606
 42
0.022275
  0
VERTEX
  8
0
 10
127.986887
 20
12.226943
 42
0.014223
  0
VERTEX
  8
0
 10
124.564427
 20
11.461735
 42
0.343192
  0
VERTEX
  8
0
 10
124.000000
 20
10.736268
 42
0.413235
  0
VERTEX
  8
0
 10
124.539859
 20
10.194601
 42
0.021948
  0
VERTEX
  8
0
 10
127.222311
 20
10.303420
 42
0.027107
  0
VERTEX
  8
0
 10
130.443532
 20
10.752878
 42
0.025553
  0
VERTEX
  8
0
 10
133.662580
 20
11.554058
 42
-0.034837
  0
VERTEX
  8
0
 10
134.402624
 20
11.723732
 42
-0.598147
  0
VERTEX
  8
0
 10
134.521098
 20
11.567373
 42
-0.117185
  0
VERTEX
  8
0
 10
134.217702
 20
11.178865
 42
-0.007795
  0
VERTEX
  8
0
 10
133.090757
 20
10.306220
 42
-0.046363
  0
VERTEX
  8
0
 10
129.437848
 20
8.063326
 42
-0.041202
  0
VERTEX
  8
0
 10
125.289066
 20
6.427221
 42
-0.038880
  0
VERTEX
  8
0
 10
120.692488
 20
5.420775
 42
-0.032414
  0
VERTEX
  8
0
 10
115.704545
 20
5.055873
 42
-0.011529
  0
VERTEX
  8
0
 10
111.851408
 20
5.113035
 42
-0.054012
  0
VERTEX
  8
0
 10
109.660803
 20
5.434727
 42
-0.082422
  0
VERTEX
  8
0
 10
108.058332
 20
6.146888
 42
-0.050725
  0
VERTEX
  8
0
 10
106.454545
 20
7.454545
 42
-0.045951
  0
VERTEX
  8
0
 10
105.260258
 20
8.891126
 42
-0.066767
  0
VERTEX
  8
0
 10
104.517082
 20
10.360030
 42
-0.057901
  0
VERTEX
  8
0
 10
104.123457
 20
12.125426
 42
-0.025932
  0
VERTEX
  8
0
 10
104.000000
 20
14.504205
 42
-0.044458
  0
VERTEX
  8
0
 10
104.329745
 20
18.205352
 42
-0.061119
  0
VERTEX
  8
0
 10
105.315320
 20
21.393688
 42
-0.060069
  0
VERTEX
  8
0
 10
107.058636
 20
24.289610
 42
-0.041123
  0
VERTEX
  8
0
 10
109.660724
 20
27.116153
 42
-0.035738
  0
VERTEX
  8
0
 10
113.876917
 20
30.477618
 42
-0.113371
  0
VERTEX
  8
0
 10
117.211413
 20
31.793455
 42
-0.130289
  0
VERTEX
  8
0
 10
120.508631
 20
31.432484
 42
-0.054251
  0
SEQEND
  0
POLYLINE
  8
0
 66
1
 70
1
  0
VERTEX
  8
0
 10
174.532119
 20
25.551027
 42
-0.034101
  0
VERTEX
  8
0
 10
177.568911
 20
24.031464
 42
-0.454194
  0
VERTEX
  8
0
 10
177.773415
 20
22.944652
 42
-0.212623
  0
VERTEX
  8
0
 10
176.284249
 20
22.159675
 42
-0.017140
  0
VERTEX
  8
0
 10
171.750000
 20
22.015313
 42
-0.017305
  0
VERTEX
  8
0
 10
166.946926
 20
22.193379
 42
-0.085128
  0
VERTEX
  8
0
 10
164.323230
 20
22.839637
 42
-0.266737
  0
VERTEX
  8
0
 10
163.500078
 20
23.949598
 42
-0.205183
  0
VERTEX
  8
0
 10
163.936747
 20
25.423785
 42
-0.145750
  0
VERTEX
  8
0
 10
165.605142
 20
26.537513
 42
-0.071908
  0
VERTEX
  8
0
 10
168.146713
 20
26.936147
 42
-0.059138
  0
VERTEX
  8
0
 10
171.235544
 20
26.607095
 42
-0.042904
  0
SEQEND
  0
POLYLINE
  8
0
 66
1
 70
1
  0
VERTEX
  8
0
 10
190.000000
 20
23.067388
 42
-0.261784
  0
VERTEX
  8
0
 10
189.513573
 20
22.201996
 42
-0.064897
  0
VERTEX
  8
0
 10
187.970485
 20
21.518382
 42
-0.062001
  0
VERTEX
  8
0
 10
186.184385
 20
21.223585
 42
-0.149424
  0
VERTEX
  8
0
 10
184.902186
 20
21.560452
 42
-0.076493
  0
VERTEX
  8
0
 10
184.475104
 20
21.924776
 42
-0.219999
  0
VERTEX
  8
0
 10
184.370525
 20
22.290191
 42
-0.170127
  0
VERTEX
  8
0
 10
184.577013
 20
22.676031
 42
-0.044430
  0
VERTEX
  8
0
 10
185.143237
 20
23.109687
 42
-0.076359
  0
VERTEX
  8
0
 10
186.602210
 20
23.747899
 42
-0.067263
  0
VERTEX
  8
0
 10
188.251607
 20
23.956183
 42
-0.086640
  0
VERTEX
  8
0
 10
189.546722
 20
23.718427
 42
-0.313832
  0
SEQEND
  0
POLYLINE
  8
0
 66
1
 70
1
  0
VERTEX
  8
0
 10
63.516979
 20
201.388757
 42
0.027762
  0
VERTEX
  8
0
 10
62.864073
 20
200.853304
 42
0.089457
  0
VERTEX
  8
0
 10
62.525536
 20
200.407947
 42
0.281672
  0
VERTEX
  8
0
 10
62.546853
 20
200.133770
 42
0.240504
  0
VERTEX
  8
0
 10
62.808870
 20
200.000000
 42
-0.194909
  0
VERTEX
  8
0
 10
63.263843
 20
199.815639
 42
-0.086926
  0
VERTEX
  8
0
 10
63.650106
 20
199.282961
 42
-0.066799
  0
VERTEX
  8
0
 10
63.912307
 20
198.493274
 42
-0.046829
  0
VERTEX
  8
0
 10
64.000000
 20
197.559017
 42
0.037634
  0
VERTEX
  8
0
 10
64.073842
 20
196.579340
 42
0.041396
  0
VERTEX
  8
0
 10
64.293750
 20
195.653525
 42
0.045439
  0
VERTEX
  8
0
 10
64.615492
 20
194.906663
 42
0.130646
  0
VERTEX
  8
0
 10
65.000000
 20
194.500000
 42
0.297719
  0
VERTEX
  8
0
 10
65.391769
 20
194.509855
 42
0.145541
  0
VERTEX
  8
0
 10
65.718784
 20
194.916013
 42
0.069343
  0
VERTEX
  8
0
 10
65.933656
 20
195.756294
 42
0.027979
  0
VERTEX
  8
0
 10
66.000000
 20
196.940983
 42
-0.031003
  0
VERTEX
  8
0
 10
66.072735
 20
198.112882
 42
-0.048032
  0
VERTEX
  8
0
 10
66.293750
 20
199.101414
 42
-0.061379
  0
VERTEX
  8
0
 10
66.615572
 20
199.787575
 42
-0.257909
  0
VERTEX
  8
0
 10
67.000000
 20
200.000000
 42
0.183792
  0
VERTEX
  8
0
 10
67.725047
 20
200.275834
 42
0.247626
  0
VERTEX
  8
0
 10
67.966971
 20
200.921978
 42
0.165605
  0
VERTEX
  8
0
 10
67.578167
 20
201.715760
 42
0.105563
  0
VERTEX
  8
0
 10
66.708108
 20
202.281768
 42
0.111787
  0
VERTEX
  8
0
 10
66.077152
 20
202.373103
 42
0.048531
  0
VERTEX
  8
0
 10
65.237808
 20
202.223941
 42
0.044744
  0
VERTEX
  8
0
 10
64.339215
 20
201.883357
 42
0.044944
  0
SEQEND
  0
POLYLINE
  8
0
 66
1
 70
1
  0
VERTEX
  8
0
 10
52.667221
 20
190.336748
 42
-0.041097
  0
VERTEX
  8
0
 10
52.280522
 20
188.776994
 42
-0.028256
  0
VERTEX
  8
0
 10
51.601595
 20
187.085371
 42
-0.028571
  0
VERTEX
  8
0
 10
50.756442
 20
185.520860
 42
-0.050486
  0
VERTEX
  8
0
 10
49.865287
 20
184.356604
 42
0.000000
  0
VERTEX
  8
0
 10
47.651372
 20
182.000000
 42
0.000000
  0
VERTEX
  8
0
 10
49.810301
 20
179.701925
 42
-0.044176
  0
VERTEX
  8
0
 10
50.684064
 20
178.589691
 42
-0.026708
  0
VERTEX
  8
0
 10
51.523158
 20
177.138345
 42
-0.026630
  0
VERTEX
  8
0
 10
52.207596
 20
175.595543
 42
-0.041750
  0
VERTEX
  8
0
 10
52.609615
 20
174.201925
 42
0.036808
  0
VERTEX
  8
0
 10
53.242486
 20
171.923862
 42
0.226116
  0
VERTEX
  8
0
 10
54.084050
 20
171.088861
 42
0.445385
  0
VERTEX
  8
0
 10
54.779667
 20
171.470043
 42
0.057937
  0
VERTEX
  8
0
 10
55.000000
 20
173.365141
 42
-0.065030
  0
VERTEX
  8
0
 10
55.142156
 20
174.453525
 42
-0.031815
  0
VERTEX
  8
0
 10
55.587500
 20
175.782408
 42
-0.030908
  0
VERTEX
  8
0
 10
56.234398
 20
177.125808
 42
-0.039007
  0
VERTEX
  8
0
 10
57.000000
 20
178.272871
 42
0.012092
  0
VERTEX
  8
0
 10
57.765937
 20
179.296609
 42
0.015836
  0
VERTEX
  8
0
 10
58.412500
 20
180.269657
 42
0.013378
  0
VERTEX
  8
0
 10
58.898162
 20
181.102251
 42
0.125986
  0
VERTEX
  8
0
 10
59.000000
 20
181.500000
 42
0.125986
  0
VERTEX
  8
0
 10
58.898162
 20
181.897749
 42
0.013378
  0
VERTEX
  8
0
 10
58.412500
 20
182.730343
 42
0.015836
  0
VERTEX
  8
0
 10
57.765937
 20
183.703391
 42
0.012092
  0
VERTEX
  8
0
 10
57.000000
 20
184.727129
 42
-0.045226
  0
VERTEX
  8
0
 10
56.234139
 20
185.906020
 42
-0.031988
  0
VERTEX
  8
0
 10
55.587500
 20
187.347131
 42
-0.032448
  0
VERTEX
  8
0
 10
55.144209
 20
188.816778
 42
-0.057082
  0
VERTEX
  8
0
 10
55.000000
 20
190.075842
 42
0.035560
  0
VERTEX
  8
0
 10
54.818195
 20
192.628925
 42
0.341753
  0
VERTEX
  8
0
 10
54.085537
 20
193.339357
 42
0.358106
  0
VERTEX
  8
0
 10
53.253417
 20
192.798478
 42
0.036463
  0
SEQEND
  0
POLYLINE
  8
0
 66
1
 70
1
  0
VERTEX
  8
0
 10
55.676001
 20
179.852803
 42
-0.036597
  0
VERTEX
  8
0
 10
54.667437
 20
178.473616
 42
-0.225227
  0
VERTEX
  8
0
 10
53.886685
 20
178.121986
 42
-0.182524
  0
VERTEX
  8
0
 10
53.012036
 20
178.472317
 42
-0.023301
  0
VERTEX
  8
0
 10
51.559069
 20
179.934730
 42
-0.027472
  0
VERTEX
  8
0
 10
50.563129
 20
181.164724
 42
-0.163268
  0
VERTEX
  8
0
 10
50.320589
 20
181.943203
 42
-0.138800
  0
VERTEX
  8
0
 10
50.576371
 20
182.777485
 42
-0.017978
  0
VERTEX
  8
0
 10
51.654081
 20
184.321813
 42
0.000000
  0
VERTEX
  8
0
 10
53.500000
 20
186.774167
 42
0.000000
  0
VERTEX
  8
0
 10
55.166548
 20
184.239887
 42
-0.029610
  0
VERTEX
  8
0
 10
55.951282
 20
182.877228
 42
-0.087142
  0
VERTEX
  8
0
 10
56.258942
 20
181.844177
 42
-0.108009
  0
VERTEX
  8
0
 10
56.164632
 20
180.900206
 42
-0.060947
  0
SEQEND
  0
POLYLINE
  8
0
 66
1
 70
1
  0
VERTEX
  8
0
 10
125.194949
 20
186.500000
 42
0.012823
  0
VERTEX
  8
0
 10
125.235556
 20
185.431793
 42
0.080377
  0
VERTEX
  8
0
 10
125.356533
 20
184.900903
 42
0.597527
  0
VERTEX
  8
0
 10
125.516660
 20
184.883358
 42
0.087174
  0
VERTEX
  8
0
 10
125.692991
 20
185.269032
 42
0.037336
  0
VERTEX
  8
0
 10
125.832894
 20
186.036634
 42
0.029507
  0
VERTEX
  8
0
 10
125.872264
 20
186.880008
 42
0.030339
  0
VERTEX
  8
0
 10
125.814405
 20
187.671085
 42
0.062780
  0
VERTEX
  8
0
 10
125.655937
 20
188.269032
 42
0.313180
  0
VERTEX
  8
0
 10
125.477130
 20
188.386009
 42
0.333666
  0
VERTEX
  8
0
 10
125.315079
 20
188.257153
 42
0.052471
  0
VERTEX
  8
0
 10
125.212705
 20
187.580113
 42
0.014395
  0
SEQEND
  0
POLYLINE
  8
0
 66
1
 70
1
  0
VERTEX
  8
0
 10
88.757105
 20
154.480917
 42
0.022115
  0
VERTEX
  8
0
 10
87.253737
 20
153.359094
 42
0.019993
  0
VERTEX
  8
0
 10
85.801947
 20
152.072173
 42
0.020461
  0
VERTEX
  8
0
 10
84.595214
 20
150.814247
 42
0.058145
  0
VERTEX
  8
0
 10
83.902796
 20
149.818372
 42
0.315606
  0
VERTEX
  8
0
 10
83.954097
 20
149.393010
 42
0.348157
  0
VERTEX
  8
0
 10
84.355779
 20
149.324356
 42
0.041800
  0
VERTEX
  8
0
 10
85.672555
 20
150.195250
 42
0.008163
  0
VERTEX
  8
0
 10
87.877825
 20
151.993991
 42
0.003634
  0
VERTEX
  8
0
 10
90.853547
 20
154.540393
 42
0.021429
  0
VERTEX
  8
0
 10
92.344149
 20
155.951275
 42
0.066816
  0
VERTEX
  8
0
 10
92.904204
 20
156.708883
 42
0.570553
  0
VERTEX
  8
0
 10
92.732135
 20
157.000000
 42
0.140463
  0
VERTEX
  8
0
 10
92.545039
 20
156.946382
 42
0.001662
  0
VERTEX
  8
0
 10
91.453975
 20
156.260019
 42
0.004861
  0
VERTEX
  8
0
 10
90.197347
 20
155.446430
 42
0.003138
  0
SEQEND
  0
POLYLINE
  8
0
 66
1
 70
1
  0
VERTEX
  8
0
 10
127.182268
 20
153.957806
 42
-0.051493
  0
VERTEX
  8
0
 10
128.081246
 20
153.300980
 42
-0.009109
  0
VERTEX
  8
0
 10
129.607780
 20
151.872858
 42
-0.009776
  0
VERTEX
  8
0
 10
131.340870
 20
150.124193
 42
-0.008662
  0
VERTEX
  8
0
 10
133.076995
 20
148.238215
 42
0.004934
  0
VERTEX
  8
0
 10
134.925431
 20
146.199940
 42
0.050294
  0
VERTEX
  8
0
 10
135.779516
 20
145.445039
 42
0.745952
  0
VERTEX
  8
0
 10
135.946755
 20
145.574427
 42
0.042433
  0
VERTEX
  8
0
 10
135.494719
 20
146.500000
 42
0.045272
  0
VERTEX
  8
0
 10
133.600420
 20
149.100205
 42
0.024446
  0
VERTEX
  8
0
 10
130.843235
 20
151.949469
 42
0.019468
  0
VERTEX
  8
0
 10
128.037911
 20
154.380338
 42
0.167759
  0
VERTEX
  8
0
 10
126.500000
 20
154.928951
 42
0.224796
  0
VERTEX
  8
0
 10
126.295782
 20
154.834795
 42
0.339449
  0
VERTEX
  8
0
 10
126.287916
 20
154.647898
 42
0.084755
  0
VERTEX
  8
0
 10
126.597149
 20
154.336265
 42
0.023019
  0
SEQEND
  0
POLYLINE
  8
0
 66
1
 70
1
  0
VERTEX
  8
0
 10
178.438186
 20
111.054887
 42
-0.033843
  0
VERTEX
  8
0
 10
177.968980
 20
109.105213
 42
-0.033758
  0
VERTEX
  8
0
 10
177.240739
 20
107.234965
 42
-0.035867
  0
VERTEX
  8
0
 10
176.333750
 20
105.615438
 42
-0.060366
  0
VERTEX
  8
0
 10
175.328148
 20
104.428313
 42
0.000000
  0
VERTEX
  8
0
 10
172.974312
 20
102.246851
 42
0.000000
  0
VERTEX
  8
0
 10
175.424784
 20
100.641241
 42
-0.067022
  0
VERTEX
  8
0
 10
176.543573
 20
99.672030
 42
-0.053022
  0
VERTEX
  8
0
 10
177.470775
 20
98.365336
 42
-0.046676
  0
VERTEX
  8
0
 10
178.198139
 20
96.727324
 42
-0.032354
  0
VERTEX
  8
0
 10
178.719255
 20
94.767815
 42
0.025310
  0
VERTEX
  8
0
 10
179.534896
 20
91.517277
 42
0.275354
  0
VERTEX
  8
0
 10
180.494825
 20
90.646133
 42
0.409028
  0
VERTEX
  8
0
 10
181.359665
 20
91.209015
 42
0.033525
  0
VERTEX
  8
0
 10
181.804041
 20
94.143919
 42
-0.042332
  0
VERTEX
  8
0
 10
182.063609
 20
95.675724
 42
-0.035513
  0
VERTEX
  8
0
 10
182.587409
 20
97.238176
 42
-0.036934
  0
VERTEX
  8
0
 10
183.281486
 20
98.610341
 42
-0.073407
  0
VERTEX
  8
0
 10
184.054041
 20
99.548907
 42
0.048617
  0
VERTEX
  8
0
 10
185.472436
 20
101.108326
 42
0.162605
  0
VERTEX
  8
0
 10
185.899646
 20
102.403852
 42
0.186897
  0
VERTEX
  8
0
 10
185.438894
 20
103.579931
 42
0.067509
  0
VERTEX
  8
0
 10
184.033976
 20
104.746709
 42
-0.094850
  0
VERTEX
  8
0
 10
183.180134
 20
105.537979
 42
-0.029434
  0
VERTEX
  8
0
 10
182.223417
 20
107.012900
 42
-0.028248
  0
VERTEX
  8
0
 10
181.325883
 20
108.824009
 42
-0.027664
  0
VERTEX
  8
0
 10
180.631170
 20
110.737255
 42
0.000000
  0
VERTEX
  8
0
 10
179.194388
 20
115.500000
 42
0.000000
  0
SEQEND
  0
POLYLINE
  8
0
 66
1
 70
1
  0
VERTEX
  8
0
 10
182.045252
 20
100.554525
 42
-0.039251
  0
VERTEX
  8
0
 10
180.891227
 20
99.367222
 42
-0.217318
  0
VERTEX
  8
0
 10
180.059850
 20
99.116256
 42
-0.191667
  0
VERTEX
  8
0
 10
179.256863
 20
99.569167
 42
-0.030073
  0
VERTEX
  8
0
 10
178.183136
 20
101.078361
 42
-0.033859
  0
VERTEX
  8
0
 10
177.587375
 20
102.193806
 42
-0.100934
  0
VERTEX
  8
0
 10
177.397934
 20
103.034339
 42
-0.120132
  0
VERTEX
  8
0
 10
177.566892
 20
103.794806
 42
-0.058812
  0
VERTEX
  8
0
 10
178.110286
 20
104.632886
 42
-0.055440
  0
VERTEX
  8
0
 10
178.854088
 20
105.350250
 42
-0.207284
  0
VERTEX
  8
0
 10
179.469822
 20
105.506004
 42
-0.136747
  0
VERTEX
  8
0
 10
180.173131
 20
105.181042
 42
-0.020193
  0
VERTEX
  8
0
 10
181.335394
 20
104.109051
 42
-0.026453
  0
VERTEX
  8
0
 10
182.348423
 20
102.982761
 42
-0.121213
  0
VERTEX
  8
0
 10
182.718870
 20
102.192526
 42
-0.163808
  0
VERTEX
  8
0
 10
182.623879
 20
101.452241
 42
-0.060166
  0
SEQEND
  0
POLYLINE
  8
0
 66
1
 70
1
  0
VERTEX
  8
0
 10
169.756919
 20
87.508738
 42
0.034947
  0
VERTEX
  8
0
 10
169.606632
 20
86.251973
 42
0.026531
  0
VERTEX
  8
0
 10
169.612041
 20
84.863758
 42
0.027116
  0
VERTEX
  8
0
 10
169.758020
 20
83.556003
 42
0.054890
  0
VERTEX
  8
0
 10
170.039019
 20
82.560283
 42
0.007326
  0
VERTEX
  8
0
 10
170.496413
 20
81.476554
 42
0.196306
  0
VERTEX
  8
0
 10
170.716779
 20
81.263263
 42
0.497469
  0
VERTEX
  8
0
 10
170.876390
 20
81.359339
 42
0.017115
  0
VERTEX
  8
0
 10
170.936614
 20
82.200310
 42
-0.085311
  0
VERTEX
  8
0
 10
171.089384
 20
82.926061
 42
-0.052650
  0
VERTEX
  8
0
 10
171.495443
 20
83.700568
 42
-0.050953
  0
VERTEX
  8
0
 10
172.075864
 20
84.403960
 42
-0.062999
  0
VERTEX
  8
0
 10
172.750000
 20
84.919901
 42
0.025333
  0
VERTEX
  8
0
 10
173.390763
 20
85.337942
 42
0.131464
  0
VERTEX
  8
0
 10
173.654274
 20
85.663374
 42
0.394507
  0
VERTEX
  8
0
 10
173.581350
 20
85.874685
 42
0.116334
  0
VERTEX
  8
0
 10
173.217776
 20
85.969591
 42
-0.139131
  0
VERTEX
  8
0
 10
172.667575
 20
86.139908
 42
-0.059958
  0
VERTEX
  8
0
 10
172.073309
 20
86.636864
 42
-0.052854
  0
VERTEX
  8
0
 10
171.528414
 20
87.355196
 42
-0.047293
  0
VERTEX
  8
0
 10
171.122290
 20
88.198455
 42
0.008447
  0
VERTEX
  8
0
 10
170.587014
 20
89.573595
 42
0.437742
  0
VERTEX
  8
0
 10
170.346690
 20
89.663360
 42
0.228152
  0
VERTEX
  8
0
 10
170.131670
 20
89.383091
 42
0.004225
  0
SEQEND
  0
POLYLINE
  8
0
 66
1
 70
1
  0
VERTEX
  8
0
 10
56.160927
 20
55.172273
 42
-0.031556
  0
VERTEX
  8
0
 10
54.914615
 20
53.996352
 42
-0.027677
  0
VERTEX
  8
0
 10
53.476347
 20
52.930151
 42
-0.028681
  0
VERTEX
  8
0
 10
52.066793
 20
52.113275
 42
-0.070656
  0
VERTEX
  8
0
 10
50.936603
 20
51.730186
 42
0.001113
  0
VERTEX
  8
0
 10
49.279899
 20
51.415083
 42
0.275745
  0
VERTEX
  8
0
 10
49.171551
 20
51.318452
 42
0.485764
  0
VERTEX
  8
0
 10
49.230213
 20
51.232707
 42
0.001488
  0
VERTEX
  8
0
 10
50.750000
 20
51.136182
 42
-0.046216
  0
VERTEX
  8
0
 10
52.238605
 20
50.906908
 42
-0.238567
  0
VERTEX
  8
0
 10
52.849802
 20
50.377766
 42
-0.206104
  0
VERTEX
  8
0
 10
52.834440
 20
49.508204
 42
-0.034922
  0
VERTEX
  8
0
 10
52.029443
 20
48.013399
 42
-0.078161
  0
VERTEX
  8
0
 10
51.441125
 20
47.342371
 42
-0.242575
  0
VERTEX
  8
0
 10
50.871241
 20
47.215521
 42
-0.124710
  0
VERTEX
  8
0
 10
50.161292
 20
47.608061
 42
-0.016890
  0
VERTEX
  8
0
 10
48.950968
 20
48.822255
 42
0.039732
  0
VERTEX
  8
0
 10
47.719793
 20
49.949480
 42
0.091458
  0
VERTEX
  8
0
 10
46.609879
 20
50.526639
 42
0.089814
  0
VERTEX
  8
0
 10
45.354203
 20
50.675457
 42
0.037344
  0
VERTEX
  8
0
 10
43.656212
 20
50.443383
 42
0.021923
  0
VERTEX
  8
0
 10
42.345963
 20
50.102779
 42
0.019571
  0
VERTEX
  8
0
 10
41.019111
 20
49.637448
 42
0.020020
  0
VERTEX
  8
0
 10
39.859794
 20
49.124624
 42
0.055833
  0
VERTEX
  8
0
 10
39.110975
 20
48.646702
 42
-0.075385
  0
VERTEX
  8
0
 10
38.412333
 20
48.238178
 42
-0.040084
  0
VERTEX
  8
0
 10
37.452481
 20
47.942822
 42
-0.038765
  0
VERTEX
  8
0
 10
36.400613
 20
47.793626
 42
-0.048465
  0
VERTEX
  8
0
 10
35.415583
 20
47.826584
 42
0.081647
  0
VERTEX
  8
0
 10
33.253948
 20
47.756021
 42
0.072045
  0
VERTEX
  8
0
 10
31.125866
 20
47.004662
 42
0.071445
  0
VERTEX
  8
0
 10
29.282834
 20
45.672436
 42
0.077871
  0
VERTEX
  8
0
 10
27.951846
 20
43.910024
 42
0.055520
  0
VERTEX
  8
0
 10
27.502302
 20
42.786048
 42
0.095487
  0
VERTEX
  8
0
 10
27.422840
 20
41.784167
 42
0.083253
  0
VERTEX
  8
0
 10
27.722486
 20
40.731711
 42
0.034149
  0
VERTEX
  8
0
 10
28.451981
 20
39.432942
 42
0.036256
  0
VERTEX
  8
0
 10
29.163436
 20
38.501948
 42
0.039828
  0
VERTEX
  8
0
 10
29.981560
 20
37.714677
 42
0.043472
  0
VERTEX
  8
0
 10
30.782124
 20
37.167360
 42
0.128904
  0
VERTEX
  8
0
 10
31.420501
 20
37.000000
 42
-0.178851
  0
VERTEX
  8
0
 10
31.998682
 20
36.786349
 42
-0.122446
  0
VERTEX
  8
0
 10
32.408946
 20
36.210698
 42
-0.075572
  0
VERTEX
  8
0
 10
32.629481
 20
35.245629
 42
-0.030295
  0
VERTEX
  8
0
 10
32.647448
 20
33.887693
 42
0.086378
  0
VERTEX
  8
0
 10
32.966361
 20
31.349419
 42
0.156419
  0
VERTEX
  8
0
 10
34.150026
 20
29.647303
 42
0.182852
  0
VERTEX
  8
0
 10
35.951496
 20
29.107509
 42
0.122524
  0
VERTEX
  8
0
 10
38.019238
 20
29.779942
 42
-0.121197
  0
VERTEX
  8
0
 10
39.574181
 20
30.290113
 42
-0.310809
  0
VERTEX
  8
0
 10
40.546893
 20
29.724262
 42
-0.112233
  0
VERTEX
  8
0
 10
40.966596
 20
27.826960
 42
-0.016448
  0
VERTEX
  8
0
 10
40.813088
 20
23.864404
 42
-0.014349
  0
VERTEX
  8
0
 10
40.571761
 20
21.466663
 42
-0.097451
  0
VERTEX
  8
0
 10
40.195259
 20
20.342946
 42
-0.204276
  0
VERTEX
  8
0
 10
39.551078
 20
19.853027
 42
-0.099567
  0
VERTEX
  8
0
 10
38.500000
 20
19.801779
 42
0.008499
  0
VERTEX
  8
0
 10
32.743920
 20
20.570485
 42
0.031897
  0
VERTEX
  8
0
 10
29.105726
 20
20.759805
 42
0.048394
  0
VERTEX
  8
0
 10
26.329788
 20
20.457439
 42
0.047679
  0
VERTEX
  8
0
 10
23.649176
 20
19.626776
 42
0.022878
  0
VERTEX
  8
0
 10
21.722727
 20
18.716245
 42
0.087862
  0
VERTEX
  8
0
 10
20.681664
 20
17.904009
 42
0.133517
  0
VERTEX
  8
0
 10
20.214617
 20
16.978864
 42
0.085968
  0
VERTEX
  8
0
 10
20.177720
 20
15.770826
 42
0.080211
  0
VERTEX
  8
0
 10
20.542949
 20
14.594553
 42
0.147993
  0
VERTEX
  8
0
 10
21.223190
 20
13.871630
 42
0.092722
  0
VERTEX
  8
0
 10
22.432221
 20
13.447975
 42
0.019839
  0
VERTEX
  8
0
 10
24.652205
 20
13.197281
 42
0.034239
  0
VERTEX
  8
0
 10
26.664142
 20
13.188579
 42
0.014620
  0
VERTEX
  8
0
 10
29.344891
 20
13.439596
 42
0.014386
  0
VERTEX
  8
0
 10
32.198246
 20
13.874848
 42
0.018354
  0
VERTEX
  8
0
 10
34.796550
 20
14.447281
 42
-0.018283
  0
VERTEX
  8
0
 10
37.495957
 20
15.042387
 42
-0.011734
  0
VERTEX
  8
0
 10
40.664824
 20
15.543889
 42
-0.011794
  0
VERTEX
  8
0
 10
43.794556
 20
15.889247
 42
-0.021583
  0
VERTEX
  8
0
 10
46.359161
 20
16.000000
 42
0.038143
  0
VERTEX
  8
0
 10
50.028274
 20
16.280308
 42
0.112697
  0
VERTEX
  8
0
 10
52.364307
 20
17.205081
 42
0.187734
  0
VERTEX
  8
0
 10
53.400309
 20
18.725077
 42
0.143828
  0
VERTEX
  8
0
 10
53.281539
 20
20.750000
 42
0.252267
  0
VERTEX
  8
0
 10
52.279373
 20
21.650998
 42
0.054562
  0
VERTEX
  8
0
 10
49.888214
 20
21.961306
 42
0.052188
  0
VERTEX
  8
0
 10
47.139238
 20
21.729163
 42
0.075862
  0
VERTEX
  8
0
 10
44.848612
 20
20.918980
 42
-0.048613
  0
VERTEX
  8
0
 10
43.179512
 20
20.224588
 42
-0.360077
  0
VERTEX
  8
0
 10
42.441110
 20
20.531702
 42
-0.146417
  0
VERTEX
  8
0
 10
42.207007
 20
21.719286
 42
-0.010020
  0
VERTEX
  8
0
 10
42.609084
 20
25.164607
 42
-0.014149
  0
VERTEX
  8
0
 10
43.090095
 20
28.062033
 42
-0.155142
  0
VERTEX
  8
0
 10
43.649207
 20
29.083928
 42
-0.177496
  0
VERTEX
  8
0
 10
44.664545
 20
29.526426
 42
-0.019785
  0
VERTEX
  8
0
 10
47.230969
 20
29.578008
 42
0.062376
  0
VERTEX
  8
0
 10
50.317889
 20
29.903708
 42
0.148158
  0
VERTEX
  8
0
 10
52.296973
 20
31.047090
 42
0.204619
  0
VERTEX
  8
0
 10
52.939527
 20
32.812475
 42
0.126582
  0
VERTEX
  8
0
 10
52.263184
 20
34.950183
 42
-0.080710
  0
VERTEX
  8
0
 10
51.605805
 20
36.517359
 42
-0.350179
  0
VERTEX
  8
0
 10
52.003984
 20
37.368515
 42
-0.176553
  0
VERTEX
  8
0
 10
53.362246
 20
37.518610
 42
-0.030379
  0
VERTEX
  8
0
 10
55.878896
 20
36.739610
 42
0.070361
  0
VERTEX
  8
0
 10
58.528277
 20
36.145953
 42
0.137117
  0
VERTEX
  8
0
 10
60.637624
 20
36.557297
 42
0.152931
  0
VERTEX
  8
0
 10
62.080122
 20
37.952234
 42
0.094919
  0
VERTEX
  8
0
 10
62.803276
 20
40.214621
 42
-0.070793
  0
VERTEX
  8
0
 10
63.097919
 20
41.315757
 42
-0.061958
  0
VERTEX
  8
0
 10
63.697222
 20
42.346710
 42
-0.060726
  0
VERTEX
  8
0
 10
64.544620
 20
43.217783
 42
-0.062668
  0
VERTEX
  8
0
 10
65.568004
 20
43.849031
 42
0.089152
  0
VERTEX
  8
0
 10
67.708868
 20
45.330585
 42
0.090700
  0
VERTEX
  8
0
 10
69.184557
 20
47.456899
 42
0.106289
  0
VERTEX
  8
0
 10
69.668012
 20
49.681347
 42
0.175507
  0
VERTEX
  8
0
 10
69.024577
 20
51.470386
 42
0.055399
  0
VERTEX
  8
0
 10
68.417758
 20
52.055731
 42
0.043211
  0
VERTEX
  8
0
 10
67.646141
 20
52.550676
 42
0.044458
  0
VERTEX
  8
0
 10
66.835453
 20
52.888762
 42
0.076712
  0
VERTEX
  8
0
 10
66.114684
 20
53.000000
 42
-0.115907
  0
VERTEX
  8
0
 10
65.414248
 20
53.164582
 42
-0.061400
  0
VERTEX
  8
0
 10
64.666163
 20
53.659221
 42
-0.056094
  0
VERTEX
  8
0
 10
63.986643
 20
54.385915
 42
-0.056410
  0
VERTEX
  8
0
 10
63.487128
 20
55.244158
 42
0.105573
  0
VERTEX
  8
0
 10
62.167325
 20
57.074364
 42
0.188558
  0
VERTEX
  8
0
 10
60.457378
 20
57.723715
 42
0.146058
  0
VERTEX
  8
0
 10
58.420951
 20
57.094050
 42
0.057437
  0
SEQEND
  0
POLYLINE
  8
0
 66
1
 70
1
  0
VERTEX
  8
0
 10
61.014163
 20
53.026465
 42
-0.036397
  0
VERTEX
  8
0
 10
60.547179
 20
52.288450
 42
-0.033261
  0
VERTEX
  8
0
 10
59.964972
 20
51.602003
 42
-0.034904
  0
VERTEX
  8
0
 10
59.360333
 20
51.059698
 42
-0.085098
  0
VERTEX
  8
0
 10
58.834408
 20
50.778136
 42
0.117488
  0
VERTEX
  8
0
 10
58.439770
 20
50.533101
 42
0.128661
  0
VERTEX
  8
0
 10
58.214125
 20
50.143826
 42
0.117903
  0
VERTEX
  8
0
 10
58.197544
 20
49.665953
 42
0.088615
  0
VERTEX
  8
0
 10
58.391779
 20
49.175106
 42
0.140260
  0
VERTEX
  8
0
 10
58.909483
 20
48.703799
 42
0.148012
  0
VERTEX
  8
0
 10
59.586808
 20
48.590371
 42
0.080790
  0
VERTEX
  8
0
 10
60.538886
 20
48.873649
 42
0.020788
  0
VERTEX
  8
0
 10
61.957363
 20
49.633885
 42
-0.038366
  0
VERTEX
  8
0
 10
63.158514
 20
50.224317
 42
-0.038459
  0
VERTEX
  8
0
 10
64.434815
 20
50.623734
 42
-0.041258
  0
VERTEX
  8
0
 10
65.599215
 20
50.792511
 42
-0.107381
  0
VERTEX
  8
0
 10
66.431657
 20
50.664599
 42
-0.263080
  0
VERTEX
  8
0
 10
67.372060
 20
49.524919
 42
-0.208241
  0
VERTEX
  8
0
 10
66.993363
 20
47.944808
 42
-0.110013
  0
VERTEX
  8
0
 10
65.125897
 20
46.353225
 42
-0.075447
  0
VERTEX
  8
0
 10
62.487847
 20
45.431742
 42
0.009376
  0
VERTEX
  8
0
 10
59.894677
 20
44.894740
 42
0.193192
  0
VERTEX
  8
0
 10
59.251441
 20
44.450291
 42
0.273639
  0
VERTEX
  8
0
 10
59.217069
 20
43.767298
 42
0.018585
  0
VERTEX
  8
0
 10
60.224959
 20
42.011391
 42
-0.035102
  0
VERTEX
  8
0
 10
60.762030
 20
40.999795
 42
-0.099413
  0
VERTEX
  8
0
 10
60.935404
 20
40.223474
 42
-0.126566
  0
VERTEX
  8
0
 10
60.778466
 20
39.553952
 42
-0.075986
  0
VERTEX
  8
0
 10
60.292177
 20
38.892177
 42
-0.139886
  0
VERTEX
  8
0
 10
58.947184
 20
38.144375
 42
-0.190913
  0
VERTEX
  8
0
 10
57.589260
 20
38.346584
 42
-0.189859
  0
VERTEX
  8
0
 10
56.733310
 20
39.426019
 42
-0.138618
  0
VERTEX
  8
0
 10
56.702853
 20
40.971710
 42
0.076982
  0
VERTEX
  8
0
 10
56.802275
 20
41.941925
 42
0.057529
  0
VERTEX
  8
0
 10
56.623866
 20
43.003684
 42
0.055279
  0
VERTEX
  8
0
 10
56.195398
 20
44.040574
 42
0.058382
  0
VERTEX
  8
0
 10
55.556360
 20
44.937723
 42
-0.047592
  0
VERTEX
  8
0
 10
54.650830
 20
46.152796
 42
-0.152289
  0
VERTEX
  8
0
 10
54.410401
 20
47.122314
 42
-0.092090
  0
VERTEX
  8
0
 10
54.711382
 20
48.337310
 42
-0.011313
  0
VERTEX
  8
0
 10
55.904394
 20
50.812596
 42
-0.027959
  0
VERTEX
  8
0
 10
57.351996
 20
53.296630
 42
-0.072294
  0
VERTEX
  8
0
 10
58.728583
 20
54.841408
 42
-0.119934
  0
VERTEX
  8
0
 10
60.028823
 20
55.485357
 42
-0.186072
  0
VERTEX
  8
0
 10
61.252704
 20
55.304366
 42
-0.218661
  0
VERTEX
  8
0
 10
61.468363
 20
55.005769
 42
-0.074962
  0
VERTEX
  8
0
 10
61.493123
 20
54.459614
 42
-0.057628
  0
VERTEX
  8
0
 10
61.338590
 20
53.766827
 42
-0.039220
  0
SEQEND
  0
POLYLINE
  8
0
 66
1
 70
1
  0
VERTEX
  8
0
 10
45.638374
 20
46.500000
 42
0.150584
  0
VERTEX
  8
0
 10
45.589890
 20
45.782676
 42
0.231336
  0
VERTEX
  8
0
 10
45.976855
 20
45.310085
 42
0.091993
  0
VERTEX
  8
0
 10
46.965359
 20
45.061315
 42
0.015770
  0
VERTEX
  8
0
 10
48.908940
 20
45.000000
 42
-0.061674
  0
VERTEX
  8
0
 10
51.833185
 20
44.637925
 42
-0.108708
  0
VERTEX
  8
0
 10
54.001144
 20
43.555841
 42
-0.230000
  0
VERTEX
  8
0
 10
54.639241
 20
42.197430
 42
-0.253648
  0
VERTEX
  8
0
 10
53.935698
 20
40.939097
 42
-0.068897
  0
VERTEX
  8
0
 10
53.163414
 20
40.588090
 42
-0.023596
  0
VERTEX
  8
0
 10
51.967049
 20
40.292991
 42
-0.022937
  0
VERTEX
  8
0
 10
50.599591
 20
40.088014
 42
-0.024558
  0
VERTEX
  8
0
 10
49.250000
 20
40.015313
 42
0.034271
  0
VERTEX
  8
0
 10
46.868018
 20
39.840573
 42
0.321540
  0
VERTEX
  8
0
 10
46.167438
 20
39.169430
 42
0.232901
  0
VERTEX
  8
0
 10
46.474068
 20
38.074231
 42
0.021498
  0
VERTEX
  8
0
 10
48.500000
 20
36.000000
 42
-0.019960
  0
VERTEX
  8
0
 10
50.380548
 20
34.086426
 42
-0.164442
  0
VERTEX
  8
0
 10
50.861370
 20
32.982605
 42
-0.286644
  0
VERTEX
  8
0
 10
50.442375
 20
32.164802
 42
-0.057984
  0
VERTEX
  8
0
 10
48.885806
 20
31.463756
 42
-0.083260
  0
VERTEX
  8
0
 10
47.782525
 20
31.306936
 42
-0.064641
  0
VERTEX
  8
0
 10
46.582310
 20
31.493301
 42
-0.054477
  0
VERTEX
  8
0
 10
45.287793
 20
32.028442
 42
-0.033962
  0
VERTEX
  8
0
 10
43.903018
 20
32.913581
 42
0.000000
  0
VERTEX
  8
0
 10
41.034424
 20
35.034424
 42
0.000000
  0
VERTEX
  8
0
 10
38.980738
 20
32.980738
 42
-0.067917
  0
VERTEX
  8
0
 10
37.177006
 20
31.610179
 42
-0.293320
  0
VERTEX
  8
0
 10
35.895182
 20
31.682663
 42
-0.235813
  0
VERTEX
  8
0
 10
35.225329
 20
32.967734
 42
-0.050741
  0
VERTEX
  8
0
 10
35.442461
 20
35.544985
 42
0.019774
  0
VERTEX
  8
0
 10
35.732749
 20
37.520434
 42
0.161575
  0
VERTEX
  8
0
 10
35.541672
 20
38.399559
 42
0.200224
  0
VERTEX
  8
0
 10
34.884711
 20
38.889893
 42
0.032825
  0
VERTEX
  8
0
 10
33.290819
 20
39.180464
 42
-0.048847
  0
VERTEX
  8
0
 10
32.099929
 20
39.437173
 42
-0.074667
  0
VERTEX
  8
0
 10
31.154393
 20
39.904444
 42
-0.088566
  0
VERTEX
  8
0
 10
30.501488
 20
40.556456
 42
-0.105851
  0
VERTEX
  8
0
 10
30.164770
 20
41.356220
 42
-0.115464
  0
VERTEX
  8
0
 10
30.238102
 20
43.087556
 42
-0.167218
  0
VERTEX
  8
0
 10
31.099539
 20
44.337014
 42
-0.121165
  0
VERTEX
  8
0
 10
32.808430
 20
45.048796
 42
-0.047808
  0
VERTEX
  8
0
 10
35.369173
 20
45.197400
 42
0.038292
  0
VERTEX
  8
0
 10
36.798996
 20
45.253149
 42
0.040988
  0
VERTEX
  8
0
 10
38.170468
 20
45.527518
 42
0.044853
  0
VERTEX
  8
0
 10
39.313308
 20
45.969501
 42
0.105237
  0
VERTEX
  8
0
 10
40.028212
 20
46.533994
 42
-0.131156
  0
VERTEX
  8
0
 10
41.596991
 20
47.647455
 42
-0.090870
  0
VERTEX
  8
0
 10
43.750095
 20
48.028547
 42
-0.144883
  0
VERTEX
  8
0
 10
45.297037
 20
47.560471
 42
-0.352504
  0
SEQEND
  0
POLYLINE
  8
0
 66
1
 70
1
  0
VERTEX
  8
0
 10
51.000000
 20
19.000000
 42
-0.267845
  0
VERTEX
  8
0
 10
50.778455
 20
18.616101
 42
-0.057513
  0
VERTEX
  8
0
 10
50.045313
 20
18.298248
 42
-0.045617
  0
VERTEX
  8
0
 10
48.995198
 20
18.082078
 42
-0.029148
  0
VERTEX
  8
0
 10
47.750000
 20
18.015313
 42
-0.010814
  0
VERTEX
  8
0
 10
46.143611
 20
18.057632
 42
-0.116665
  0
VERTEX
  8
0
 10
45.523320
 20
18.236165
 42
-0.473162
  0
VERTEX
  8
0
 10
45.470206
 20
18.537668
 42
-0.072010
  0
VERTEX
  8
0
 10
46.000000
 20
19.000000
 42
-0.072084
  0
VERTEX
  8
0
 10
47.547831
 20
19.709520
 42
-0.071596
  0
VERTEX
  8
0
 10
49.237060
 20
19.952650
 42
-0.097179
  0
VERTEX
  8
0
 10
50.530389
 20
19.698883
 42
-0.304766
  0
SEQEND
  0
POLYLINE
  8
0
 66
1
 70
1
  0
VERTEX
  8
0
 10
37.447874
 20
18.084342
 42
-0.405677
  0
VERTEX
  8
0
 10
37.354779
 20
17.662507
 42
-0.040966
  0
VERTEX
  8
0
 10
36.362313
 20
17.119133
 42
-0.033437
  0
VERTEX
  8
0
 10
34.856609
 20
16.565779
 42
-0.018520
  0
VERTEX
  8
0
 10
32.957670
 20
16.084342
 42
-0.021810
  0
VERTEX
  8
0
 10
26.964853
 20
15.070137
 42
-0.079241
  0
VERTEX
  8
0
 10
23.116486
 20
15.201484
 42
-0.516715
  0
VERTEX
  8
0
 10
22.627905
 20
16.281984
 42
-0.149149
  0
VERTEX
  8
0
 10
24.250000
 20
17.779505
 42
-0.083709
  0
VERTEX
  8
0
 10
27.033368
 20
18.586944
 42
-0.023060
  0
VERTEX
  8
0
 10
31.597143
 20
18.903283
 42
-0.016572
  0
VERTEX
  8
0
 10
36.128503
 20
18.857749
 42
-0.248438
  0
SEQEND
  0
POLYLINE
  8
0
 66
1
 70
1
  0
VERTEX
  8
0
 10
125.458881
 20
209.933469
 42
0.049364
  0
VERTEX
  8
0
 10
125.242038
 20
209.490157
 42
0.059701
  0
VERTEX
  8
0
 10
125.133355
 20
209.040231
 42
0.070517
  0
VERTEX
  8
0
 10
125.142323
 20
208.651151
 42
0.156651
  0
VERTEX
  8
0
 10
125.276326
 20
208.390341
 42
0.281567
  0
VERTEX
  8
0
 10
125.505460
 20
208.335123
 42
0.118528
  0
VERTEX
  8
0
 10
125.786868
 20
208.507038
 42
0.069269
  0
VERTEX
  8
0
 10
126.083816
 20
208.899181
 42
0.035865
  0
VERTEX
  8
0
 10
126.345077
 20
209.456872
 42
0.029555
  0
VERTEX
  8
0
 10
126.696703
 20
210.564815
 42
0.344086
  0
VERTEX
  8
0
 10
126.525317
 20
210.954259
 42
0.361950
  0
VERTEX
  8
0
 10
126.120758
 20
210.871774
 42
0.030391
  0
SEQEND
  0
POLYLINE
  8
0
 66
1
 70
1
  0
VERTEX
  8
0
 10
79.000000
 20
125.434259
 42
0.172977
  0
VERTEX
  8
0
 10
79.855254
 20
123.036065
 42
0.097300
  0
VERTEX
  8
0
 10
82.264658
 20
121.040690
 42
0.066567
  0
VERTEX
  8
0
 10
86.182774
 20
119.544612
 42
0.031929
  0
VERTEX
  8
0
 10
91.500000
 20
118.642951
 42
0.017534
  0
VERTEX
  8
0
 10
94.469676
 20
118.437499
 42
0.668718
  0
VERTEX
  8
0
 10
94.672618
 20
118.884761
 42
0.142997
  0
VERTEX
  8
0
 10
93.528032
 20
119.561320
 42
0.009826
  0
VERTEX
  8
0
 10
89.827072
 20
120.428371
 42
-0.049469
  0
VERTEX
  8
0
 10
88.591830
 20
120.823146
 42
-0.022540
  0
VERTEX
  8
0
 10
87.066460
 20
121.566133
 42
-0.022059
  0
VERTEX
  8
0
 10
85.516234
 20
122.500547
 42
-0.028245
  0
VERTEX
  8
0
 10
84.182716
 20
123.499708
 42
0.027288
  0
VERTEX
  8
0
 10
82.228348
 20
124.969891
 42
0.058348
  0
VERTEX
  8
0
 10
80.550324
 20
125.830342
 42
0.123219
  0
VERTEX
  8
0
 10
79.454461
 20
125.953650
 42
0.375731
  0
SEQEND
  0
POLYLINE
  8
0
 66
1
 70
1
  0
VERTEX
  8
0
 10
78.476217
 20
114.750000
 42
0.000000
  0
VERTEX
  8
0
 10
76.901073
 20
111.500000
 42
0.000000
  0
VERTEX
  8
0
 10
78.950537
 20
113.860784
 42
0.017139
  0
VERTEX
  8
0
 10
79.735212
 20
114.829832
 42
0.020942
  0
VERTEX
  8
0
 10
80.397970
 20
115.789295
 42
0.019967
  0
VERTEX
  8
0
 10
80.881123
 20
116.627898
 42
0.121280
  0
VERTEX
  8
0
 10
81.000000
 20
117.110784
 42
0.174521
  0
VERTEX
  8
0
 10
80.767505
 20
117.756592
 42
0.432171
  0
VERTEX
  8
0
 10
80.319345
 20
117.785231
 42
0.077291
  0
VERTEX
  8
0
 10
79.541106
 20
116.791706
 42
0.014728
  0
SEQEND
  0
POLYLINE
  8
0
 66
1
 70
1
  0
VERTEX
  8
0
 10
81.451944
 20
114.907070
 42
0.019784
  0
VERTEX
  8
0
 10
80.878882
 20
113.682468
 42
0.029074
  0
VERTEX
  8
0
 10
80.482672
 20
112.562371
 42
0.028569
  0
VERTEX
  8
0
 10
80.275107
 20
111.654394
 42
0.242867
  0
VERTEX
  8
0
 10
80.398285
 20
111.268381
 42
0.388880
  0
VERTEX
  8
0
 10
80.682716
 20
111.255964
 42
0.062748
  0
VERTEX
  8
0
 10
81.094516
 20
111.700377
 42
0.042280
  0
VERTEX
  8
0
 10
81.557200
 20
112.476673
 42
0.022417
  0
VERTEX
  8
0
 10
82.002048
 20
113.505387
 42
-0.005761
  0
VERTEX
  8
0
 10
82.445911
 20
114.633528
 42
-0.006227
  0
VERTEX
  8
0
 10
82.904655
 20
115.722142
 42
-0.005901
  0
VERTEX
  8
0
 10
83.320482
 20
116.645658
 42
-0.029683
  0
VERTEX
  8
0
 10
83.589044
 20
117.144075
 42
0.044090
  0
VERTEX
  8
0
 10
83.753985
 20
117.472477
 42
0.095894
  0
VERTEX
  8
0
 10
83.805975
 20
117.748572
 42
0.174048
  0
VERTEX
  8
0
 10
83.740987
 20
117.926762
 42
0.222682
  0
VERTEX
  8
0
 10
83.584697
 20
118.000000
 42
0.231416
  0
VERTEX
  8
0
 10
83.303080
 20
117.862283
 42
0.014367
  0
VERTEX
  8
0
 10
82.738199
 20
117.091452
 42
0.018901
  0
VERTEX
  8
0
 10
82.103487
 20
116.092185
 42
0.012710
  0
SEQEND
  0
POLYLINE
  8
0
 66
1
 70
1
  0
VERTEX
  8
0
 10
83.600000
 20
113.900000
 42
0.019059
  0
VERTEX
  8
0
 10
82.950311
 20
112.697785
 42
0.028650
  0
VERTEX
  8
0
 10
82.486212
 20
111.600247
 42
0.027852
  0
VERTEX
  8
0
 10
82.223197
 20
110.709375
 42
0.259817
  0
VERTEX
  8
0
 10
82.328830
 20
110.337836
 42
0.397440
  0
VERTEX
  8
0
 10
82.632448
 20
110.329089
 42
0.039732
  0
VERTEX
  8
0
 10
83.182636
 20
110.903822
 42
0.033160
  0
VERTEX
  8
0
 10
83.830609
 20
111.815574
 42
0.018582
  0
VERTEX
  8
0
 10
84.500000
 20
113.000000
 42
0.010468
  0
VERTEX
  8
0
 10
85.854739
 20
115.759887
 42
0.315037
  0
VERTEX
  8
0
 10
85.727003
 20
116.482303
 42
0.476024
  0
VERTEX
  8
0
 10
85.169870
 20
116.424620
 42
0.011375
  0
SEQEND
  0
POLYLINE
  8
0
 66
1
 70
1
  0
VERTEX
  8
0
 10
140.500000
 20
116.779674
 42
-0.064678
  0
VERTEX
  8
0
 10
139.327618
 20
116.289209
 42
-0.013816
  0
VERTEX
  8
0
 10
137.178125
 20
115.764515
 42
-0.014224
  0
VERTEX
  8
0
 10
134.635147
 20
115.292983
 42
-0.013118
  0
VERTEX
  8
0
 10
132.000000
 20
114.952058
 42
0.000000
  0
VERTEX
  8
0
 10
125.500000
 20
114.283950
 42
0.000000
  0
VERTEX
  8
0
 10
133.250000
 20
114.141975
 42
-0.007204
  0
VERTEX
  8
0
 10
136.221540
 20
114.044698
 42
-0.011940
  0
VERTEX
  8
0
 10
138.723437
 20
113.866739
 42
-0.005600
  0
VERTEX
  8
0
 10
140.784002
 20
113.647314
 42
-0.380264
  0
VERTEX
  8
0
 10
141.000000
 20
113.404370
 42
-0.125098
  0
VERTEX
  8
0
 10
140.907137
 20
113.039018
 42
-0.009065
  0
VERTEX
  8
0
 10
140.389448
 20
112.126266
 42
-0.012239
  0
VERTEX
  8
0
 10
139.717669
 20
111.051276
 42
-0.008940
  0
VERTEX
  8
0
 10
138.921526
 20
109.889793
 42
0.023921
  0
VERTEX
  8
0
 10
138.152434
 20
108.692389
 42
0.029688
  0
VERTEX
  8
0
 10
137.560254
 20
107.508335
 42
0.030530
  0
VERTEX
  8
0
 10
137.194226
 20
106.484517
 42
0.152174
  0
VERTEX
  8
0
 10
137.206117
 20
105.881650
 42
0.540973
  0
VERTEX
  8
0
 10
137.528374
 20
105.796863
 42
0.042136
  0
VERTEX
  8
0
 10
138.261735
 20
106.580807
 42
0.028472
  0
VERTEX
  8
0
 10
139.219536
 20
107.948523
 42
0.013891
  0
VERTEX
  8
0
 10
140.289876
 20
109.791267
 42
-0.016775
  0
VERTEX
  8
0
 10
141.441102
 20
111.747209
 42
-0.020530
  0
VERTEX
  8
0
 10
142.650439
 20
113.490166
 42
-0.019480
  0
VERTEX
  8
0
 10
143.766559
 20
114.851917
 42
-0.120286
  0
VERTEX
  8
0
 10
144.505285
 20
115.363655
 42
0.055806
  0
VERTEX
  8
0
 10
145.076908
 20
115.659727
 42
0.057952
  0
VERTEX
  8
0
 10
145.560928
 20
116.071712
 42
0.064396
  0
VERTEX
  8
0
 10
145.890143
 20
116.531657
 42
0.123781
  0
VERTEX
  8
0
 10
146.000000
 20
116.968615
 42
0.305892
  0
VERTEX
  8
0
 10
145.508085
 20
117.697445
 42
0.104812
  0
VERTEX
  8
0
 10
144.188503
 20
117.930107
 42
0.069860
  0
VERTEX
  8
0
 10
142.360483
 20
117.609096
 42
0.053068
  0
SEQEND
  0
POLYLINE
  8
0
 66
1
 70
1
  0
VERTEX
  8
0
 10
120.500000
 20
116.000000
 42
0.122282
  0
VERTEX
  8
0
 10
120.891844
 20
115.617091
 42
0.048375
  0
VERTEX
  8
0
 10
121.580088
 20
115.298248
 42
0.044123
  0
VERTEX
  8
0
 10
122.425037
 20
115.083423
 42
0.041968
  0
VERTEX
  8
0
 10
123.309017
 20
115.015313
 42
0.011327
  0
VERTEX
  8
0
 10
124.478465
 20
115.049987
 42
0.230617
  0
VERTEX
  8
0
 10
124.779775
 20
115.216793
 42
0.400385
  0
VERTEX
  8
0
 10
124.740805
 20
115.475003
 42
0.021402
  0
VERTEX
  8
0
 10
124.000000
 20
116.000000
 42
0.055643
  0
VERTEX
  8
0
 10
122.565383
 20
116.715363
 42
0.088074
  0
VERTEX
  8
0
 10
121.216129
 20
116.954890
 42
0.224569
  0
VERTEX
  8
0
 10
120.542570
 20
116.636302
 42
0.320535
  0
SEQEND
  0
POLYLINE
  8
0
 66
1
 70
1
  0
VERTEX
  8
0
 10
140.505548
 20
108.006131
 42
0.026836
  0
VERTEX
  8
0
 10
139.879557
 20
107.235031
 42
0.064121
  0
VERTEX
  8
0
 10
139.526644
 20
106.589301
 42
0.150719
  0
VERTEX
  8
0
 10
139.496726
 20
106.179759
 42
0.349393
  0
VERTEX
  8
0
 10
139.722568
 20
106.000000
 42
0.165930
  0
VERTEX
  8
0
 10
140.753863
 20
106.351935
 42
0.048942
  0
VERTEX
  8
0
 10
141.986620
 20
107.513173
 42
0.050145
  0
VERTEX
  8
0
 10
142.901354
 20
108.801948
 42
0.337629
  0
VERTEX
  8
0
 10
142.803037
 20
109.530297
 42
0.305748
  0
VERTEX
  8
0
 10
142.501048
 20
109.588987
 42
0.046095
  0
VERTEX
  8
0
 10
141.929339
 20
109.281384
 42
0.038623
  0
VERTEX
  8
0
 10
141.236234
 20
108.740180
 42
0.023774
  0
SEQEND
  0
POLYLINE
  8
0
 66
1
 70
1
  0
VERTEX
  8
0
 10
128.750000
 20
89.310674
 42
0.126437
  0
VERTEX
  8
0
 10
127.462984
 20
88.595577
 42
0.242905
  0
VERTEX
  8
0
 10
127.084307
 20
87.509641
 42
0.169401
  0
VERTEX
  8
0
 10
127.738326
 20
86.243104
 42
0.066878
  0
VERTEX
  8
0
 10
129.350759
 20
85.079872
 42
0.076017
  0
VERTEX
  8
0
 10
131.734777
 20
84.237484
 42
0.090209
  0
VERTEX
  8
0
 10
134.119612
 20
84.218450
 42
0.113827
  0
VERTEX
  8
0
 10
135.953593
 20
84.990880
 42
0.191548
  0
VERTEX
  8
0
 10
136.838177
 20
86.380173
 42
0.187420
  0
VERTEX
  8
0
 10
136.494150
 20
88.248743
 42
0.169232
  0
VERTEX
  8
0
 10
134.963172
 20
89.494130
 42
0.103426
  0
VERTEX
  8
0
 10
132.265325
 20
89.878411
 42
0.047781
  0
SEQEND
  0
POLYLINE
  8
0
 66
1
 70
1
  0
VERTEX
  8
0
 10
135.000000
 20
87.000000
 42
-0.304766
  0
VERTEX
  8
0
 10
134.530389
 20
86.301117
 42
-0.097179
  0
VERTEX
  8
0
 10
133.237060
 20
86.047350
 42
-0.071596
  0
VERTEX
  8
0
 10
131.547831
 20
86.290480
 42
-0.072084
  0
VERTEX
  8
0
 10
130.000000
 20
87.000000
 42
-0.072010
  0
VERTEX
  8
0
 10
129.470206
 20
87.462332
 42
-0.473162
  0
VERTEX
  8
0
 10
129.523320
 20
87.763835
 42
-0.116665
  0
VERTEX
  8
0
 10
130.143611
 20
87.942368
 42
-0.010814
  0
VERTEX
  8
0
 10
131.750000
 20
87.984687
 42
-0.029148
  0
VERTEX
  8
0
 10
132.995198
 20
87.917922
 42
-0.045617
  0
VERTEX
  8
0
 10
134.045312
 20
87.701752
 42
-0.057513
  0
VERTEX
  8
0
 10
134.778455
 20
87.383899
 42
-0.267845
  0
SEQEND
  0
ENDSEC
  0
EOF
